a0000-p1000.ufo
<glyph name="exclam" format="1">
  <advance width="286"/>
  <unicode hex="0021"/>
  <outline>
    <contour>
      <point x="143" y="-10" type="curve" smooth="yes"/>
      <point x="210" y="-10"/>
      <point x="249" y="26"/>
      <point x="249" y="90" type="curve" smooth="yes"/>
      <point x="249" y="154"/>
      <point x="210" y="190"/>
      <point x="143" y="190" type="curve" smooth="yes"/>
      <point x="76" y="190"/>
      <point x="37" y="154"/>
      <point x="37" y="90" type="curve" smooth="yes"/>
      <point x="37" y="26"/>
      <point x="76" y="-10"/>
    </contour>
    <contour>
      <point x="85" y="277" type="line"/>
      <point x="203" y="277" type="line"/>
      <point x="203" y="287" type="line"/>
      <point x="245" y="730" type="line"/>
      <point x="245" y="740" type="line"/>
      <point x="42" y="740" type="line"/>
      <point x="42" y="730" type="line"/>
      <point x="85" y="287" type="line"/>
    </contour>
  </outline>
</glyph>
<glyph name="percent" format="1">
  <advance width="985"/>
  <unicode hex="0025"/>
  <outline>
    <contour>
      <point x="214" y="272" type="curve" smooth="yes"/>
      <point x="339" y="272"/>
      <point x="406" y="355"/>
      <point x="406" y="510" type="curve" smooth="yes"/>
      <point x="406" y="665"/>
      <point x="339" y="749"/>
      <point x="214" y="749" type="curve" smooth="yes"/>
      <point x="90" y="749"/>
      <point x="22" y="665"/>
      <point x="22" y="510" type="curve" smooth="yes"/>
      <point x="22" y="356"/>
      <point x="89" y="272"/>
    </contour>
    <contour>
      <point x="214" y="392" type="curve" smooth="yes"/>
      <point x="176" y="392"/>
      <point x="162" y="424"/>
      <point x="162" y="510" type="curve" smooth="yes"/>
      <point x="162" y="597"/>
      <point x="176" y="629"/>
      <point x="214" y="629" type="curve" smooth="yes"/>
      <point x="253" y="629"/>
      <point x="266" y="599"/>
      <point x="266" y="510" type="curve" smooth="yes"/>
      <point x="266" y="422"/>
      <point x="253" y="392"/>
    </contour>
    <contour>
      <point x="771" y="-10" type="curve" smooth="yes"/>
      <point x="896" y="-10"/>
      <point x="963" y="73"/>
      <point x="963" y="228" type="curve" smooth="yes"/>
      <point x="963" y="383"/>
      <point x="896" y="467"/>
      <point x="771" y="467" type="curve" smooth="yes"/>
      <point x="647" y="467"/>
      <point x="579" y="383"/>
      <point x="579" y="228" type="curve" smooth="yes"/>
      <point x="579" y="74"/>
      <point x="646" y="-10"/>
    </contour>
    <contour>
      <point x="771" y="110" type="curve" smooth="yes"/>
      <point x="733" y="110"/>
      <point x="719" y="142"/>
      <point x="719" y="228" type="curve" smooth="yes"/>
      <point x="719" y="315"/>
      <point x="733" y="347"/>
      <point x="771" y="347" type="curve" smooth="yes"/>
      <point x="810" y="347"/>
      <point x="823" y="317"/>
      <point x="823" y="228" type="curve" smooth="yes"/>
      <point x="823" y="140"/>
      <point x="810" y="110"/>
    </contour>
    <contour>
      <point x="288" y="0" type="line"/>
      <point x="439" y="0" type="line"/>
      <point x="699" y="740" type="line"/>
      <point x="548" y="740" type="line"/>
    </contour>
  </outline>
</glyph>
<glyph name="ampersand" format="1">
  <advance width="678"/>
  <unicode hex="0026"/>
  <outline>
    <contour>
      <point x="615" y="33" type="line"/>
      <point x="619" y="33" type="line"/>
      <point x="688" y="196" type="line"/>
      <point x="688" y="200" type="line"/>
      <point x="420" y="376" type="line" smooth="yes"/>
      <point x="317" y="444"/>
      <point x="268" y="496"/>
      <point x="268" y="537" type="curve" smooth="yes"/>
      <point x="268" y="580"/>
      <point x="292" y="598"/>
      <point x="347" y="598" type="curve" smooth="yes"/>
      <point x="388" y="598"/>
      <point x="447" y="587"/>
      <point x="491" y="570" type="curve"/>
      <point x="495" y="570" type="line"/>
      <point x="513" y="718" type="line"/>
      <point x="513" y="722" type="line"/>
      <point x="449" y="742"/>
      <point x="391" y="751"/>
      <point x="331" y="751" type="curve" smooth="yes"/>
      <point x="173" y="751"/>
      <point x="83" y="684"/>
      <point x="83" y="566" type="curve" smooth="yes"/>
      <point x="83" y="468"/>
      <point x="155" y="379"/>
      <point x="357" y="227" type="curve" smooth="yes"/>
    </contour>
    <contour>
      <point x="302" y="-9" type="curve" smooth="yes"/>
      <point x="495" y="-9"/>
      <point x="614" y="126"/>
      <point x="614" y="343" type="curve" smooth="yes"/>
      <point x="614" y="426" type="line"/>
      <point x="451" y="414" type="line"/>
      <point x="451" y="341" type="line" smooth="yes"/>
      <point x="451" y="203"/>
      <point x="408" y="138"/>
      <point x="315" y="138" type="curve" smooth="yes"/>
      <point x="258" y="138"/>
      <point x="218" y="171"/>
      <point x="218" y="218" type="curve" smooth="yes"/>
      <point x="218" y="261"/>
      <point x="235" y="288"/>
      <point x="268" y="299" type="curve"/>
      <point x="201" y="397" type="line"/>
      <point x="178" y="394" type="line"/>
      <point x="87" y="378"/>
      <point x="29" y="304"/>
      <point x="29" y="205" type="curve" smooth="yes"/>
      <point x="29" y="74"/>
      <point x="136" y="-9"/>
    </contour>
  </outline>
</glyph>
<glyph name="quotesingle" format="1">
  <advance width="207"/>
  <unicode hex="0027"/>
  <outline>
    <contour>
      <point x="40" y="808" type="line"/>
      <point x="40" y="480" type="line"/>
      <point x="141" y="480" type="line"/>
      <point x="188" y="804" type="line"/>
      <point x="188" y="808" type="line"/>
    </contour>
  </outline>
</glyph>
<glyph name="parenright" format="1">
  <advance width="335"/>
  <unicode hex="0029"/>
  <outline>
    <contour>
      <point x="161" y="-160" type="line"/>
      <point x="263" y="-10"/>
      <point x="314" y="172"/>
      <point x="314" y="354" type="curve" smooth="yes"/>
      <point x="314" y="536"/>
      <point x="263" y="718"/>
      <point x="161" y="868" type="curve"/>
      <point x="-4" y="868" type="line"/>
      <point x="-4" y="864" type="line"/>
      <point x="98" y="714"/>
      <point x="162" y="534"/>
      <point x="162" y="354" type="curve" smooth="yes"/>
      <point x="162" y="174"/>
      <point x="98" y="-6"/>
      <point x="-4" y="-156" type="curve"/>
      <point x="-4" y="-160" type="line"/>
    </contour>
  </outline>
</glyph>
<glyph name="plus" format="1">
  <advance width="519"/>
  <unicode hex="002B"/>
  <outline>
    <contour>
      <point x="23" y="303" type="line"/>
      <point x="497" y="303" type="line"/>
      <point x="497" y="437" type="line"/>
      <point x="23" y="437" type="line"/>
    </contour>
    <contour>
      <point x="193" y="148" type="line"/>
      <point x="327" y="148" type="line"/>
      <point x="327" y="592" type="line"/>
      <point x="193" y="592" type="line"/>
    </contour>
  </outline>
</glyph>
<glyph name="period" format="1">
  <advance width="257"/>
  <unicode hex="002E"/>
  <outline>
    <contour>
      <point x="128" y="-9" type="curve" smooth="yes"/>
      <point x="201" y="-9"/>
      <point x="231" y="21"/>
      <point x="231" y="91" type="curve" smooth="yes"/>
      <point x="231" y="161"/>
      <point x="200" y="190"/>
      <point x="128" y="190" type="curve" smooth="yes"/>
      <point x="55" y="190"/>
      <point x="26" y="161"/>
      <point x="26" y="91" type="curve" smooth="yes"/>
      <point x="26" y="20"/>
      <point x="56" y="-9"/>
    </contour>
  </outline>
</glyph>
<glyph name="slash" format="1">
  <advance width="358"/>
  <unicode hex="002F"/>
  <outline>
    <contour>
      <point x="18" y="-120" type="line"/>
      <point x="180" y="-120" type="line"/>
      <point x="340" y="740" type="line"/>
      <point x="178" y="740" type="line"/>
    </contour>
  </outline>
</glyph>
<glyph name="zero" format="1">
  <advance width="624"/>
  <unicode hex="0030"/>
  <note>
    420
  </note>
  <outline>
    <contour>
      <point x="312" y="-10" type="curve" smooth="yes"/>
      <point x="496" y="-10"/>
      <point x="595" y="122"/>
      <point x="595" y="369" type="curve" smooth="yes"/>
      <point x="595" y="617"/>
      <point x="496" y="750"/>
      <point x="312" y="750" type="curve" smooth="yes"/>
      <point x="128" y="750"/>
      <point x="29" y="616"/>
      <point x="29" y="369" type="curve" smooth="yes"/>
      <point x="29" y="123"/>
      <point x="128" y="-10"/>
    </contour>
    <contour>
      <point x="312" y="149" type="curve" smooth="yes"/>
      <point x="246" y="149"/>
      <point x="224" y="208"/>
      <point x="224" y="369" type="curve" smooth="yes"/>
      <point x="224" y="532"/>
      <point x="246" y="591"/>
      <point x="312" y="591" type="curve" smooth="yes"/>
      <point x="379" y="591"/>
      <point x="400" y="534"/>
      <point x="400" y="369" type="curve" smooth="yes"/>
      <point x="400" y="205"/>
      <point x="379" y="149"/>
    </contour>
  </outline>
</glyph>
<glyph name="four" format="1">
  <advance width="576"/>
  <unicode hex="0034"/>
  <outline>
    <contour>
      <point x="22" y="143" type="line"/>
      <point x="563" y="143" type="line"/>
      <point x="563" y="283" type="line"/>
      <point x="198" y="283" type="line"/>
      <point x="198" y="287" type="line"/>
      <point x="439" y="736" type="line"/>
      <point x="430" y="740" type="line"/>
      <point x="240" y="750" type="line"/>
      <point x="236" y="750" type="line"/>
      <point x="5" y="265" type="line"/>
      <point x="5" y="261" type="line"/>
    </contour>
    <contour>
      <point x="298" y="0" type="line"/>
      <point x="493" y="0" type="line"/>
      <point x="493" y="456" type="line"/>
      <point x="349" y="456" type="line"/>
      <point x="298" y="227" type="line"/>
    </contour>
  </outline>
</glyph>
<glyph name="five" format="1">
  <advance width="499"/>
  <unicode hex="0035"/>
  <outline>
    <contour>
      <point x="184" y="-11" type="curve" smooth="yes"/>
      <point x="371" y="-11"/>
      <point x="482" y="78"/>
      <point x="482" y="228" type="curve" smooth="yes"/>
      <point x="482" y="387"/>
      <point x="395" y="455"/>
      <point x="193" y="455" type="curve"/>
      <point x="202" y="395" type="line"/>
      <point x="219" y="670" type="line"/>
      <point x="152" y="580" type="line"/>
      <point x="427" y="580" type="line"/>
      <point x="427" y="740" type="line"/>
      <point x="65" y="740" type="line"/>
      <point x="39" y="325" type="line"/>
      <point x="43" y="321" type="line"/>
      <point x="115" y="321" type="line" smooth="yes"/>
      <point x="250" y="321"/>
      <point x="287" y="301"/>
      <point x="287" y="228" type="curve" smooth="yes"/>
      <point x="287" y="174"/>
      <point x="249" y="149"/>
      <point x="168" y="149" type="curve" smooth="yes"/>
      <point x="139" y="149"/>
      <point x="108" y="153"/>
      <point x="74" y="161" type="curve"/>
      <point x="35" y="161" type="line"/>
      <point x="35" y="4" type="line"/>
      <point x="100" y="-6"/>
      <point x="145" y="-11"/>
    </contour>
  </outline>
</glyph>
<glyph name="less" format="1">
  <advance width="553"/>
  <unicode hex="003C"/>
  <outline>
    <contour>
      <point x="23" y="320" type="line"/>
      <point x="112" y="320" type="line"/>
      <point x="506" y="489" type="line"/>
      <point x="506" y="636" type="line"/>
      <point x="23" y="429" type="line"/>
    </contour>
    <contour>
      <point x="506" y="90" type="line"/>
      <point x="506" y="237" type="line"/>
      <point x="112" y="406" type="line"/>
      <point x="23" y="406" type="line"/>
      <point x="23" y="297" type="line"/>
    </contour>
  </outline>
</glyph>
<glyph name="greater" format="1">
  <advance width="553"/>
  <unicode hex="003E"/>
  <outline>
    <contour>
      <point x="441" y="320" type="line"/>
      <point x="530" y="320" type="line"/>
      <point x="530" y="429" type="line"/>
      <point x="47" y="636" type="line"/>
      <point x="47" y="489" type="line"/>
    </contour>
    <contour>
      <point x="47" y="90" type="line"/>
      <point x="530" y="297" type="line"/>
      <point x="530" y="406" type="line"/>
      <point x="441" y="406" type="line"/>
      <point x="47" y="237" type="line"/>
    </contour>
  </outline>
</glyph>
<glyph name="at" format="1">
  <advance width="820"/>
  <unicode hex="0040"/>
  <outline>
    <contour>
      <point x="403" y="-138" type="curve" smooth="yes"/>
      <point x="473" y="-138"/>
      <point x="557" y="-117"/>
      <point x="636" y="-90" type="curve"/>
      <point x="600" y="3" type="line"/>
      <point x="528" y="-21"/>
      <point x="456" y="-40"/>
      <point x="403" y="-40" type="curve" smooth="yes"/>
      <point x="276" y="-40"/>
      <point x="143" y="34"/>
      <point x="143" y="262" type="curve" smooth="yes"/>
      <point x="143" y="466"/>
      <point x="260" y="571"/>
      <point x="427" y="571" type="curve" smooth="yes"/>
      <point x="605" y="571"/>
      <point x="671" y="467"/>
      <point x="671" y="307" type="curve" smooth="yes"/>
      <point x="671" y="205"/>
      <point x="647" y="139"/>
      <point x="604" y="139" type="curve" smooth="yes"/>
      <point x="577" y="139"/>
      <point x="570" y="159"/>
      <point x="570" y="184" type="curve" smooth="yes"/>
      <point x="570" y="204"/>
      <point x="575" y="227"/>
      <point x="578" y="246" type="curve" smooth="yes"/>
      <point x="614" y="449" type="line"/>
      <point x="543" y="478"/>
      <point x="487" y="493"/>
      <point x="444" y="493" type="curve" smooth="yes"/>
      <point x="297" y="493"/>
      <point x="207" y="384"/>
      <point x="207" y="231" type="curve" smooth="yes"/>
      <point x="207" y="133"/>
      <point x="252" y="52"/>
      <point x="353" y="52" type="curve" smooth="yes"/>
      <point x="407" y="52"/>
      <point x="456" y="71"/>
      <point x="492" y="128" type="curve"/>
      <point x="496" y="128" type="line"/>
      <point x="506" y="58"/>
      <point x="550" y="46"/>
      <point x="598" y="46" type="curve" smooth="yes"/>
      <point x="725" y="46"/>
      <point x="788" y="150"/>
      <point x="788" y="307" type="curve" smooth="yes"/>
      <point x="788" y="531"/>
      <point x="687" y="677"/>
      <point x="427" y="677" type="curve" smooth="yes"/>
      <point x="194" y="677"/>
      <point x="26" y="536"/>
      <point x="26" y="262" type="curve" smooth="yes"/>
      <point x="26" y="-40"/>
      <point x="218" y="-138"/>
    </contour>
    <contour>
      <point x="377" y="150" type="curve" smooth="yes"/>
      <point x="334" y="150"/>
      <point x="321" y="190"/>
      <point x="321" y="231" type="curve" smooth="yes"/>
      <point x="321" y="328"/>
      <point x="367" y="395"/>
      <point x="444" y="395" type="curve" smooth="yes"/>
      <point x="458" y="395"/>
      <point x="473" y="395"/>
      <point x="490" y="389" type="curve"/>
      <point x="469" y="263" type="line" smooth="yes"/>
      <point x="454" y="174"/>
      <point x="411" y="150"/>
    </contour>
  </outline>
</glyph>
<glyph name="B" format="1">
  <advance width="605"/>
  <unicode hex="0042"/>
  <outline>
    <contour>
      <point x="245" y="-10" type="curve" smooth="yes"/>
      <point x="469" y="-10"/>
      <point x="583" y="63"/>
      <point x="583" y="205" type="curve" smooth="yes"/>
      <point x="583" y="301"/>
      <point x="540" y="361"/>
      <point x="459" y="379" type="curve"/>
      <point x="459" y="383" type="line"/>
      <point x="530" y="403"/>
      <point x="565" y="454"/>
      <point x="565" y="537" type="curve" smooth="yes"/>
      <point x="565" y="685"/>
      <point x="473" y="750"/>
      <point x="261" y="750" type="curve" smooth="yes"/>
      <point x="204" y="750"/>
      <point x="135" y="745"/>
      <point x="50" y="735" type="curve"/>
      <point x="50" y="5" type="line"/>
      <point x="113" y="-5"/>
      <point x="182" y="-10"/>
    </contour>
    <contour>
      <point x="279" y="138" type="curve" smooth="yes"/>
      <point x="252" y="138"/>
      <point x="240" y="139"/>
      <point x="228" y="142" type="curve"/>
      <point x="228" y="300" type="line"/>
      <point x="277" y="300" type="line" smooth="yes"/>
      <point x="356" y="300"/>
      <point x="383" y="278"/>
      <point x="383" y="216" type="curve" smooth="yes"/>
      <point x="383" y="166"/>
      <point x="346" y="138"/>
    </contour>
    <contour>
      <point x="228" y="440" type="line"/>
      <point x="228" y="597" type="line"/>
      <point x="251" y="600"/>
      <point x="268" y="602"/>
      <point x="283" y="602" type="curve" smooth="yes"/>
      <point x="338" y="602"/>
      <point x="365" y="577"/>
      <point x="365" y="524" type="curve" smooth="yes"/>
      <point x="365" y="460"/>
      <point x="343" y="440"/>
      <point x="276" y="440" type="curve" smooth="yes"/>
    </contour>
  </outline>
</glyph>
<glyph name="C" format="1">
  <advance width="508"/>
  <unicode hex="0043"/>
  <outline>
    <contour>
      <point x="283" y="805" type="move" name="topUC"/>
    </contour>
    <contour>
      <point x="297" y="0" type="move" name="bottom"/>
    </contour>
    <contour>
      <point x="330" y="-9" type="curve" smooth="yes"/>
      <point x="390" y="-9"/>
      <point x="456" y="2"/>
      <point x="484" y="16" type="curve"/>
      <point x="484" y="165" type="line"/>
      <point x="445" y="155"/>
      <point x="405" y="150"/>
      <point x="359" y="150" type="curve" smooth="yes"/>
      <point x="260" y="150"/>
      <point x="226" y="185"/>
      <point x="226" y="369" type="curve" smooth="yes"/>
      <point x="226" y="553"/>
      <point x="261" y="590"/>
      <point x="359" y="590" type="curve" smooth="yes"/>
      <point x="393" y="590"/>
      <point x="439" y="586"/>
      <point x="484" y="578" type="curve"/>
      <point x="484" y="731" type="line"/>
      <point x="430" y="743"/>
      <point x="378" y="749"/>
      <point x="329" y="749" type="curve" smooth="yes"/>
      <point x="134" y="749"/>
      <point x="26" y="628"/>
      <point x="26" y="370" type="curve" smooth="yes"/>
      <point x="26" y="112"/>
      <point x="131" y="-9"/>
    </contour>
  </outline>
</glyph>
<glyph name="D" format="1">
  <advance width="654"/>
  <unicode hex="0044"/>
  <outline>
    <contour>
      <point x="310" y="805" type="move" name="topUC"/>
    </contour>
    <contour>
      <point x="320" y="0" type="move" name="bottom"/>
    </contour>
    <contour>
      <point x="245" y="-12" type="curve" smooth="yes"/>
      <point x="526" y="-12"/>
      <point x="628" y="90"/>
      <point x="628" y="369" type="curve" smooth="yes"/>
      <point x="628" y="648"/>
      <point x="527" y="749"/>
      <point x="247" y="749" type="curve" smooth="yes"/>
      <point x="196" y="749"/>
      <point x="141" y="746"/>
      <point x="50" y="740" type="curve"/>
      <point x="50" y="0" type="line"/>
      <point x="138" y="-8"/>
      <point x="195" y="-12"/>
    </contour>
    <contour>
      <point x="314" y="144" type="curve" smooth="yes"/>
      <point x="295" y="144"/>
      <point x="277" y="145"/>
      <point x="241" y="149" type="curve"/>
      <point x="241" y="591" type="line"/>
      <point x="251" y="594"/>
      <point x="262" y="595"/>
      <point x="285" y="595" type="curve" smooth="yes"/>
      <point x="402" y="595"/>
      <point x="428" y="553"/>
      <point x="428" y="370" type="curve" smooth="yes"/>
      <point x="428" y="183"/>
      <point x="408" y="144"/>
    </contour>
  </outline>
</glyph>
<glyph name="E" format="1">
  <advance width="556"/>
  <unicode hex="0045"/>
  <outline>
    <contour>
      <point x="530" y="0" type="move" name="ogonek"/>
    </contour>
    <contour>
      <point x="292" y="805" type="move" name="topUC"/>
    </contour>
    <contour>
      <point x="294" y="0" type="move" name="bottom"/>
    </contour>
    <contour>
      <point x="50" y="0" type="line"/>
      <point x="530" y="0" type="line"/>
      <point x="530" y="162" type="line"/>
      <point x="245" y="162" type="line"/>
      <point x="245" y="578" type="line"/>
      <point x="521" y="578" type="line"/>
      <point x="521" y="740" type="line"/>
      <point x="50" y="740" type="line"/>
    </contour>
    <contour>
      <point x="189" y="289" type="line"/>
      <point x="490" y="289" type="line"/>
      <point x="490" y="451" type="line"/>
      <point x="189" y="451" type="line"/>
    </contour>
  </outline>
</glyph>
<glyph name="F" format="1">
  <advance width="531"/>
  <unicode hex="0046"/>
  <outline>
    <contour>
      <point x="50" y="0" type="line"/>
      <point x="245" y="0" type="line"/>
      <point x="245" y="578" type="line"/>
      <point x="511" y="578" type="line"/>
      <point x="511" y="740" type="line"/>
      <point x="50" y="740" type="line"/>
    </contour>
    <contour>
      <point x="189" y="269" type="line"/>
      <point x="480" y="269" type="line"/>
      <point x="480" y="431" type="line"/>
      <point x="189" y="431" type="line"/>
    </contour>
  </outline>
</glyph>
<glyph name="G" format="1">
  <advance width="596"/>
  <unicode hex="0047"/>
  <outline>
    <contour>
      <point x="331" y="805" type="move" name="topUC"/>
    </contour>
    <contour>
      <point x="336" y="0" type="move" name="bottom"/>
    </contour>
    <contour>
      <point x="329" y="-9" type="curve" smooth="yes"/>
      <point x="390" y="-9"/>
      <point x="456" y="-4"/>
      <point x="561" y="9" type="curve"/>
      <point x="483" y="165" type="line"/>
      <point x="443" y="155"/>
      <point x="403" y="150"/>
      <point x="358" y="150" type="curve" smooth="yes"/>
      <point x="253" y="150"/>
      <point x="225" y="195"/>
      <point x="225" y="369" type="curve" smooth="yes"/>
      <point x="225" y="538"/>
      <point x="266" y="591"/>
      <point x="397" y="591" type="curve" smooth="yes"/>
      <point x="435" y="591"/>
      <point x="481" y="585"/>
      <point x="548" y="573" type="curve"/>
      <point x="548" y="726" type="line"/>
      <point x="486" y="742"/>
      <point x="431" y="749"/>
      <point x="378" y="749" type="curve" smooth="yes"/>
      <point x="145" y="749"/>
      <point x="25" y="620"/>
      <point x="25" y="370" type="curve" smooth="yes"/>
      <point x="25" y="117"/>
      <point x="126" y="-9"/>
    </contour>
    <contour>
      <point x="387" y="24" type="line"/>
      <point x="561" y="9" type="line"/>
      <point x="561" y="376" type="line"/>
      <point x="387" y="376" type="line"/>
    </contour>
  </outline>
</glyph>
<glyph name="H" format="1">
  <advance width="690"/>
  <unicode hex="0048"/>
  <outline>
    <contour>
      <point x="345" y="805" type="move" name="topUC"/>
    </contour>
    <contour>
      <point x="345" y="0" type="move" name="bottom"/>
    </contour>
    <contour>
      <point x="50" y="0" type="line"/>
      <point x="245" y="0" type="line"/>
      <point x="245" y="297" type="line"/>
      <point x="445" y="297" type="line"/>
      <point x="445" y="0" type="line"/>
      <point x="640" y="0" type="line"/>
      <point x="640" y="740" type="line"/>
      <point x="445" y="740" type="line"/>
      <point x="445" y="459" type="line"/>
      <point x="245" y="459" type="line"/>
      <point x="245" y="740" type="line"/>
      <point x="50" y="740" type="line"/>
    </contour>
  </outline>
</glyph>
<glyph name="I" format="1">
  <advance width="295"/>
  <unicode hex="0049"/>
  <outline>
    <contour>
      <point x="245" y="0" type="move" name="ogonek"/>
    </contour>
    <contour>
      <point x="148" y="805" type="move" name="topUC"/>
    </contour>
    <contour>
      <point x="148" y="0" type="move" name="bottom"/>
    </contour>
    <contour>
      <point x="50" y="0" type="line"/>
      <point x="245" y="0" type="line"/>
      <point x="245" y="740" type="line"/>
      <point x="50" y="740" type="line"/>
    </contour>
  </outline>
</glyph>
<glyph name="J" format="1">
  <advance width="296"/>
  <unicode hex="004A"/>
  <outline>
    <contour>
      <point x="154" y="805" type="move" name="topUC"/>
    </contour>
    <contour>
      <point x="100" y="-214" type="line"/>
      <point x="210" y="-62"/>
      <point x="248" y="40"/>
      <point x="248" y="180" type="curve" smooth="yes"/>
      <point x="248" y="740" type="line"/>
      <point x="52" y="740" type="line"/>
      <point x="52" y="198" type="line" smooth="yes"/>
      <point x="52" y="56"/>
      <point x="35" y="-28"/>
      <point x="-22" y="-160" type="curve"/>
    </contour>
  </outline>
</glyph>
<glyph name="K" format="1">
  <advance width="641"/>
  <unicode hex="004B"/>
  <outline>
    <contour>
      <point x="329" y="0" type="move" name="bottom"/>
    </contour>
    <contour>
      <point x="50" y="0" type="line"/>
      <point x="245" y="0" type="line"/>
      <point x="245" y="297" type="line"/>
      <point x="305" y="297" type="line"/>
      <point x="436" y="0" type="line"/>
      <point x="652" y="0" type="line"/>
      <point x="495" y="345" type="line"/>
      <point x="430" y="373" type="line"/>
      <point x="430" y="380" type="line"/>
      <point x="494" y="408" type="line"/>
      <point x="631" y="740" type="line"/>
      <point x="417" y="740" type="line"/>
      <point x="314" y="459" type="line"/>
      <point x="245" y="459" type="line"/>
      <point x="245" y="740" type="line"/>
      <point x="50" y="740" type="line"/>
    </contour>
  </outline>
</glyph>
<glyph name="O" format="1">
  <advance width="688"/>
  <unicode hex="004F"/>
  <outline>
    <contour>
      <point x="444" y="8" type="move" name="ogonek"/>
    </contour>
    <contour>
      <point x="344" y="805" type="move" name="topUC"/>
    </contour>
    <contour>
      <point x="349" y="0" type="move" name="bottom"/>
    </contour>
    <contour>
      <point x="343" y="-10" type="curve" smooth="yes"/>
      <point x="560" y="-10"/>
      <point x="662" y="111"/>
      <point x="662" y="369" type="curve" smooth="yes"/>
      <point x="662" y="628"/>
      <point x="560" y="750"/>
      <point x="343" y="750" type="curve" smooth="yes"/>
      <point x="130" y="750"/>
      <point x="26" y="625"/>
      <point x="26" y="369" type="curve" smooth="yes"/>
      <point x="26" y="114"/>
      <point x="130" y="-10"/>
    </contour>
    <contour>
      <point x="343" y="149" type="curve" smooth="yes"/>
      <point x="255" y="149"/>
      <point x="226" y="204"/>
      <point x="226" y="369" type="curve" smooth="yes"/>
      <point x="226" y="537"/>
      <point x="255" y="591"/>
      <point x="343" y="591" type="curve" smooth="yes"/>
      <point x="435" y="591"/>
      <point x="462" y="540"/>
      <point x="462" y="369" type="curve" smooth="yes"/>
      <point x="462" y="202"/>
      <point x="433" y="149"/>
    </contour>
  </outline>
</glyph>
<glyph name="P" format="1">
  <advance width="610"/>
  <unicode hex="0050"/>
  <outline>
    <contour>
      <point x="265" y="220" type="curve" smooth="yes"/>
      <point x="498" y="220"/>
      <point x="596" y="298"/>
      <point x="596" y="482" type="curve" smooth="yes"/>
      <point x="596" y="671"/>
      <point x="495" y="750"/>
      <point x="250" y="750" type="curve" smooth="yes"/>
      <point x="183" y="750"/>
      <point x="113" y="745"/>
      <point x="50" y="735" type="curve"/>
      <point x="50" y="232" type="line"/>
      <point x="110" y="224"/>
      <point x="187" y="220"/>
    </contour>
    <contour>
      <point x="286" y="374" type="curve" smooth="yes"/>
      <point x="275" y="374"/>
      <point x="254" y="375"/>
      <point x="245" y="376" type="curve"/>
      <point x="245" y="589" type="line"/>
      <point x="249" y="590"/>
      <point x="268" y="592"/>
      <point x="280" y="592" type="curve" smooth="yes"/>
      <point x="373" y="592"/>
      <point x="396" y="566"/>
      <point x="396" y="482" type="curve" smooth="yes"/>
      <point x="396" y="398"/>
      <point x="372" y="374"/>
    </contour>
    <contour>
      <point x="50" y="0" type="line"/>
      <point x="245" y="0" type="line"/>
      <point x="245" y="690" type="line"/>
      <point x="50" y="690" type="line"/>
    </contour>
  </outline>
</glyph>
<glyph name="R" format="1">
  <advance width="621"/>
  <unicode hex="0052"/>
  <outline>
    <contour>
      <point x="317" y="805" type="move" name="topUC"/>
    </contour>
    <contour>
      <point x="327" y="0" type="move" name="bottom"/>
    </contour>
    <contour>
      <point x="50" y="0" type="line"/>
      <point x="245" y="0" type="line"/>
      <point x="245" y="245" type="line"/>
      <point x="285" y="245" type="line" smooth="yes"/>
      <point x="498" y="245"/>
      <point x="596" y="323"/>
      <point x="596" y="492" type="curve" smooth="yes"/>
      <point x="596" y="674"/>
      <point x="494" y="750"/>
      <point x="250" y="750" type="curve" smooth="yes"/>
      <point x="177" y="750"/>
      <point x="107" y="745"/>
      <point x="50" y="735" type="curve"/>
    </contour>
    <contour>
      <point x="286" y="394" type="curve" smooth="yes"/>
      <point x="275" y="394"/>
      <point x="254" y="395"/>
      <point x="245" y="396" type="curve"/>
      <point x="245" y="589" type="line"/>
      <point x="252" y="590"/>
      <point x="273" y="592"/>
      <point x="280" y="592" type="curve" smooth="yes"/>
      <point x="371" y="592"/>
      <point x="396" y="570"/>
      <point x="396" y="492" type="curve" smooth="yes"/>
      <point x="396" y="416"/>
      <point x="372" y="394"/>
    </contour>
    <contour>
      <point x="420" y="0" type="line"/>
      <point x="621" y="0" type="line"/>
      <point x="444" y="351" type="line"/>
      <point x="289" y="289" type="line"/>
    </contour>
  </outline>
</glyph>
<glyph name="U" format="1">
  <advance width="673"/>
  <unicode hex="0055"/>
  <outline>
    <contour>
      <point x="425" y="4" type="move" name="ogonek"/>
    </contour>
    <contour>
      <point x="329" y="805" type="move" name="topUC"/>
    </contour>
    <contour>
      <point x="337" y="0" type="move" name="bottom"/>
    </contour>
    <contour>
      <point x="337" y="-10" type="curve" smooth="yes"/>
      <point x="553" y="-10"/>
      <point x="628" y="86"/>
      <point x="628" y="282" type="curve" smooth="yes"/>
      <point x="628" y="739" type="line"/>
      <point x="433" y="739" type="line"/>
      <point x="433" y="295" type="line" smooth="yes"/>
      <point x="433" y="188"/>
      <point x="410" y="153"/>
      <point x="337" y="153" type="curve" smooth="yes"/>
      <point x="265" y="153"/>
      <point x="240" y="190"/>
      <point x="240" y="295" type="curve" smooth="yes"/>
      <point x="240" y="739" type="line"/>
      <point x="45" y="739" type="line"/>
      <point x="45" y="282" type="line" smooth="yes"/>
      <point x="45" y="88"/>
      <point x="121" y="-10"/>
    </contour>
  </outline>
</glyph>
<glyph name="W" format="1">
  <advance width="955"/>
  <unicode hex="0057"/>
  <outline>
    <contour>
      <point x="474" y="805" type="move" name="topUC"/>
    </contour>
    <contour>
      <point x="163" y="0" type="line"/>
      <point x="390" y="0" type="line"/>
      <point x="463" y="331" type="line"/>
      <point x="472" y="464" type="line"/>
      <point x="484" y="464" type="line"/>
      <point x="493" y="331" type="line"/>
      <point x="566" y="0" type="line"/>
      <point x="792" y="0" type="line"/>
      <point x="955" y="740" type="line"/>
      <point x="746" y="740" type="line"/>
      <point x="686" y="318" type="line"/>
      <point x="680" y="235" type="line"/>
      <point x="668" y="235" type="line"/>
      <point x="658" y="318" type="line"/>
      <point x="574" y="740" type="line"/>
      <point x="388" y="740" type="line"/>
      <point x="303" y="318" type="line"/>
      <point x="293" y="235" type="line"/>
      <point x="281" y="235" type="line"/>
      <point x="275" y="318" type="line"/>
      <point x="215" y="740" type="line"/>
      <point x="0" y="740" type="line"/>
    </contour>
  </outline>
</glyph>
<glyph name="bracketleft" format="1">
  <advance width="354"/>
  <unicode hex="005B"/>
  <outline>
    <contour>
      <point x="58" y="-160" type="line"/>
      <point x="338" y="-160" type="line"/>
      <point x="338" y="-39" type="line"/>
      <point x="203" y="-39" type="line"/>
      <point x="203" y="747" type="line"/>
      <point x="338" y="747" type="line"/>
      <point x="338" y="868" type="line"/>
      <point x="58" y="868" type="line"/>
    </contour>
  </outline>
</glyph>
<glyph name="backslash" format="1">
  <advance width="358"/>
  <unicode hex="005C"/>
  <outline>
    <contour>
      <point x="178" y="-120" type="line"/>
      <point x="340" y="-120" type="line"/>
      <point x="180" y="740" type="line"/>
      <point x="18" y="740" type="line"/>
    </contour>
  </outline>
</glyph>
<glyph name="asciicircum" format="1">
  <advance width="442"/>
  <unicode hex="005E"/>
  <outline>
    <contour>
      <point x="22" y="481" type="line"/>
      <point x="155" y="481" type="line"/>
      <point x="219" y="678" type="line"/>
      <point x="223" y="678" type="line"/>
      <point x="287" y="481" type="line"/>
      <point x="420" y="481" type="line"/>
      <point x="307" y="789" type="line"/>
      <point x="135" y="789" type="line"/>
    </contour>
  </outline>
</glyph>
<glyph name="underscore" format="1">
  <advance width="550"/>
  <unicode hex="005F"/>
  <outline>
    <contour>
      <point x="31" y="-197" type="line"/>
      <point x="519" y="-197" type="line"/>
      <point x="519" y="-60" type="line"/>
      <point x="31" y="-60" type="line"/>
    </contour>
  </outline>
</glyph>
<glyph name="a" format="1">
  <advance width="528"/>
  <unicode hex="0061"/>
  <note>
    320
  </note>
  <outline>
    <contour>
      <point x="268" y="600" type="move" name="top"/>
    </contour>
    <contour>
      <point x="489" y="0" type="move" name="ogonek"/>
    </contour>
    <contour>
      <point x="170" y="-5" type="curve" smooth="yes"/>
      <point x="226" y="-5"/>
      <point x="279" y="22"/>
      <point x="309" y="65" type="curve"/>
      <point x="319" y="65" type="line"/>
      <point x="332" y="0" type="line"/>
      <point x="489" y="0" type="line"/>
      <point x="489" y="375" type="line" smooth="yes"/>
      <point x="489" y="497"/>
      <point x="419" y="548"/>
      <point x="251" y="548" type="curve" smooth="yes"/>
      <point x="189" y="548"/>
      <point x="122" y="540"/>
      <point x="59" y="530" type="curve"/>
      <point x="70" y="395" type="line"/>
      <point x="102" y="401"/>
      <point x="193" y="409"/>
      <point x="221" y="409" type="curve" smooth="yes"/>
      <point x="290" y="409"/>
      <point x="299" y="398"/>
      <point x="299" y="321" type="curve" smooth="yes"/>
      <point x="299" y="153" type="line"/>
      <point x="280" y="140"/>
      <point x="258" y="131"/>
      <point x="243" y="131" type="curve" smooth="yes"/>
      <point x="217" y="131"/>
      <point x="202" y="149"/>
      <point x="202" y="179" type="curve" smooth="yes"/>
      <point x="202" y="206"/>
      <point x="216" y="219"/>
      <point x="252" y="223" type="curve" smooth="yes"/>
      <point x="331" y="231" type="line"/>
      <point x="322" y="340" type="line"/>
      <point x="210" y="333" type="line" smooth="yes"/>
      <point x="80" y="325"/>
      <point x="14" y="267"/>
      <point x="14" y="162" type="curve" smooth="yes"/>
      <point x="14" y="64"/>
      <point x="78" y="-5"/>
    </contour>
  </outline>
</glyph>
<glyph name="c" format="1">
  <advance width="435"/>
  <unicode hex="0063"/>
  <outline>
    <contour>
      <point x="242" y="600" type="move" name="top"/>
    </contour>
    <contour>
      <point x="236" y="0" type="move" name="bottom"/>
    </contour>
    <contour>
      <point x="301" y="-9" type="curve" smooth="yes"/>
      <point x="341" y="-9"/>
      <point x="381" y="-3"/>
      <point x="407" y="8" type="curve"/>
      <point x="407" y="153" type="line"/>
      <point x="380" y="145"/>
      <point x="353" y="142"/>
      <point x="321" y="142" type="curve" smooth="yes"/>
      <point x="246" y="142"/>
      <point x="217" y="179"/>
      <point x="217" y="272" type="curve" smooth="yes"/>
      <point x="217" y="364"/>
      <point x="245" y="397"/>
      <point x="323" y="397" type="curve" smooth="yes"/>
      <point x="346" y="397"/>
      <point x="376" y="393"/>
      <point x="407" y="386" type="curve"/>
      <point x="407" y="532" type="line"/>
      <point x="381" y="543"/>
      <point x="341" y="549"/>
      <point x="301" y="549" type="curve" smooth="yes"/>
      <point x="116" y="549"/>
      <point x="23" y="464"/>
      <point x="23" y="270" type="curve" smooth="yes"/>
      <point x="23" y="76"/>
      <point x="116" y="-9"/>
    </contour>
  </outline>
</glyph>
<glyph name="e" format="1">
  <advance width="514"/>
  <unicode hex="0065"/>
  <outline>
    <contour>
      <point x="263" y="600" type="move" name="top"/>
    </contour>
    <contour>
      <point x="473" y="22" type="move" name="ogonek"/>
    </contour>
    <contour>
      <point x="263" y="0" type="move" name="bottom"/>
    </contour>
    <contour>
      <point x="277" y="-9" type="curve" smooth="yes"/>
      <point x="339" y="-9"/>
      <point x="421" y="4"/>
      <point x="473" y="22" type="curve"/>
      <point x="468" y="159" type="line"/>
      <point x="395" y="143"/>
      <point x="326" y="132"/>
      <point x="289" y="132" type="curve" smooth="yes"/>
      <point x="222" y="132"/>
      <point x="212" y="149"/>
      <point x="212" y="268" type="curve" smooth="yes"/>
      <point x="212" y="380"/>
      <point x="225" y="410"/>
      <point x="272" y="410" type="curve" smooth="yes"/>
      <point x="311" y="410"/>
      <point x="324" y="385"/>
      <point x="324" y="308" type="curve"/>
      <point x="346" y="320" type="line"/>
      <point x="105" y="320" type="line"/>
      <point x="105" y="207" type="line"/>
      <point x="485" y="207" type="line"/>
      <point x="489" y="229"/>
      <point x="490" y="244"/>
      <point x="490" y="285" type="curve" smooth="yes"/>
      <point x="490" y="468"/>
      <point x="425" y="549"/>
      <point x="278" y="549" type="curve" smooth="yes"/>
      <point x="109" y="549"/>
      <point x="23" y="453"/>
      <point x="23" y="266" type="curve" smooth="yes"/>
      <point x="23" y="84"/>
      <point x="109" y="-9"/>
    </contour>
  </outline>
</glyph>
<glyph name="g" format="1">
  <advance width="560"/>
  <unicode hex="0067"/>
  <outline>
    <contour>
      <point x="295" y="600" type="move" name="top"/>
    </contour>
    <contour>
      <point x="233" y="-220" type="curve" smooth="yes"/>
      <point x="420" y="-220"/>
      <point x="519" y="-117"/>
      <point x="519" y="79" type="curve" smooth="yes"/>
      <point x="519" y="514" type="line"/>
      <point x="426" y="538"/>
      <point x="355" y="549"/>
      <point x="291" y="549" type="curve" smooth="yes"/>
      <point x="114" y="549"/>
      <point x="25" y="448"/>
      <point x="25" y="249" type="curve" smooth="yes"/>
      <point x="25" y="94"/>
      <point x="83" y="20"/>
      <point x="202" y="20" type="curve" smooth="yes"/>
      <point x="255" y="20"/>
      <point x="299" y="40"/>
      <point x="329" y="78" type="curve"/>
      <point x="334" y="78" type="line"/>
      <point x="334" y="47" type="line" smooth="yes"/>
      <point x="334" y="-44"/>
      <point x="302" y="-78"/>
      <point x="215" y="-78" type="curve" smooth="yes"/>
      <point x="178" y="-78"/>
      <point x="132" y="-72"/>
      <point x="71" y="-60" type="curve"/>
      <point x="59" y="-197" type="line"/>
      <point x="121" y="-212"/>
      <point x="181" y="-220"/>
    </contour>
    <contour>
      <point x="271" y="143" type="curve" smooth="yes"/>
      <point x="227" y="143"/>
      <point x="219" y="166"/>
      <point x="219" y="273" type="curve" smooth="yes"/>
      <point x="219" y="401"/>
      <point x="230" y="426"/>
      <point x="286" y="426" type="curve" smooth="yes"/>
      <point x="304" y="426"/>
      <point x="321" y="422"/>
      <point x="329" y="415" type="curve"/>
      <point x="329" y="323" type="line" smooth="yes"/>
      <point x="329" y="181"/>
      <point x="318" y="143"/>
    </contour>
  </outline>
</glyph>
<glyph name="i" format="1">
  <advance width="274"/>
  <unicode hex="0069"/>
  <outline>
    <contour>
      <point x="232" y="0" type="move" name="ogonek"/>
    </contour>
    <contour>
      <point x="137" y="0" type="move" name="bottom"/>
    </contour>
    <contour>
      <point x="137" y="598" type="curve" smooth="yes"/>
      <point x="210" y="598"/>
      <point x="240" y="628"/>
      <point x="240" y="698" type="curve" smooth="yes"/>
      <point x="240" y="768"/>
      <point x="209" y="797"/>
      <point x="137" y="797" type="curve" smooth="yes"/>
      <point x="64" y="797"/>
      <point x="35" y="768"/>
      <point x="35" y="698" type="curve" smooth="yes"/>
      <point x="35" y="627"/>
      <point x="65" y="598"/>
    </contour>
    <contour>
      <point x="42" y="0" type="line"/>
      <point x="232" y="0" type="line"/>
      <point x="232" y="540" type="line"/>
      <point x="42" y="540" type="line"/>
    </contour>
  </outline>
</glyph>
<glyph name="j" format="1">
  <advance width="275"/>
  <unicode hex="006A"/>
  <outline>
    <contour>
      <point x="138" y="598" type="curve" smooth="yes"/>
      <point x="211" y="598"/>
      <point x="241" y="628"/>
      <point x="241" y="698" type="curve" smooth="yes"/>
      <point x="241" y="768"/>
      <point x="210" y="797"/>
      <point x="138" y="797" type="curve" smooth="yes"/>
      <point x="65" y="797"/>
      <point x="36" y="768"/>
      <point x="36" y="698" type="curve" smooth="yes"/>
      <point x="36" y="627"/>
      <point x="66" y="598"/>
    </contour>
    <contour>
      <point x="138" y="-220" type="line"/>
      <point x="191" y="-143"/>
      <point x="233" y="-14"/>
      <point x="233" y="70" type="curve" smooth="yes"/>
      <point x="233" y="540" type="line"/>
      <point x="43" y="540" type="line"/>
      <point x="43" y="113" type="line" smooth="yes"/>
      <point x="43" y="8"/>
      <point x="29" y="-111"/>
      <point x="9" y="-184" type="curve"/>
    </contour>
  </outline>
</glyph>
<glyph name="m" format="1">
  <advance width="825"/>
  <unicode hex="006D"/>
  <outline>
    <contour>
      <point x="42" y="0" type="line"/>
      <point x="227" y="0" type="line"/>
      <point x="227" y="366" type="line"/>
      <point x="248" y="379"/>
      <point x="266" y="386"/>
      <point x="279" y="386" type="curve" smooth="yes"/>
      <point x="306" y="386"/>
      <point x="321" y="368"/>
      <point x="321" y="335" type="curve" smooth="yes"/>
      <point x="321" y="0" type="line"/>
      <point x="506" y="0" type="line"/>
      <point x="506" y="366" type="line"/>
      <point x="527" y="379"/>
      <point x="545" y="386"/>
      <point x="558" y="386" type="curve" smooth="yes"/>
      <point x="585" y="386"/>
      <point x="600" y="368"/>
      <point x="600" y="335" type="curve" smooth="yes"/>
      <point x="600" y="0" type="line"/>
      <point x="785" y="0" type="line"/>
      <point x="785" y="405" type="line" smooth="yes"/>
      <point x="785" y="491"/>
      <point x="734" y="550"/>
      <point x="660" y="550" type="curve" smooth="yes"/>
      <point x="604" y="550"/>
      <point x="572" y="537"/>
      <point x="496" y="482" type="curve"/>
      <point x="489" y="482" type="line"/>
      <point x="467" y="526"/>
      <point x="428" y="550"/>
      <point x="381" y="550" type="curve" smooth="yes"/>
      <point x="326" y="550"/>
      <point x="297" y="539"/>
      <point x="211" y="482" type="curve"/>
      <point x="207" y="482" type="line"/>
      <point x="197" y="540" type="line"/>
      <point x="42" y="540" type="line"/>
    </contour>
  </outline>
</glyph>
<glyph name="o" format="1">
  <advance width="548"/>
  <unicode hex="006F"/>
  <outline>
    <contour>
      <point x="280" y="600" type="move" name="top"/>
    </contour>
    <contour>
      <point x="396" y="25" type="move" name="ogonek"/>
    </contour>
    <contour>
      <point x="274" y="0" type="move" name="bottom"/>
    </contour>
    <contour>
      <point x="274" y="-11" type="curve" smooth="yes"/>
      <point x="439" y="-11"/>
      <point x="525" y="86"/>
      <point x="525" y="270" type="curve" smooth="yes"/>
      <point x="525" y="454"/>
      <point x="439" y="550"/>
      <point x="274" y="550" type="curve" smooth="yes"/>
      <point x="109" y="550"/>
      <point x="23" y="454"/>
      <point x="23" y="270" type="curve" smooth="yes"/>
      <point x="23" y="86"/>
      <point x="109" y="-11"/>
    </contour>
    <contour>
      <point x="274" y="132" type="curve" smooth="yes"/>
      <point x="220" y="132"/>
      <point x="213" y="150"/>
      <point x="213" y="270" type="curve" smooth="yes"/>
      <point x="213" y="390"/>
      <point x="220" y="407"/>
      <point x="274" y="407" type="curve" smooth="yes"/>
      <point x="327" y="407"/>
      <point x="335" y="390"/>
      <point x="335" y="270" type="curve" smooth="yes"/>
      <point x="335" y="150"/>
      <point x="327" y="132"/>
    </contour>
  </outline>
</glyph>
<glyph name="p" format="1">
  <advance width="560"/>
  <unicode hex="0070"/>
  <outline>
    <contour>
      <point x="42" y="-220" type="line"/>
      <point x="232" y="-220" type="line"/>
      <point x="232" y="-7" type="line"/>
      <point x="252" y="-8"/>
      <point x="264" y="-9"/>
      <point x="275" y="-9" type="curve" smooth="yes"/>
      <point x="449" y="-9"/>
      <point x="536" y="91"/>
      <point x="536" y="291" type="curve" smooth="yes"/>
      <point x="536" y="464"/>
      <point x="479" y="549"/>
      <point x="364" y="549" type="curve" smooth="yes"/>
      <point x="307" y="549"/>
      <point x="258" y="526"/>
      <point x="227" y="486" type="curve"/>
      <point x="223" y="486" type="line"/>
      <point x="215" y="540" type="line"/>
      <point x="42" y="540" type="line"/>
    </contour>
    <contour>
      <point x="275" y="114" type="curve" smooth="yes"/>
      <point x="255" y="114"/>
      <point x="239" y="118"/>
      <point x="232" y="125" type="curve"/>
      <point x="232" y="217" type="line" smooth="yes"/>
      <point x="232" y="379"/>
      <point x="243" y="417"/>
      <point x="290" y="417" type="curve" smooth="yes"/>
      <point x="334" y="417"/>
      <point x="342" y="394"/>
      <point x="342" y="267" type="curve" smooth="yes"/>
      <point x="342" y="139"/>
      <point x="331" y="114"/>
    </contour>
  </outline>
</glyph>
<glyph name="q" format="1">
  <advance width="559"/>
  <unicode hex="0071"/>
  <outline>
    <contour>
      <point x="327" y="-220" type="line"/>
      <point x="517" y="-220" type="line"/>
      <point x="517" y="522" type="line"/>
      <point x="438" y="539"/>
      <point x="359" y="549"/>
      <point x="302" y="549" type="curve" smooth="yes"/>
      <point x="110" y="549"/>
      <point x="24" y="456"/>
      <point x="24" y="248" type="curve" smooth="yes"/>
      <point x="24" y="75"/>
      <point x="81" y="-9"/>
      <point x="197" y="-9" type="curve" smooth="yes"/>
      <point x="253" y="-9"/>
      <point x="296" y="10"/>
      <point x="327" y="52" type="curve"/>
    </contour>
    <contour>
      <point x="272" y="122" type="curve" smooth="yes"/>
      <point x="220" y="122"/>
      <point x="213" y="146"/>
      <point x="213" y="281" type="curve" smooth="yes"/>
      <point x="213" y="407"/>
      <point x="219" y="426"/>
      <point x="286" y="426" type="curve" smooth="yes"/>
      <point x="307" y="426"/>
      <point x="323" y="423"/>
      <point x="327" y="416" type="curve"/>
      <point x="327" y="322" type="line" smooth="yes"/>
      <point x="327" y="164"/>
      <point x="322" y="122"/>
    </contour>
  </outline>
</glyph>
<glyph name="x" format="1">
  <advance width="546"/>
  <unicode hex="0078"/>
  <outline>
    <contour>
      <point x="3" y="0" type="line"/>
      <point x="200" y="0" type="line"/>
      <point x="255" y="154" type="line"/>
      <point x="265" y="194" type="line"/>
      <point x="277" y="194" type="line"/>
      <point x="287" y="154" type="line"/>
      <point x="346" y="0" type="line"/>
      <point x="542" y="0" type="line"/>
      <point x="542" y="15" type="line"/>
      <point x="409" y="266" type="line"/>
      <point x="541" y="530" type="line"/>
      <point x="541" y="540" type="line"/>
      <point x="340" y="540" type="line"/>
      <point x="290" y="405" type="line"/>
      <point x="280" y="370" type="line"/>
      <point x="270" y="370" type="line"/>
      <point x="259" y="405" type="line"/>
      <point x="206" y="540" type="line"/>
      <point x="6" y="540" type="line"/>
      <point x="6" y="530" type="line"/>
      <point x="137" y="282" type="line"/>
      <point x="3" y="15" type="line"/>
    </contour>
  </outline>
</glyph>
<glyph name="y" format="1">
  <advance width="559"/>
  <unicode hex="0079"/>
  <outline>
    <contour>
      <point x="282" y="600" type="move" name="top"/>
    </contour>
    <contour>
      <point x="315" y="-220" type="line"/>
      <point x="560" y="526" type="line"/>
      <point x="560" y="540" type="line"/>
      <point x="367" y="540" type="line"/>
      <point x="296" y="261" type="line"/>
      <point x="284" y="185" type="line"/>
      <point x="272" y="185" type="line"/>
      <point x="261" y="261" type="line"/>
      <point x="190" y="540" type="line"/>
      <point x="-3" y="540" type="line"/>
      <point x="-3" y="526" type="line"/>
      <point x="180" y="0" type="line"/>
      <point x="125" y="-173" type="line"/>
      <point x="125" y="-181" type="line"/>
    </contour>
  </outline>
</glyph>
<glyph name="z" format="1">
  <advance width="451"/>
  <unicode hex="007A"/>
  <outline>
    <contour>
      <point x="223" y="600" type="move" name="top"/>
    </contour>
    <contour>
      <point x="224" y="0" type="move" name="bottom"/>
    </contour>
    <contour>
      <point x="27" y="0" type="line"/>
      <point x="426" y="0" type="line"/>
      <point x="426" y="146" type="line"/>
      <point x="239" y="146" type="line"/>
      <point x="239" y="154" type="line"/>
      <point x="416" y="407" type="line"/>
      <point x="416" y="540" type="line"/>
      <point x="32" y="540" type="line"/>
      <point x="32" y="394" type="line"/>
      <point x="206" y="394" type="line"/>
      <point x="206" y="386" type="line"/>
      <point x="27" y="132" type="line"/>
    </contour>
  </outline>
</glyph>
<glyph name="braceleft" format="1">
  <advance width="325"/>
  <unicode hex="007B"/>
  <outline>
    <contour>
      <point x="18" y="285" type="line"/>
      <point x="65" y="285"/>
      <point x="79" y="257"/>
      <point x="79" y="199" type="curve" smooth="yes"/>
      <point x="79" y="-33" type="line" smooth="yes"/>
      <point x="79" y="-125"/>
      <point x="113" y="-160"/>
      <point x="193" y="-160" type="curve" smooth="yes"/>
      <point x="218" y="-160"/>
      <point x="295" y="-157"/>
      <point x="307" y="-155" type="curve"/>
      <point x="307" y="-39" type="line"/>
      <point x="274" y="-39" type="line" smooth="yes"/>
      <point x="242" y="-39"/>
      <point x="229" y="-26"/>
      <point x="229" y="3" type="curve" smooth="yes"/>
      <point x="229" y="238" type="line" smooth="yes"/>
      <point x="229" y="300"/>
      <point x="195" y="347"/>
      <point x="145" y="354" type="curve"/>
      <point x="195" y="363"/>
      <point x="229" y="411"/>
      <point x="229" y="473" type="curve" smooth="yes"/>
      <point x="229" y="705" type="line" smooth="yes"/>
      <point x="229" y="734"/>
      <point x="242" y="747"/>
      <point x="274" y="747" type="curve" smooth="yes"/>
      <point x="307" y="747" type="line"/>
      <point x="307" y="863" type="line"/>
      <point x="295" y="865"/>
      <point x="218" y="868"/>
      <point x="193" y="868" type="curve" smooth="yes"/>
      <point x="113" y="868"/>
      <point x="79" y="833"/>
      <point x="79" y="741" type="curve" smooth="yes"/>
      <point x="79" y="512" type="line" smooth="yes"/>
      <point x="79" y="454"/>
      <point x="65" y="425"/>
      <point x="18" y="425" type="curve"/>
    </contour>
  </outline>
</glyph>
<glyph name="cent" format="1">
  <advance width="444"/>
  <unicode hex="00A2"/>
  <outline>
    <contour>
      <point x="224" y="-120" type="line"/>
      <point x="340" y="-120" type="line"/>
      <point x="340" y="73" type="line"/>
      <point x="224" y="70" type="line"/>
    </contour>
    <contour>
      <point x="224" y="505" type="line"/>
      <point x="340" y="501" type="line"/>
      <point x="340" y="660" type="line"/>
      <point x="224" y="660" type="line"/>
    </contour>
    <component base="c" xOffset="-1"/>
  </outline>
</glyph>
<glyph name="sterling" format="1">
  <advance width="610"/>
  <unicode hex="00A3"/>
  <outline>
    <contour>
      <point x="30" y="0" type="line"/>
      <point x="570" y="0" type="line"/>
      <point x="570" y="162" type="line"/>
      <point x="332" y="162" type="line"/>
      <point x="332" y="528" type="line"/>
      <point x="332" y="577"/>
      <point x="353" y="591"/>
      <point x="414" y="591" type="curve" smooth="yes"/>
      <point x="457" y="591"/>
      <point x="532" y="583"/>
      <point x="579" y="573" type="curve"/>
      <point x="584" y="725" type="line"/>
      <point x="498" y="741"/>
      <point x="432" y="750"/>
      <point x="374" y="750" type="curve" smooth="yes"/>
      <point x="210" y="750"/>
      <point x="137" y="681"/>
      <point x="137" y="533" type="curve" smooth="yes"/>
      <point x="137" y="164" type="line"/>
      <point x="30" y="164" type="line"/>
    </contour>
    <contour>
      <point x="30" y="301" type="line"/>
      <point x="496" y="301" type="line"/>
      <point x="496" y="446" type="line"/>
      <point x="30" y="446" type="line"/>
    </contour>
  </outline>
</glyph>
<glyph name="currency" format="1">
  <advance width="595"/>
  <unicode hex="00A4"/>
  <outline>
    <contour>
      <point x="107" y="370" type="curve" smooth="yes"/>
      <point x="107" y="260"/>
      <point x="183" y="187"/>
      <point x="297" y="187" type="curve" smooth="yes"/>
      <point x="411" y="187"/>
      <point x="486" y="260"/>
      <point x="486" y="370" type="curve" smooth="yes"/>
      <point x="486" y="479"/>
      <point x="409" y="552"/>
      <point x="296" y="552" type="curve" smooth="yes"/>
      <point x="182" y="552"/>
      <point x="107" y="479"/>
    </contour>
    <contour>
      <point x="220" y="370" type="curve" smooth="yes"/>
      <point x="220" y="427"/>
      <point x="250" y="459"/>
      <point x="297" y="459" type="curve" smooth="yes"/>
      <point x="345" y="459"/>
      <point x="373" y="426"/>
      <point x="373" y="370" type="curve" smooth="yes"/>
      <point x="373" y="311"/>
      <point x="344" y="280"/>
      <point x="297" y="280" type="curve" smooth="yes"/>
      <point x="250" y="280"/>
      <point x="220" y="312"/>
    </contour>
    <contour>
      <point x="25" y="577" type="line"/>
      <point x="81" y="524" type="line"/>
      <point x="182" y="446" type="line"/>
      <point x="221" y="485" type="line"/>
      <point x="143" y="587" type="line"/>
      <point x="90" y="643" type="line"/>
    </contour>
    <contour>
      <point x="90" y="97" type="line"/>
      <point x="143" y="153" type="line"/>
      <point x="220" y="254" type="line"/>
      <point x="180" y="292" type="line"/>
      <point x="81" y="216" type="line"/>
      <point x="25" y="163" type="line"/>
    </contour>
    <contour>
      <point x="570" y="163" type="line"/>
      <point x="514" y="216" type="line"/>
      <point x="414" y="293" type="line"/>
      <point x="375" y="254" type="line"/>
      <point x="452" y="153" type="line"/>
      <point x="505" y="97" type="line"/>
    </contour>
    <contour>
      <point x="505" y="643" type="line"/>
      <point x="452" y="587" type="line"/>
      <point x="376" y="488" type="line"/>
      <point x="414" y="447" type="line"/>
      <point x="514" y="524" type="line"/>
      <point x="570" y="577" type="line"/>
    </contour>
  </outline>
</glyph>
<glyph name="brokenbar" format="1">
  <advance width="293"/>
  <unicode hex="00A6"/>
  <outline>
    <contour>
      <point x="58" y="-220" type="line"/>
      <point x="235" y="-220" type="line"/>
      <point x="235" y="205" type="line"/>
      <point x="58" y="205" type="line"/>
    </contour>
    <contour>
      <point x="58" y="383" type="line"/>
      <point x="235" y="383" type="line"/>
      <point x="235" y="808" type="line"/>
      <point x="58" y="808" type="line"/>
    </contour>
  </outline>
</glyph>
<glyph name="copyright" format="1">
  <advance width="794"/>
  <unicode hex="00A9"/>
  <outline>
    <contour>
      <point x="412" y="164" type="curve" smooth="yes"/>
      <point x="444" y="164"/>
      <point x="481" y="168"/>
      <point x="505" y="175" type="curve"/>
      <point x="505" y="278" type="line"/>
      <point x="469" y="271"/>
      <point x="439" y="269"/>
      <point x="425" y="269" type="curve" smooth="yes"/>
      <point x="361" y="269"/>
      <point x="348" y="299"/>
      <point x="348" y="370" type="curve" smooth="yes"/>
      <point x="348" y="440"/>
      <point x="361" y="469"/>
      <point x="427" y="469" type="curve" smooth="yes"/>
      <point x="443" y="469"/>
      <point x="469" y="467"/>
      <point x="505" y="460" type="curve"/>
      <point x="505" y="563" type="line"/>
      <point x="481" y="570"/>
      <point x="444" y="574"/>
      <point x="412" y="574" type="curve" smooth="yes"/>
      <point x="284" y="574"/>
      <point x="222" y="505"/>
      <point x="222" y="369" type="curve" smooth="yes"/>
      <point x="222" y="233"/>
      <point x="284" y="164"/>
    </contour>
    <contour>
      <point x="397" y="-10" type="curve" smooth="yes"/>
      <point x="621" y="-10"/>
      <point x="767" y="144"/>
      <point x="767" y="370" type="curve" smooth="yes"/>
      <point x="767" y="596"/>
      <point x="621" y="750"/>
      <point x="397" y="750" type="curve" smooth="yes"/>
      <point x="173" y="750"/>
      <point x="27" y="596"/>
      <point x="27" y="370" type="curve" smooth="yes"/>
      <point x="27" y="144"/>
      <point x="173" y="-10"/>
    </contour>
    <contour>
      <point x="397" y="88" type="curve" smooth="yes"/>
      <point x="229" y="88"/>
      <point x="132" y="200"/>
      <point x="132" y="370" type="curve" smooth="yes"/>
      <point x="132" y="540"/>
      <point x="229" y="652"/>
      <point x="397" y="652" type="curve" smooth="yes"/>
      <point x="564" y="652"/>
      <point x="661" y="540"/>
      <point x="661" y="370" type="curve" smooth="yes"/>
      <point x="661" y="200"/>
      <point x="564" y="88"/>
    </contour>
  </outline>
</glyph>
<glyph name="logicalnot" format="1">
  <advance width="755"/>
  <unicode hex="00AC"/>
  <outline>
    <contour>
      <point x="30" y="291" type="line"/>
      <point x="524" y="291" type="line"/>
      <point x="524" y="94" type="line"/>
      <point x="710" y="94" type="line"/>
      <point x="710" y="443" type="line"/>
      <point x="30" y="443" type="line"/>
    </contour>
  </outline>
</glyph>
<glyph name="uni00AD" format="1">
  <advance width="418"/>
  <unicode hex="00AD"/>
  <outline>
    <contour>
      <point x="40" y="211" type="line"/>
      <point x="378" y="211" type="line"/>
      <point x="378" y="349" type="line"/>
      <point x="40" y="349" type="line"/>
    </contour>
  </outline>
</glyph>
<glyph name="registered" format="1">
  <advance width="672"/>
  <unicode hex="00AE"/>
  <outline>
    <contour>
      <point x="228" y="303" type="line"/>
      <point x="308" y="303" type="line"/>
      <point x="308" y="402" type="line"/>
      <point x="339" y="402" type="line"/>
      <point x="384" y="303" type="line"/>
      <point x="465" y="303" type="line"/>
      <point x="405" y="423" type="line"/>
      <point x="405" y="425" type="line"/>
      <point x="441" y="437"/>
      <point x="459" y="469"/>
      <point x="459" y="513" type="curve" smooth="yes"/>
      <point x="459" y="579"/>
      <point x="416" y="613"/>
      <point x="327" y="613" type="curve" smooth="yes"/>
      <point x="295" y="613"/>
      <point x="262" y="611"/>
      <point x="228" y="608" type="curve"/>
    </contour>
    <contour>
      <point x="327" y="462" type="curve" smooth="yes"/>
      <point x="308" y="462" type="line"/>
      <point x="308" y="556" type="line"/>
      <point x="335" y="556" type="line" smooth="yes"/>
      <point x="368" y="556"/>
      <point x="377" y="538"/>
      <point x="377" y="511" type="curve" smooth="yes"/>
      <point x="377" y="476"/>
      <point x="368" y="462"/>
    </contour>
    <contour>
      <point x="336" y="144" type="curve" smooth="yes"/>
      <point x="521" y="144"/>
      <point x="642" y="267"/>
      <point x="642" y="448" type="curve" smooth="yes"/>
      <point x="642" y="629"/>
      <point x="521" y="752"/>
      <point x="336" y="752" type="curve" smooth="yes"/>
      <point x="151" y="752"/>
      <point x="30" y="629"/>
      <point x="30" y="448" type="curve" smooth="yes"/>
      <point x="30" y="267"/>
      <point x="151" y="144"/>
    </contour>
    <contour>
      <point x="336" y="222" type="curve" smooth="yes"/>
      <point x="196" y="222"/>
      <point x="114" y="311"/>
      <point x="114" y="448" type="curve" smooth="yes"/>
      <point x="114" y="585"/>
      <point x="196" y="674"/>
      <point x="336" y="674" type="curve" smooth="yes"/>
      <point x="475" y="674"/>
      <point x="558" y="585"/>
      <point x="558" y="448" type="curve" smooth="yes"/>
      <point x="558" y="311"/>
      <point x="475" y="222"/>
    </contour>
  </outline>
</glyph>
<glyph name="macron" format="1">
  <advance width="439"/>
  <unicode hex="00AF"/>
  <outline>
    <contour>
      <point x="215" y="600" type="move" name="_top"/>
    </contour>
    <contour>
      <point x="43" y="617" type="line"/>
      <point x="386" y="617" type="line"/>
      <point x="386" y="731" type="line"/>
      <point x="43" y="731" type="line"/>
    </contour>
  </outline>
</glyph>
<glyph name="degree" format="1">
  <advance width="416"/>
  <unicode hex="00B0"/>
  <outline>
    <contour>
      <point x="208" y="371" type="curve" smooth="yes"/>
      <point x="321" y="371"/>
      <point x="398" y="450"/>
      <point x="398" y="560" type="curve" smooth="yes"/>
      <point x="398" y="670"/>
      <point x="321" y="750"/>
      <point x="208" y="750" type="curve" smooth="yes"/>
      <point x="96" y="750"/>
      <point x="18" y="670"/>
      <point x="18" y="560" type="curve" smooth="yes"/>
      <point x="18" y="450"/>
      <point x="96" y="371"/>
    </contour>
    <contour>
      <point x="208" y="468" type="curve" smooth="yes"/>
      <point x="148" y="468"/>
      <point x="118" y="503"/>
      <point x="118" y="560" type="curve" smooth="yes"/>
      <point x="118" y="617"/>
      <point x="148" y="653"/>
      <point x="208" y="653" type="curve" smooth="yes"/>
      <point x="268" y="653"/>
      <point x="297" y="617"/>
      <point x="297" y="560" type="curve" smooth="yes"/>
      <point x="297" y="503"/>
      <point x="268" y="468"/>
    </contour>
  </outline>
</glyph>
<glyph name="plusminus" format="1">
  <advance width="531"/>
  <unicode hex="00B1"/>
  <outline>
    <contour>
      <point x="38" y="357" type="line"/>
      <point x="492" y="357" type="line"/>
      <point x="492" y="491" type="line"/>
      <point x="38" y="491" type="line"/>
    </contour>
    <contour>
      <point x="39" y="34" type="line"/>
      <point x="493" y="34" type="line"/>
      <point x="493" y="168" type="line"/>
      <point x="39" y="168" type="line"/>
    </contour>
    <contour>
      <point x="198" y="212" type="line"/>
      <point x="332" y="212" type="line"/>
      <point x="332" y="646" type="line"/>
      <point x="198" y="646" type="line"/>
    </contour>
  </outline>
</glyph>
<glyph name="twosuperior" format="1">
  <advance width="417"/>
  <unicode hex="00B2"/>
  <outline>
    <contour>
      <point x="21" y="300" type="line"/>
      <point x="389" y="300" type="line"/>
      <point x="389" y="432" type="line"/>
      <point x="191" y="432" type="line"/>
      <point x="191" y="443" type="line" smooth="yes"/>
      <point x="191" y="456"/>
      <point x="227" y="485"/>
      <point x="292" y="524" type="curve" smooth="yes"/>
      <point x="357" y="561"/>
      <point x="394" y="614"/>
      <point x="394" y="695" type="curve" smooth="yes"/>
      <point x="394" y="801"/>
      <point x="329" y="854"/>
      <point x="199" y="854" type="curve" smooth="yes"/>
      <point x="152" y="854"/>
      <point x="91" y="846"/>
      <point x="31" y="833" type="curve"/>
      <point x="44" y="707" type="line"/>
      <point x="76" y="712"/>
      <point x="117" y="719"/>
      <point x="153" y="719" type="curve" smooth="yes"/>
      <point x="205" y="719"/>
      <point x="229" y="706"/>
      <point x="229" y="677" type="curve" smooth="yes"/>
      <point x="229" y="647"/>
      <point x="211" y="626"/>
      <point x="160" y="597" type="curve" smooth="yes"/>
      <point x="56" y="537"/>
      <point x="21" y="490"/>
      <point x="21" y="408" type="curve" smooth="yes"/>
    </contour>
  </outline>
</glyph>
<glyph name="acute" format="1">
  <advance width="280"/>
  <unicode hex="00B4"/>
  <outline>
    <contour>
      <point x="89" y="600" type="move" name="_top"/>
    </contour>
    <contour>
      <point x="155" y="610" type="line"/>
      <point x="278" y="808" type="line"/>
      <point x="83" y="808" type="line"/>
      <point x="19" y="620" type="line"/>
    </contour>
  </outline>
</glyph>
<glyph name="onesuperior" format="1">
  <advance width="343"/>
  <unicode hex="00B9"/>
  <outline>
    <contour>
      <point x="129" y="300" type="line"/>
      <point x="294" y="300" type="line"/>
      <point x="294" y="846" type="line"/>
      <point x="170" y="846" type="line"/>
      <point x="6" y="749" type="line"/>
      <point x="1" y="725" type="line"/>
      <point x="24" y="655" type="line"/>
      <point x="47" y="655" type="line"/>
      <point x="129" y="678" type="line"/>
    </contour>
  </outline>
</glyph>
<glyph name="AE" format="1">
  <advance width="851"/>
  <unicode hex="00C6"/>
  <outline>
    <contour>
      <point x="489" y="805" type="move" name="topUC"/>
    </contour>
    <contour>
      <point x="418" y="0" type="line"/>
      <point x="820" y="0" type="line"/>
      <point x="820" y="162" type="line"/>
      <point x="606" y="162" type="line"/>
      <point x="576" y="578" type="line"/>
      <point x="811" y="578" type="line"/>
      <point x="811" y="740" type="line"/>
      <point x="388" y="740" type="line"/>
    </contour>
    <contour>
      <point x="-5" y="0" type="line"/>
      <point x="195" y="0" type="line"/>
      <point x="357" y="593" type="line"/>
      <point x="398" y="593" type="line"/>
      <point x="525" y="740" type="line"/>
      <point x="205" y="740" type="line"/>
      <point x="-5" y="6" type="line"/>
    </contour>
    <contour>
      <point x="154" y="156" type="line"/>
      <point x="509" y="156" type="line"/>
      <point x="509" y="318" type="line"/>
      <point x="154" y="318" type="line"/>
    </contour>
    <contour>
      <point x="527" y="289" type="line"/>
      <point x="803" y="289" type="line"/>
      <point x="803" y="451" type="line"/>
      <point x="527" y="451" type="line"/>
    </contour>
  </outline>
</glyph>
<glyph name="Eth" format="1">
  <advance width="681"/>
  <unicode hex="00D0"/>
  <outline>
    <contour>
      <point x="-2" y="301" type="line"/>
      <point x="339" y="301" type="line"/>
      <point x="339" y="446" type="line"/>
      <point x="-2" y="446" type="line"/>
    </contour>
    <component base="D" xOffset="27"/>
  </outline>
</glyph>
<glyph name="Oslash" format="1">
  <advance width="690"/>
  <unicode hex="00D8"/>
  <outline>
    <contour>
      <point x="345" y="805" type="move" name="topUC"/>
    </contour>
    <contour>
      <point x="344" y="-10" type="curve" smooth="yes"/>
      <point x="561" y="-10"/>
      <point x="663" y="111"/>
      <point x="663" y="369" type="curve" smooth="yes"/>
      <point x="663" y="628"/>
      <point x="561" y="750"/>
      <point x="344" y="750" type="curve" smooth="yes"/>
      <point x="131" y="750"/>
      <point x="27" y="625"/>
      <point x="27" y="369" type="curve" smooth="yes"/>
      <point x="27" y="114"/>
      <point x="131" y="-10"/>
    </contour>
    <contour>
      <point x="344" y="149" type="curve" smooth="yes"/>
      <point x="256" y="149"/>
      <point x="227" y="204"/>
      <point x="227" y="369" type="curve" smooth="yes"/>
      <point x="227" y="537"/>
      <point x="256" y="591"/>
      <point x="344" y="591" type="curve" smooth="yes"/>
      <point x="436" y="591"/>
      <point x="463" y="540"/>
      <point x="463" y="369" type="curve" smooth="yes"/>
      <point x="463" y="202"/>
      <point x="434" y="149"/>
    </contour>
    <contour>
      <point x="-1" y="0" type="line"/>
      <point x="139" y="0" type="line"/>
      <point x="693" y="740" type="line"/>
      <point x="553" y="740" type="line"/>
    </contour>
  </outline>
</glyph>
<glyph name="ae" format="1">
  <advance width="792"/>
  <unicode hex="00E6"/>
  <outline>
    <contour>
      <point x="411" y="600" type="move" name="top"/>
    </contour>
    <contour>
      <point x="555" y="-9" type="curve" smooth="yes"/>
      <point x="617" y="-9"/>
      <point x="699" y="4"/>
      <point x="751" y="22" type="curve"/>
      <point x="746" y="159" type="line"/>
      <point x="668" y="142"/>
      <point x="602" y="132"/>
      <point x="567" y="132" type="curve" smooth="yes"/>
      <point x="509" y="132"/>
      <point x="495" y="146"/>
      <point x="491" y="207" type="curve"/>
      <point x="763" y="207" type="line"/>
      <point x="767" y="229"/>
      <point x="768" y="244"/>
      <point x="768" y="285" type="curve" smooth="yes"/>
      <point x="768" y="468"/>
      <point x="703" y="549"/>
      <point x="556" y="549" type="curve" smooth="yes"/>
      <point x="489" y="549"/>
      <point x="436" y="532"/>
      <point x="398" y="498" type="curve"/>
      <point x="388" y="498" type="line"/>
      <point x="361" y="532"/>
      <point x="317" y="548"/>
      <point x="251" y="548" type="curve" smooth="yes"/>
      <point x="198" y="548"/>
      <point x="136" y="542"/>
      <point x="59" y="530" type="curve"/>
      <point x="70" y="395" type="line"/>
      <point x="97" y="401"/>
      <point x="187" y="409"/>
      <point x="221" y="409" type="curve" smooth="yes"/>
      <point x="283" y="409"/>
      <point x="296" y="399"/>
      <point x="299" y="351" type="curve" smooth="yes"/>
      <point x="299" y="338" type="line"/>
      <point x="210" y="333" type="line" smooth="yes"/>
      <point x="81" y="326"/>
      <point x="14" y="268"/>
      <point x="14" y="162" type="curve" smooth="yes"/>
      <point x="14" y="64"/>
      <point x="78" y="-5"/>
      <point x="170" y="-5" type="curve" smooth="yes"/>
      <point x="233" y="-5"/>
      <point x="302" y="23"/>
      <point x="366" y="76" type="curve"/>
      <point x="376" y="76" type="line"/>
      <point x="415" y="17"/>
      <point x="470" y="-9"/>
    </contour>
    <contour>
      <point x="243" y="131" type="curve" smooth="yes"/>
      <point x="217" y="131"/>
      <point x="202" y="149"/>
      <point x="202" y="179" type="curve" smooth="yes"/>
      <point x="202" y="206"/>
      <point x="216" y="219"/>
      <point x="252" y="223" type="curve" smooth="yes"/>
      <point x="299" y="228" type="line"/>
      <point x="299" y="153" type="line"/>
      <point x="280" y="140"/>
      <point x="258" y="131"/>
    </contour>
    <contour>
      <point x="491" y="320" type="line"/>
      <point x="495" y="387"/>
      <point x="510" y="410"/>
      <point x="550" y="410" type="curve" smooth="yes"/>
      <point x="587" y="410"/>
      <point x="600" y="387"/>
      <point x="602" y="320" type="curve"/>
    </contour>
  </outline>
</glyph>
<glyph name="icircumflex" format="1">
  <advance width="276"/>
  <unicode hex="00EE"/>
  <outline>
    <contour>
      <point x="-16" y="606" type="line"/>
      <point x="155" y="677" type="line"/>
      <point x="326" y="606" type="line"/>
      <point x="326" y="730" type="line"/>
      <point x="156" y="801" type="line"/>
      <point x="-16" y="730" type="line"/>
    </contour>
    <component base="dotlessi" xOffset="1"/>
  </outline>
</glyph>
<glyph name="divide" format="1">
  <advance width="522"/>
  <unicode hex="00F7"/>
  <outline>
    <contour>
      <point x="263" y="91" type="curve" smooth="yes"/>
      <point x="311" y="91"/>
      <point x="346" y="119"/>
      <point x="346" y="177" type="curve" smooth="yes"/>
      <point x="346" y="233"/>
      <point x="311" y="259"/>
      <point x="263" y="259" type="curve" smooth="yes"/>
      <point x="214" y="259"/>
      <point x="179" y="233"/>
      <point x="179" y="177" type="curve" smooth="yes"/>
      <point x="179" y="119"/>
      <point x="214" y="91"/>
    </contour>
    <contour>
      <point x="24" y="303" type="line"/>
      <point x="498" y="303" type="line"/>
      <point x="498" y="437" type="line"/>
      <point x="24" y="437" type="line"/>
    </contour>
    <contour>
      <point x="263" y="481" type="curve" smooth="yes"/>
      <point x="311" y="481"/>
      <point x="346" y="507"/>
      <point x="346" y="563" type="curve" smooth="yes"/>
      <point x="346" y="621"/>
      <point x="311" y="649"/>
      <point x="263" y="649" type="curve" smooth="yes"/>
      <point x="214" y="649"/>
      <point x="179" y="621"/>
      <point x="179" y="563" type="curve" smooth="yes"/>
      <point x="179" y="507"/>
      <point x="214" y="481"/>
    </contour>
  </outline>
</glyph>
<glyph name="Dcroat" format="1">
  <advance width="681"/>
  <unicode hex="0110"/>
  <outline>
    <contour>
      <point x="-2" y="301" type="line"/>
      <point x="339" y="301" type="line"/>
      <point x="339" y="446" type="line"/>
      <point x="-2" y="446" type="line"/>
    </contour>
    <component base="D" xOffset="27"/>
  </outline>
</glyph>
<glyph name="dcroat" format="1">
  <advance width="561"/>
  <unicode hex="0111"/>
  <outline>
    <contour>
      <point x="206" y="617" type="line"/>
      <point x="580" y="617" type="line"/>
      <point x="580" y="733" type="line"/>
      <point x="206" y="733" type="line"/>
    </contour>
    <component base="d"/>
  </outline>
</glyph>
<glyph name="hbar" format="1">
  <advance width="557"/>
  <unicode hex="0127"/>
  <outline>
    <contour>
      <point x="-26" y="617" type="line"/>
      <point x="347" y="617" type="line"/>
      <point x="347" y="733" type="line"/>
      <point x="-26" y="733" type="line"/>
    </contour>
    <component base="h" xOffset="1"/>
  </outline>
</glyph>
<glyph name="itilde" format="1">
  <advance width="276"/>
  <unicode hex="0129"/>
  <outline>
    <contour>
      <point x="-15" y="618" type="line"/>
      <point x="10" y="650"/>
      <point x="30" y="659"/>
      <point x="53" y="659" type="curve" smooth="yes"/>
      <point x="105" y="659"/>
      <point x="157" y="602"/>
      <point x="209" y="602" type="curve" smooth="yes"/>
      <point x="261" y="602"/>
      <point x="316" y="636"/>
      <point x="358" y="719" type="curve"/>
      <point x="324" y="760" type="line"/>
      <point x="299" y="727"/>
      <point x="279" y="717"/>
      <point x="256" y="717" type="curve" smooth="yes"/>
      <point x="203" y="717"/>
      <point x="152" y="775"/>
      <point x="100" y="775" type="curve" smooth="yes"/>
      <point x="49" y="775"/>
      <point x="-7" y="738"/>
      <point x="-49" y="658" type="curve"/>
    </contour>
    <component base="dotlessi" xOffset="1"/>
  </outline>
</glyph>
<glyph name="ibreve" format="1">
  <advance width="276"/>
  <unicode hex="012D"/>
  <outline>
    <contour>
      <point x="145" y="610" type="curve" smooth="yes"/>
      <point x="261" y="610"/>
      <point x="324" y="666"/>
      <point x="333" y="776" type="curve"/>
      <point x="206" y="776" type="line"/>
      <point x="204" y="728"/>
      <point x="185" y="706"/>
      <point x="145" y="706" type="curve" smooth="yes"/>
      <point x="104" y="706"/>
      <point x="84" y="728"/>
      <point x="83" y="776" type="curve"/>
      <point x="-43" y="776" type="line"/>
      <point x="-36" y="666"/>
      <point x="28" y="610"/>
    </contour>
    <component base="dotlessi" xOffset="1"/>
  </outline>
</glyph>
<glyph name="jcircumflex" format="1">
  <advance width="272"/>
  <unicode hex="0135"/>
  <outline>
    <contour>
      <point x="-27" y="606" type="line"/>
      <point x="144" y="677" type="line"/>
      <point x="315" y="606" type="line"/>
      <point x="315" y="730" type="line"/>
      <point x="145" y="801" type="line"/>
      <point x="-27" y="730" type="line"/>
    </contour>
    <component base="dotlessj"/>
  </outline>
</glyph>
<glyph name="Lslash" format="1">
  <advance width="495"/>
  <unicode hex="0141"/>
  <outline>
    <contour>
      <point x="6" y="226" type="line"/>
      <point x="362" y="419" type="line"/>
      <point x="362" y="556" type="line"/>
      <point x="6" y="363" type="line"/>
    </contour>
    <component base="L" xOffset="15"/>
  </outline>
</glyph>
<glyph name="Eng" format="1">
  <advance width="687"/>
  <unicode hex="014A"/>
  <outline>
    <contour>
      <point x="506" y="-212" type="line"/>
      <point x="581" y="-95"/>
      <point x="639" y="55"/>
      <point x="639" y="132" type="curve"/>
      <point x="639" y="740" type="line"/>
      <point x="466" y="740" type="line"/>
      <point x="466" y="338" type="line"/>
      <point x="455" y="338" type="line"/>
      <point x="420" y="418" type="line"/>
      <point x="208" y="740" type="line"/>
      <point x="50" y="740" type="line"/>
      <point x="50" y="0" type="line"/>
      <point x="223" y="0" type="line"/>
      <point x="223" y="405" type="line"/>
      <point x="234" y="405" type="line"/>
      <point x="267" y="327" type="line"/>
      <point x="435" y="72" type="line"/>
      <point x="427" y="-6"/>
      <point x="409" y="-88"/>
      <point x="382" y="-171" type="curve"/>
    </contour>
  </outline>
</glyph>
<glyph name="eng" format="1">
  <advance width="555"/>
  <unicode hex="014B"/>
  <outline>
    <contour>
      <point x="428" y="-220" type="line"/>
      <point x="477" y="-143"/>
      <point x="516" y="-12"/>
      <point x="516" y="73" type="curve"/>
      <point x="516" y="405" type="line" smooth="yes"/>
      <point x="516" y="491"/>
      <point x="465" y="550"/>
      <point x="391" y="550" type="curve" smooth="yes"/>
      <point x="335" y="550"/>
      <point x="307" y="539"/>
      <point x="216" y="482" type="curve"/>
      <point x="212" y="482" type="line"/>
      <point x="202" y="540" type="line"/>
      <point x="42" y="540" type="line"/>
      <point x="42" y="0" type="line"/>
      <point x="232" y="0" type="line"/>
      <point x="232" y="366" type="line"/>
      <point x="257" y="380"/>
      <point x="275" y="386"/>
      <point x="289" y="386" type="curve" smooth="yes"/>
      <point x="313" y="386"/>
      <point x="326" y="368"/>
      <point x="326" y="335" type="curve" smooth="yes"/>
      <point x="326" y="80" type="line"/>
      <point x="326" y="-1"/>
      <point x="308" y="-121"/>
      <point x="284" y="-199" type="curve"/>
    </contour>
  </outline>
</glyph>
<glyph name="OE" format="1">
  <advance width="954"/>
  <unicode hex="0152"/>
  <outline>
    <contour>
      <point x="360" y="-10" type="curve" smooth="yes"/>
      <point x="401" y="-10"/>
      <point x="435" y="-8"/>
      <point x="468" y="0" type="curve"/>
      <point x="924" y="0" type="line"/>
      <point x="924" y="161" type="line"/>
      <point x="663" y="161" type="line"/>
      <point x="663" y="303" type="line"/>
      <point x="906" y="303" type="line"/>
      <point x="906" y="454" type="line"/>
      <point x="663" y="454" type="line"/>
      <point x="663" y="579" type="line"/>
      <point x="915" y="579" type="line"/>
      <point x="915" y="740" type="line"/>
      <point x="468" y="740" type="line"/>
      <point x="435" y="744"/>
      <point x="401" y="750"/>
      <point x="360" y="750" type="curve" smooth="yes"/>
      <point x="149" y="750"/>
      <point x="24" y="622"/>
      <point x="24" y="370" type="curve" smooth="yes"/>
      <point x="24" y="117"/>
      <point x="148" y="-10"/>
    </contour>
    <contour>
      <point x="387" y="152" type="curve" smooth="yes"/>
      <point x="254" y="152"/>
      <point x="220" y="203"/>
      <point x="220" y="369" type="curve" smooth="yes"/>
      <point x="220" y="534"/>
      <point x="254" y="587"/>
      <point x="385" y="587" type="curve" smooth="yes"/>
      <point x="411" y="587"/>
      <point x="434" y="585"/>
      <point x="468" y="579" type="curve"/>
      <point x="468" y="160" type="line"/>
      <point x="437" y="153"/>
      <point x="413" y="152"/>
    </contour>
  </outline>
</glyph>
<glyph name="Tbar" format="1">
  <advance width="560"/>
  <unicode hex="0166"/>
  <outline>
    <contour>
      <point x="71" y="315" type="line"/>
      <point x="468" y="315" type="line"/>
      <point x="468" y="422" type="line"/>
      <point x="71" y="422" type="line"/>
    </contour>
    <component base="T" xOffset="3"/>
  </outline>
</glyph>
<glyph name="Schwa" format="1">
  <advance width="653"/>
  <unicode hex="018F"/>
  <outline>
    <contour>
      <point x="432" y="362" type="curve" smooth="yes"/>
      <point x="432" y="190"/>
      <point x="408" y="140"/>
      <point x="311" y="140" type="curve" smooth="yes"/>
      <point x="227" y="140"/>
      <point x="211" y="175"/>
      <point x="211" y="330" type="curve"/>
      <point x="147" y="304" type="line"/>
      <point x="541" y="304" type="line"/>
      <point x="541" y="433" type="line"/>
      <point x="28" y="433" type="line"/>
      <point x="24" y="399"/>
      <point x="22" y="366"/>
      <point x="22" y="330" type="curve" smooth="yes"/>
      <point x="22" y="91"/>
      <point x="114" y="-10"/>
      <point x="299" y="-10" type="curve" smooth="yes"/>
      <point x="519" y="-10"/>
      <point x="629" y="132"/>
      <point x="629" y="370" type="curve" smooth="yes"/>
      <point x="629" y="620"/>
      <point x="509" y="748"/>
      <point x="275" y="748" type="curve" smooth="yes"/>
      <point x="192" y="748"/>
      <point x="114" y="732"/>
      <point x="47" y="708" type="curve"/>
      <point x="55" y="555" type="line"/>
      <point x="123" y="576"/>
      <point x="188" y="584"/>
      <point x="255" y="584" type="curve" smooth="yes"/>
      <point x="398" y="584"/>
      <point x="432" y="552"/>
    </contour>
  </outline>
</glyph>
<glyph name="florin" format="1">
  <advance width="436"/>
  <unicode hex="0192"/>
  <outline>
    <contour>
      <point x="100" y="-220" type="line"/>
      <point x="290" y="-157" type="line"/>
      <point x="290" y="382" type="line"/>
      <point x="401" y="382" type="line"/>
      <point x="401" y="540" type="line"/>
      <point x="290" y="540" type="line"/>
      <point x="290" y="579" type="line" smooth="yes"/>
      <point x="290" y="649"/>
      <point x="318" y="669"/>
      <point x="424" y="675" type="curve"/>
      <point x="412" y="817" type="line"/>
      <point x="178" y="812"/>
      <point x="101" y="749"/>
      <point x="101" y="563" type="curve" smooth="yes"/>
      <point x="101" y="540" type="line"/>
      <point x="28" y="540" type="line"/>
      <point x="28" y="382" type="line"/>
      <point x="100" y="382" type="line"/>
    </contour>
  </outline>
</glyph>
<glyph name="circumflex" format="1">
  <advance width="407"/>
  <unicode hex="02C6"/>
  <outline>
    <contour>
      <point x="190" y="600" type="move" name="_top"/>
    </contour>
    <contour>
      <point x="29" y="606" type="line"/>
      <point x="200" y="677" type="line"/>
      <point x="371" y="606" type="line"/>
      <point x="371" y="730" type="line"/>
      <point x="201" y="801" type="line"/>
      <point x="29" y="730" type="line"/>
    </contour>
  </outline>
</glyph>
<glyph name="caron" format="1">
  <advance width="406"/>
  <unicode hex="02C7"/>
  <outline>
    <contour>
      <point x="200" y="600" type="move" name="_top"/>
    </contour>
    <contour>
      <point x="29" y="677" type="line"/>
      <point x="201" y="606" type="line"/>
      <point x="371" y="677" type="line"/>
      <point x="371" y="801" type="line"/>
      <point x="200" y="730" type="line"/>
      <point x="29" y="801" type="line"/>
    </contour>
  </outline>
</glyph>
<glyph name="dotaccent" format="1">
  <advance width="276"/>
  <unicode hex="02D9"/>
  <outline>
    <contour>
      <point x="136" y="600" type="move" name="_top"/>
    </contour>
    <contour>
      <point x="136" y="598" type="curve" smooth="yes"/>
      <point x="207" y="598"/>
      <point x="239" y="627"/>
      <point x="239" y="698" type="curve" smooth="yes"/>
      <point x="239" y="768"/>
      <point x="207" y="797"/>
      <point x="136" y="797" type="curve" smooth="yes"/>
      <point x="63" y="797"/>
      <point x="34" y="768"/>
      <point x="34" y="698" type="curve" smooth="yes"/>
      <point x="34" y="628"/>
      <point x="63" y="598"/>
    </contour>
  </outline>
</glyph>
<glyph name="ring" format="1">
  <advance width="299"/>
  <unicode hex="02DA"/>
  <outline>
    <contour>
      <point x="148" y="600" type="move" name="_top"/>
    </contour>
    <contour>
      <point x="144" y="588" type="curve" smooth="yes"/>
      <point x="220" y="588"/>
      <point x="273" y="635"/>
      <point x="273" y="703" type="curve" smooth="yes"/>
      <point x="273" y="772"/>
      <point x="221" y="818"/>
      <point x="144" y="818" type="curve" smooth="yes"/>
      <point x="67" y="818"/>
      <point x="16" y="772"/>
      <point x="16" y="703" type="curve" smooth="yes"/>
      <point x="16" y="635"/>
      <point x="68" y="588"/>
    </contour>
    <contour>
      <point x="144" y="652" type="curve" smooth="yes"/>
      <point x="115" y="652"/>
      <point x="95" y="672"/>
      <point x="95" y="703" type="curve" smooth="yes"/>
      <point x="95" y="734"/>
      <point x="114" y="754"/>
      <point x="144" y="754" type="curve" smooth="yes"/>
      <point x="174" y="754"/>
      <point x="194" y="734"/>
      <point x="194" y="703" type="curve" smooth="yes"/>
      <point x="194" y="673"/>
      <point x="174" y="652"/>
    </contour>
  </outline>
</glyph>
<glyph name="ogonek" format="1">
  <advance width="297"/>
  <unicode hex="02DB"/>
  <outline>
    <contour>
      <point x="258" y="0" type="move" name="_ogonek"/>
    </contour>
    <contour>
      <point x="163" y="-220" type="curve" smooth="yes"/>
      <point x="197" y="-220"/>
      <point x="223" y="-215"/>
      <point x="258" y="-208" type="curve"/>
      <point x="258" y="-100" type="line"/>
      <point x="239" y="-106"/>
      <point x="209" y="-113"/>
      <point x="184" y="-113" type="curve" smooth="yes"/>
      <point x="163" y="-113"/>
      <point x="149" y="-108"/>
      <point x="149" y="-95" type="curve" smooth="yes"/>
      <point x="149" y="-78"/>
      <point x="174" y="-38"/>
      <point x="258" y="-5" type="curve"/>
      <point x="258" y="0" type="line"/>
      <point x="101" y="0" type="line"/>
      <point x="47" y="-43"/>
      <point x="29" y="-73"/>
      <point x="29" y="-116" type="curve" smooth="yes"/>
      <point x="29" y="-185"/>
      <point x="73" y="-220"/>
    </contour>
  </outline>
</glyph>
<glyph name="hungarumlaut" format="1">
  <advance width="440"/>
  <unicode hex="02DD"/>
  <outline>
    <contour>
      <point x="178" y="600" type="move" name="_top"/>
    </contour>
    <contour>
      <point x="117" y="610" type="line"/>
      <point x="240" y="808" type="line"/>
      <point x="83" y="808" type="line"/>
      <point x="19" y="620" type="line"/>
    </contour>
    <contour>
      <point x="315" y="610" type="line"/>
      <point x="438" y="808" type="line"/>
      <point x="281" y="808" type="line"/>
      <point x="217" y="620" type="line"/>
    </contour>
  </outline>
</glyph>
<glyph name="uni030F" format="1">
  <advance width="447"/>
  <unicode hex="030F"/>
  <outline>
    <contour>
      <point x="262" y="600" type="move" name="_top"/>
    </contour>
    <contour>
      <point x="223" y="620" type="line"/>
      <point x="159" y="808" type="line"/>
      <point x="2" y="808" type="line"/>
      <point x="126" y="610" type="line"/>
    </contour>
    <contour>
      <point x="421" y="620" type="line"/>
      <point x="357" y="808" type="line"/>
      <point x="200" y="808" type="line"/>
      <point x="324" y="610" type="line"/>
    </contour>
  </outline>
</glyph>
<glyph name="uni0311" format="1">
  <advance width="420"/>
  <unicode hex="0311"/>
  <outline>
    <contour>
      <point x="207" y="600" type="move" name="_top"/>
    </contour>
    <contour>
      <point x="24" y="620" type="curve"/>
      <point x="150" y="620" type="line"/>
      <point x="152" y="673"/>
      <point x="176" y="690"/>
      <point x="212" y="690" type="curve" smooth="yes"/>
      <point x="248" y="690"/>
      <point x="271" y="672"/>
      <point x="273" y="620" type="curve"/>
      <point x="400" y="620" type="line"/>
      <point x="392" y="730"/>
      <point x="329" y="786"/>
      <point x="212" y="786" type="curve" smooth="yes"/>
      <point x="95" y="786"/>
      <point x="31" y="730"/>
    </contour>
  </outline>
</glyph>
<glyph name="endash" format="1">
  <advance width="568"/>
  <unicode hex="2013"/>
  <outline>
    <contour>
      <point x="40" y="211" type="line"/>
      <point x="528" y="211" type="line"/>
      <point x="528" y="349" type="line"/>
      <point x="40" y="349" type="line"/>
    </contour>
  </outline>
</glyph>
<glyph name="emdash" format="1">
  <advance width="739"/>
  <unicode hex="2014"/>
  <outline>
    <contour>
      <point x="40" y="211" type="line"/>
      <point x="699" y="211" type="line"/>
      <point x="699" y="349" type="line"/>
      <point x="40" y="349" type="line"/>
    </contour>
  </outline>
</glyph>
<glyph name="quoteleft" format="1">
  <advance width="210"/>
  <unicode hex="2018"/>
  <outline>
    <contour>
      <point x="49" y="500" type="curve"/>
      <point x="188" y="510" type="line"/>
      <point x="166" y="565"/>
      <point x="155" y="619"/>
      <point x="155" y="672" type="curve" smooth="yes"/>
      <point x="155" y="716"/>
      <point x="163" y="760"/>
      <point x="180" y="803" type="curve"/>
      <point x="100" y="811" type="line"/>
      <point x="56" y="756"/>
      <point x="25" y="680"/>
      <point x="25" y="605" type="curve" smooth="yes"/>
      <point x="25" y="568"/>
      <point x="32" y="532"/>
    </contour>
  </outline>
</glyph>
<glyph name="quoteright" format="1">
  <advance width="206"/>
  <unicode hex="2019"/>
  <outline>
    <contour>
      <point x="21" y="801" type="line"/>
      <point x="43" y="746"/>
      <point x="54" y="692"/>
      <point x="54" y="639" type="curve" smooth="yes"/>
      <point x="54" y="595"/>
      <point x="46" y="551"/>
      <point x="29" y="508" type="curve"/>
      <point x="109" y="500" type="line"/>
      <point x="153" y="555"/>
      <point x="184" y="631"/>
      <point x="184" y="706" type="curve" smooth="yes"/>
      <point x="184" y="743"/>
      <point x="177" y="779"/>
      <point x="160" y="811" type="curve"/>
    </contour>
  </outline>
</glyph>
<glyph name="daggerdbl" format="1">
  <advance width="538"/>
  <unicode hex="2021"/>
  <outline>
    <contour>
      <point x="187" y="-196" type="line"/>
      <point x="350" y="-196" type="line"/>
      <point x="350" y="-117" type="line"/>
      <point x="315" y="29" type="line"/>
      <point x="493" y="7" type="line"/>
      <point x="507" y="7" type="line"/>
      <point x="507" y="143" type="line"/>
      <point x="493" y="143" type="line"/>
      <point x="315" y="121" type="line"/>
      <point x="350" y="267" type="line"/>
      <point x="350" y="345" type="line"/>
      <point x="315" y="491" type="line"/>
      <point x="493" y="469" type="line"/>
      <point x="507" y="469" type="line"/>
      <point x="507" y="605" type="line"/>
      <point x="493" y="605" type="line"/>
      <point x="315" y="583" type="line"/>
      <point x="350" y="729" type="line"/>
      <point x="350" y="808" type="line"/>
      <point x="187" y="808" type="line"/>
      <point x="187" y="729" type="line"/>
      <point x="223" y="583" type="line"/>
      <point x="45" y="605" type="line"/>
      <point x="31" y="605" type="line"/>
      <point x="31" y="469" type="line"/>
      <point x="45" y="469" type="line"/>
      <point x="223" y="491" type="line"/>
      <point x="187" y="345" type="line"/>
      <point x="187" y="267" type="line"/>
      <point x="223" y="121" type="line"/>
      <point x="45" y="143" type="line"/>
      <point x="31" y="143" type="line"/>
      <point x="31" y="7" type="line"/>
      <point x="45" y="7" type="line"/>
      <point x="223" y="29" type="line"/>
      <point x="187" y="-117" type="line"/>
    </contour>
  </outline>
</glyph>
<glyph name="perthousand" format="1">
  <advance width="1399"/>
  <unicode hex="2030"/>
  <outline>
    <contour>
      <point x="214" y="272" type="curve" smooth="yes"/>
      <point x="339" y="272"/>
      <point x="406" y="355"/>
      <point x="406" y="510" type="curve" smooth="yes"/>
      <point x="406" y="665"/>
      <point x="339" y="749"/>
      <point x="214" y="749" type="curve" smooth="yes"/>
      <point x="90" y="749"/>
      <point x="22" y="665"/>
      <point x="22" y="510" type="curve" smooth="yes"/>
      <point x="22" y="355"/>
      <point x="90" y="272"/>
    </contour>
    <contour>
      <point x="214" y="392" type="curve" smooth="yes"/>
      <point x="176" y="392"/>
      <point x="162" y="424"/>
      <point x="162" y="510" type="curve" smooth="yes"/>
      <point x="162" y="597"/>
      <point x="176" y="629"/>
      <point x="214" y="629" type="curve" smooth="yes"/>
      <point x="253" y="629"/>
      <point x="266" y="598"/>
      <point x="266" y="510" type="curve" smooth="yes"/>
      <point x="266" y="422"/>
      <point x="253" y="392"/>
    </contour>
    <contour>
      <point x="771" y="-10" type="curve" smooth="yes"/>
      <point x="896" y="-10"/>
      <point x="963" y="73"/>
      <point x="963" y="228" type="curve" smooth="yes"/>
      <point x="963" y="383"/>
      <point x="896" y="467"/>
      <point x="771" y="467" type="curve" smooth="yes"/>
      <point x="647" y="467"/>
      <point x="579" y="383"/>
      <point x="579" y="228" type="curve" smooth="yes"/>
      <point x="579" y="73"/>
      <point x="647" y="-10"/>
    </contour>
    <contour>
      <point x="771" y="110" type="curve" smooth="yes"/>
      <point x="733" y="110"/>
      <point x="719" y="142"/>
      <point x="719" y="228" type="curve" smooth="yes"/>
      <point x="719" y="315"/>
      <point x="733" y="347"/>
      <point x="771" y="347" type="curve" smooth="yes"/>
      <point x="810" y="347"/>
      <point x="823" y="316"/>
      <point x="823" y="228" type="curve" smooth="yes"/>
      <point x="823" y="140"/>
      <point x="810" y="110"/>
    </contour>
    <contour>
      <point x="1185" y="-10" type="curve" smooth="yes"/>
      <point x="1310" y="-10"/>
      <point x="1377" y="73"/>
      <point x="1377" y="228" type="curve" smooth="yes"/>
      <point x="1377" y="383"/>
      <point x="1310" y="467"/>
      <point x="1185" y="467" type="curve" smooth="yes"/>
      <point x="1061" y="467"/>
      <point x="993" y="383"/>
      <point x="993" y="228" type="curve" smooth="yes"/>
      <point x="993" y="73"/>
      <point x="1061" y="-10"/>
    </contour>
    <contour>
      <point x="1185" y="110" type="curve" smooth="yes"/>
      <point x="1147" y="110"/>
      <point x="1133" y="142"/>
      <point x="1133" y="228" type="curve" smooth="yes"/>
      <point x="1133" y="315"/>
      <point x="1147" y="347"/>
      <point x="1185" y="347" type="curve" smooth="yes"/>
      <point x="1224" y="347"/>
      <point x="1237" y="316"/>
      <point x="1237" y="228" type="curve" smooth="yes"/>
      <point x="1237" y="140"/>
      <point x="1224" y="110"/>
    </contour>
    <contour>
      <point x="288" y="0" type="line"/>
      <point x="439" y="0" type="line"/>
      <point x="699" y="740" type="line"/>
      <point x="548" y="740" type="line"/>
    </contour>
  </outline>
</glyph>
<glyph name="fraction" format="1">
  <advance width="280"/>
  <unicode hex="2044"/>
  <outline>
    <contour>
      <point x="-66" y="0" type="line"/>
      <point x="85" y="0" type="line"/>
      <point x="345" y="740" type="line"/>
      <point x="194" y="740" type="line"/>
    </contour>
  </outline>
</glyph>
<glyph name="foursuperior" format="1">
  <advance width="441"/>
  <unicode hex="2074"/>
  <outline>
    <contour>
      <point x="212" y="300" type="line"/>
      <point x="377" y="300" type="line"/>
      <point x="377" y="403" type="line"/>
      <point x="429" y="403" type="line"/>
      <point x="429" y="519" type="line"/>
      <point x="377" y="519" type="line"/>
      <point x="377" y="643" type="line"/>
      <point x="277" y="643" type="line"/>
      <point x="230" y="519" type="line"/>
      <point x="157" y="519" type="line"/>
      <point x="328" y="819" type="line"/>
      <point x="318" y="835" type="line"/>
      <point x="174" y="843" type="line"/>
      <point x="162" y="832" type="line"/>
      <point x="4" y="500" type="line"/>
      <point x="18" y="403" type="line"/>
      <point x="212" y="403" type="line"/>
    </contour>
  </outline>
</glyph>
<glyph name="fivesuperior" format="1">
  <advance width="388"/>
  <unicode hex="2075"/>
  <outline>
    <contour>
      <point x="144" y="293" type="curve" smooth="yes"/>
      <point x="290" y="293"/>
      <point x="376" y="359"/>
      <point x="376" y="472" type="curve" smooth="yes"/>
      <point x="376" y="585"/>
      <point x="313" y="637"/>
      <point x="167" y="642" type="curve"/>
      <point x="172" y="714" type="line"/>
      <point x="335" y="714" type="line"/>
      <point x="335" y="846" type="line"/>
      <point x="49" y="846" type="line"/>
      <point x="28" y="538" type="line"/>
      <point x="36" y="531" type="line"/>
      <point x="92" y="531" type="line" smooth="yes"/>
      <point x="186" y="531"/>
      <point x="211" y="518"/>
      <point x="211" y="472" type="curve" smooth="yes"/>
      <point x="211" y="438"/>
      <point x="187" y="422"/>
      <point x="132" y="422" type="curve" smooth="yes"/>
      <point x="111" y="422"/>
      <point x="87" y="425"/>
      <point x="61" y="431" type="curve"/>
      <point x="25" y="431" type="line"/>
      <point x="25" y="304" type="line"/>
      <point x="78" y="296"/>
      <point x="114" y="293"/>
    </contour>
  </outline>
</glyph>
<glyph name="sixsuperior" format="1">
  <advance width="445"/>
  <unicode hex="2076"/>
  <outline>
    <contour>
      <point x="225" y="293" type="curve" smooth="yes"/>
      <point x="353" y="293"/>
      <point x="432" y="368"/>
      <point x="432" y="489" type="curve" smooth="yes"/>
      <point x="432" y="586"/>
      <point x="364" y="648"/>
      <point x="261" y="648" type="curve" smooth="yes"/>
      <point x="226" y="648"/>
      <point x="195" y="640"/>
      <point x="172" y="624" type="curve"/>
      <point x="185" y="701"/>
      <point x="221" y="728"/>
      <point x="293" y="728" type="curve" smooth="yes"/>
      <point x="315" y="728"/>
      <point x="344" y="724"/>
      <point x="384" y="716" type="curve"/>
      <point x="403" y="838" type="line"/>
      <point x="359" y="848"/>
      <point x="320" y="854"/>
      <point x="289" y="854" type="curve" smooth="yes"/>
      <point x="109" y="854"/>
      <point x="20" y="751"/>
      <point x="20" y="549" type="curve" smooth="yes"/>
      <point x="20" y="386"/>
      <point x="94" y="293"/>
    </contour>
    <contour>
      <point x="225" y="427" type="curve" smooth="yes"/>
      <point x="187" y="427"/>
      <point x="170" y="456"/>
      <point x="166" y="523" type="curve"/>
      <point x="182" y="538"/>
      <point x="205" y="549"/>
      <point x="225" y="549" type="curve" smooth="yes"/>
      <point x="266" y="549"/>
      <point x="283" y="531"/>
      <point x="283" y="485" type="curve" smooth="yes"/>
      <point x="283" y="445"/>
      <point x="264" y="427"/>
    </contour>
  </outline>
</glyph>
<glyph name="sevensuperior" format="1">
  <advance width="370"/>
  <unicode hex="2077"/>
  <outline>
    <contour>
      <point x="176" y="289" type="line"/>
      <point x="61" y="303" type="line"/>
      <point x="41" y="337" type="line"/>
      <point x="220" y="775" type="line"/>
      <point x="286" y="714" type="line"/>
      <point x="14" y="714" type="line"/>
      <point x="14" y="827" type="line"/>
      <point x="31" y="840" type="line"/>
      <point x="334" y="840" type="line"/>
      <point x="369" y="767" type="line"/>
      <point x="369" y="750" type="line"/>
      <point x="198" y="304" type="line"/>
    </contour>
  </outline>
</glyph>
<glyph name="zeroinferior" format="1">
  <advance width="494"/>
  <unicode hex="2080"/>
  <note>
    420
  </note>
  <outline>
    <contour>
      <point x="247" y="-107" type="curve"/>
      <point x="394" y="-107"/>
      <point x="473" y="-9"/>
      <point x="473" y="173" type="curve" smooth="yes"/>
      <point x="473" y="355"/>
      <point x="394" y="454"/>
      <point x="247" y="454" type="curve" smooth="yes"/>
      <point x="101" y="454"/>
      <point x="21" y="355"/>
      <point x="21" y="173" type="curve" smooth="yes"/>
      <point x="21" y="-9"/>
      <point x="101" y="-107"/>
    </contour>
    <contour>
      <point x="247" y="28" type="curve" smooth="yes"/>
      <point x="202" y="28"/>
      <point x="186" y="67"/>
      <point x="186" y="173" type="curve" smooth="yes"/>
      <point x="186" y="280"/>
      <point x="202" y="319"/>
      <point x="247" y="319" type="curve" smooth="yes"/>
      <point x="293" y="319"/>
      <point x="308" y="281"/>
      <point x="308" y="173" type="curve" smooth="yes"/>
      <point x="308" y="65"/>
      <point x="293" y="28"/>
    </contour>
  </outline>
</glyph>
<glyph name="twoinferior" format="1">
  <advance width="417"/>
  <unicode hex="2082"/>
  <outline>
    <contour>
      <point x="21" y="-100" type="line"/>
      <point x="389" y="-100" type="line"/>
      <point x="389" y="32" type="line"/>
      <point x="191" y="32" type="line"/>
      <point x="191" y="43" type="line" smooth="yes"/>
      <point x="191" y="56"/>
      <point x="227" y="85"/>
      <point x="292" y="124" type="curve" smooth="yes"/>
      <point x="357" y="161"/>
      <point x="394" y="214"/>
      <point x="394" y="295" type="curve" smooth="yes"/>
      <point x="394" y="401"/>
      <point x="329" y="454"/>
      <point x="199" y="454" type="curve" smooth="yes"/>
      <point x="152" y="454"/>
      <point x="91" y="446"/>
      <point x="31" y="433" type="curve"/>
      <point x="44" y="307" type="line"/>
      <point x="76" y="312"/>
      <point x="117" y="319"/>
      <point x="153" y="319" type="curve" smooth="yes"/>
      <point x="205" y="319"/>
      <point x="229" y="306"/>
      <point x="229" y="277" type="curve" smooth="yes"/>
      <point x="229" y="247"/>
      <point x="211" y="226"/>
      <point x="160" y="197" type="curve" smooth="yes"/>
      <point x="56" y="137"/>
      <point x="21" y="90"/>
      <point x="21" y="8" type="curve" smooth="yes"/>
    </contour>
  </outline>
</glyph>
<glyph name="fourinferior" format="1">
  <advance width="441"/>
  <unicode hex="2084"/>
  <outline>
    <contour>
      <point x="212" y="-100" type="line"/>
      <point x="377" y="-100" type="line"/>
      <point x="377" y="3" type="line"/>
      <point x="429" y="3" type="line"/>
      <point x="429" y="119" type="line"/>
      <point x="377" y="119" type="line"/>
      <point x="377" y="243" type="line"/>
      <point x="277" y="243" type="line"/>
      <point x="230" y="119" type="line"/>
      <point x="157" y="119" type="line"/>
      <point x="328" y="419" type="line"/>
      <point x="318" y="435" type="line"/>
      <point x="174" y="443" type="line"/>
      <point x="162" y="432" type="line"/>
      <point x="4" y="100" type="line"/>
      <point x="18" y="3" type="line"/>
      <point x="212" y="3" type="line"/>
    </contour>
  </outline>
</glyph>
<glyph name="fiveinferior" format="1">
  <advance width="388"/>
  <unicode hex="2085"/>
  <outline>
    <contour>
      <point x="144" y="-107" type="curve" smooth="yes"/>
      <point x="290" y="-107"/>
      <point x="376" y="-41"/>
      <point x="376" y="72" type="curve" smooth="yes"/>
      <point x="376" y="185"/>
      <point x="313" y="237"/>
      <point x="167" y="242" type="curve"/>
      <point x="172" y="314" type="line"/>
      <point x="335" y="314" type="line"/>
      <point x="335" y="446" type="line"/>
      <point x="49" y="446" type="line"/>
      <point x="28" y="138" type="line"/>
      <point x="36" y="131" type="line"/>
      <point x="92" y="131" type="line" smooth="yes"/>
      <point x="186" y="131"/>
      <point x="211" y="118"/>
      <point x="211" y="72" type="curve" smooth="yes"/>
      <point x="211" y="38"/>
      <point x="187" y="22"/>
      <point x="132" y="22" type="curve" smooth="yes"/>
      <point x="111" y="22"/>
      <point x="87" y="25"/>
      <point x="61" y="31" type="curve"/>
      <point x="25" y="31" type="line"/>
      <point x="25" y="-96" type="line"/>
      <point x="78" y="-104"/>
      <point x="114" y="-107"/>
    </contour>
  </outline>
</glyph>
<glyph name="sixinferior" format="1">
  <advance width="445"/>
  <unicode hex="2086"/>
  <outline>
    <contour>
      <point x="225" y="-107" type="curve" smooth="yes"/>
      <point x="353" y="-107"/>
      <point x="432" y="-32"/>
      <point x="432" y="89" type="curve" smooth="yes"/>
      <point x="432" y="186"/>
      <point x="364" y="248"/>
      <point x="261" y="248" type="curve" smooth="yes"/>
      <point x="226" y="248"/>
      <point x="195" y="240"/>
      <point x="172" y="224" type="curve"/>
      <point x="185" y="301"/>
      <point x="221" y="328"/>
      <point x="293" y="328" type="curve" smooth="yes"/>
      <point x="315" y="328"/>
      <point x="344" y="324"/>
      <point x="384" y="316" type="curve"/>
      <point x="403" y="438" type="line"/>
      <point x="359" y="448"/>
      <point x="320" y="454"/>
      <point x="289" y="454" type="curve" smooth="yes"/>
      <point x="109" y="454"/>
      <point x="20" y="351"/>
      <point x="20" y="149" type="curve" smooth="yes"/>
      <point x="20" y="-14"/>
      <point x="94" y="-107"/>
    </contour>
    <contour>
      <point x="225" y="27" type="curve" smooth="yes"/>
      <point x="187" y="27"/>
      <point x="170" y="56"/>
      <point x="166" y="123" type="curve"/>
      <point x="182" y="138"/>
      <point x="205" y="149"/>
      <point x="225" y="149" type="curve" smooth="yes"/>
      <point x="266" y="149"/>
      <point x="283" y="131"/>
      <point x="283" y="85" type="curve" smooth="yes"/>
      <point x="283" y="45"/>
      <point x="264" y="27"/>
    </contour>
  </outline>
</glyph>
<glyph name="seveninferior" format="1">
  <advance width="370"/>
  <unicode hex="2087"/>
  <outline>
    <contour>
      <point x="176" y="-111" type="line"/>
      <point x="61" y="-97" type="line"/>
      <point x="41" y="-63" type="line"/>
      <point x="220" y="375" type="line"/>
      <point x="286" y="314" type="line"/>
      <point x="14" y="314" type="line"/>
      <point x="14" y="427" type="line"/>
      <point x="31" y="440" type="line"/>
      <point x="334" y="440" type="line"/>
      <point x="369" y="367" type="line"/>
      <point x="369" y="350" type="line"/>
      <point x="198" y="-96" type="line"/>
    </contour>
  </outline>
</glyph>
<glyph name="nineinferior" format="1">
  <advance width="446"/>
  <unicode hex="2089"/>
  <outline>
    <contour>
      <point x="156" y="-107" type="curve" smooth="yes"/>
      <point x="335" y="-107"/>
      <point x="425" y="-5"/>
      <point x="425" y="198" type="curve" smooth="yes"/>
      <point x="425" y="361"/>
      <point x="351" y="454"/>
      <point x="220" y="454" type="curve" smooth="yes"/>
      <point x="92" y="454"/>
      <point x="13" y="379"/>
      <point x="13" y="258" type="curve" smooth="yes"/>
      <point x="13" y="162"/>
      <point x="80" y="99"/>
      <point x="184" y="99" type="curve" smooth="yes"/>
      <point x="219" y="99"/>
      <point x="250" y="107"/>
      <point x="273" y="123" type="curve"/>
      <point x="260" y="48"/>
      <point x="226" y="19"/>
      <point x="152" y="19" type="curve" smooth="yes"/>
      <point x="131" y="19"/>
      <point x="102" y="23"/>
      <point x="61" y="31" type="curve"/>
      <point x="42" y="-91" type="line"/>
      <point x="89" y="-102"/>
      <point x="127" y="-107"/>
    </contour>
    <contour>
      <point x="220" y="198" type="curve" smooth="yes"/>
      <point x="179" y="198"/>
      <point x="162" y="216"/>
      <point x="162" y="262" type="curve" smooth="yes"/>
      <point x="162" y="301"/>
      <point x="180" y="320"/>
      <point x="220" y="320" type="curve" smooth="yes"/>
      <point x="257" y="320"/>
      <point x="275" y="292"/>
      <point x="279" y="224" type="curve"/>
      <point x="262" y="208"/>
      <point x="239" y="198"/>
    </contour>
  </outline>
</glyph>
<glyph name="franc" format="1">
  <advance width="599"/>
  <unicode hex="20A3"/>
  <outline>
    <contour>
      <point x="113" y="0" type="line"/>
      <point x="308" y="0" type="line"/>
      <point x="308" y="578" type="line"/>
      <point x="574" y="578" type="line"/>
      <point x="574" y="740" type="line"/>
      <point x="113" y="740" type="line"/>
    </contour>
    <contour>
      <point x="22" y="88" type="line"/>
      <point x="408" y="88" type="line"/>
      <point x="408" y="202" type="line"/>
      <point x="22" y="202" type="line"/>
    </contour>
    <contour>
      <point x="252" y="289" type="line"/>
      <point x="543" y="289" type="line"/>
      <point x="543" y="451" type="line"/>
      <point x="252" y="451" type="line"/>
    </contour>
  </outline>
</glyph>
<glyph name="lira" format="1">
  <advance width="615"/>
  <unicode hex="20A4"/>
  <outline>
    <contour>
      <point x="35" y="0" type="line"/>
      <point x="575" y="0" type="line"/>
      <point x="575" y="162" type="line"/>
      <point x="337" y="162" type="line"/>
      <point x="337" y="528" type="line" smooth="yes"/>
      <point x="337" y="577"/>
      <point x="358" y="591"/>
      <point x="419" y="591" type="curve" smooth="yes"/>
      <point x="462" y="591"/>
      <point x="537" y="583"/>
      <point x="584" y="573" type="curve"/>
      <point x="589" y="725" type="line"/>
      <point x="503" y="741"/>
      <point x="437" y="750"/>
      <point x="379" y="750" type="curve" smooth="yes"/>
      <point x="215" y="750"/>
      <point x="142" y="681"/>
      <point x="142" y="533" type="curve" smooth="yes"/>
      <point x="142" y="164" type="line"/>
      <point x="35" y="164" type="line"/>
    </contour>
    <contour>
      <point x="35" y="247" type="line"/>
      <point x="456" y="247" type="line"/>
      <point x="476" y="340" type="line"/>
      <point x="35" y="340" type="line"/>
    </contour>
    <contour>
      <point x="35" y="416" type="line"/>
      <point x="481" y="416" type="line"/>
      <point x="501" y="509" type="line"/>
      <point x="35" y="509" type="line"/>
    </contour>
  </outline>
</glyph>
<glyph name="uni20A9" format="1">
  <advance width="1043"/>
  <unicode hex="20A9"/>
  <outline>
    <contour>
      <point x="33" y="181" type="line"/>
      <point x="1010" y="181" type="line"/>
      <point x="1010" y="285" type="line"/>
      <point x="33" y="285" type="line"/>
    </contour>
    <contour>
      <point x="33" y="436" type="line"/>
      <point x="1010" y="436" type="line"/>
      <point x="1010" y="540" type="line"/>
      <point x="33" y="540" type="line"/>
    </contour>
    <component base="W" xOffset="44"/>
  </outline>
</glyph>
<glyph name="Euro" format="1">
  <advance width="605"/>
  <unicode hex="20AC"/>
  <outline>
    <contour>
      <point x="439" y="-10" type="curve" smooth="yes"/>
      <point x="491" y="-10"/>
      <point x="540" y="-3"/>
      <point x="577" y="11" type="curve"/>
      <point x="577" y="168" type="line"/>
      <point x="546" y="158"/>
      <point x="507" y="152"/>
      <point x="467" y="152" type="curve" smooth="yes"/>
      <point x="328" y="152"/>
      <point x="290" y="199"/>
      <point x="290" y="369" type="curve" smooth="yes"/>
      <point x="290" y="539"/>
      <point x="329" y="587"/>
      <point x="465" y="587" type="curve" smooth="yes"/>
      <point x="487" y="587"/>
      <point x="510" y="585"/>
      <point x="546" y="581" type="curve"/>
      <point x="577" y="728" type="line"/>
      <point x="541" y="742"/>
      <point x="494" y="750"/>
      <point x="442" y="750" type="curve" smooth="yes"/>
      <point x="216" y="750"/>
      <point x="94" y="617"/>
      <point x="94" y="370" type="curve" smooth="yes"/>
      <point x="94" y="123"/>
      <point x="215" y="-10"/>
    </contour>
    <contour>
      <point x="24" y="233" type="line"/>
      <point x="458" y="233" type="line"/>
      <point x="478" y="337" type="line"/>
      <point x="24" y="337" type="line"/>
    </contour>
    <contour>
      <point x="24" y="402" type="line"/>
      <point x="490" y="402" type="line"/>
      <point x="510" y="506" type="line"/>
      <point x="24" y="506" type="line"/>
    </contour>
  </outline>
</glyph>
<glyph name="uni20B9" format="1">
  <advance width="526"/>
  <unicode hex="20B9"/>
  <outline>
    <contour>
      <point x="43" y="608" type="line"/>
      <point x="56" y="609"/>
      <point x="63" y="608"/>
      <point x="75" y="608" type="curve" smooth="yes"/>
      <point x="182" y="608"/>
      <point x="206" y="580"/>
      <point x="206" y="500" type="curve" smooth="yes"/>
      <point x="206" y="420"/>
      <point x="183" y="391"/>
      <point x="81" y="391" type="curve" smooth="yes"/>
      <point x="43" y="391" type="line"/>
      <point x="43" y="245" type="line"/>
      <point x="241" y="245" type="line"/>
      <point x="264" y="284" type="line"/>
      <point x="264" y="295" type="line"/>
      <point x="356" y="325"/>
      <point x="402" y="402"/>
      <point x="402" y="510" type="curve" smooth="yes"/>
      <point x="402" y="606"/>
      <point x="363" y="674"/>
      <point x="284" y="713" type="curve"/>
      <point x="44" y="713" type="line"/>
    </contour>
    <contour>
      <point x="210" y="0" type="line"/>
      <point x="416" y="0" type="line"/>
      <point x="246" y="326" type="line"/>
      <point x="77" y="273" type="line"/>
    </contour>
    <contour>
      <point x="44" y="635" type="line"/>
      <point x="487" y="635" type="line"/>
      <point x="507" y="740" type="line"/>
      <point x="44" y="740" type="line"/>
    </contour>
    <contour>
      <point x="44" y="448" type="line"/>
      <point x="455" y="448" type="line"/>
      <point x="475" y="553" type="line"/>
      <point x="44" y="553" type="line"/>
    </contour>
  </outline>
</glyph>
<glyph name="uni2113" format="1">
  <advance width="448"/>
  <unicode hex="2113"/>
  <outline>
    <contour>
      <point x="226" y="3" type="curve" smooth="yes"/>
      <point x="283" y="3"/>
      <point x="327" y="31"/>
      <point x="360" y="109" type="curve"/>
      <point x="325" y="121" type="line"/>
      <point x="311" y="87"/>
      <point x="288" y="50"/>
      <point x="270" y="50" type="curve" smooth="yes"/>
      <point x="242" y="50"/>
      <point x="232" y="103"/>
      <point x="232" y="175" type="curve" smooth="yes"/>
      <point x="232" y="220"/>
      <point x="235" y="256"/>
      <point x="237" y="292" type="curve"/>
      <point x="346" y="406"/>
      <point x="438" y="542"/>
      <point x="438" y="692" type="curve" smooth="yes"/>
      <point x="438" y="743"/>
      <point x="422" y="789"/>
      <point x="368" y="789" type="curve" smooth="yes"/>
      <point x="237" y="789"/>
      <point x="164" y="577"/>
      <point x="141" y="254" type="curve"/>
      <point x="99" y="216"/>
      <point x="59" y="187"/>
      <point x="25" y="164" type="curve"/>
      <point x="50" y="129" type="line"/>
      <point x="76" y="149"/>
      <point x="109" y="175"/>
      <point x="138" y="199" type="curve"/>
      <point x="137" y="181"/>
      <point x="137" y="158"/>
      <point x="137" y="143" type="curve" smooth="yes"/>
      <point x="137" y="37"/>
      <point x="160" y="3"/>
    </contour>
    <contour>
      <point x="245" y="368" type="curve"/>
      <point x="257" y="534"/>
      <point x="282" y="640"/>
      <point x="332" y="730" type="curve"/>
      <point x="340" y="713"/>
      <point x="343" y="666"/>
      <point x="343" y="632" type="curve" smooth="yes"/>
      <point x="343" y="541"/>
      <point x="304" y="446"/>
    </contour>
  </outline>
</glyph>
<glyph name="trademark" format="1">
  <advance width="906"/>
  <unicode hex="2122"/>
  <outline>
    <contour>
      <point x="402" y="320" type="line"/>
      <point x="514" y="320" type="line"/>
      <point x="514" y="576" type="line"/>
      <point x="580" y="342" type="line"/>
      <point x="678" y="342" type="line"/>
      <point x="744" y="576" type="line"/>
      <point x="744" y="320" type="line"/>
      <point x="856" y="320" type="line"/>
      <point x="856" y="740" type="line"/>
      <point x="690" y="740" type="line"/>
      <point x="629" y="527" type="line"/>
      <point x="568" y="740" type="line"/>
      <point x="402" y="740" type="line"/>
    </contour>
    <contour>
      <point x="132" y="320" type="line"/>
      <point x="252" y="320" type="line"/>
      <point x="252" y="638" type="line"/>
      <point x="362" y="638" type="line"/>
      <point x="362" y="740" type="line"/>
      <point x="22" y="740" type="line"/>
      <point x="22" y="638" type="line"/>
      <point x="132" y="638" type="line"/>
    </contour>
  </outline>
</glyph>
<glyph name="estimated" format="1">
  <advance width="631"/>
  <unicode hex="212E"/>
  <outline>
    <contour>
      <point x="321" y="1" type="curve" smooth="yes"/>
      <point x="425" y="1"/>
      <point x="504" y="48"/>
      <point x="579" y="154" type="curve"/>
      <point x="539" y="178" type="line"/>
      <point x="487" y="87"/>
      <point x="415" y="42"/>
      <point x="321" y="42" type="curve" smooth="yes"/>
      <point x="257" y="42"/>
      <point x="205" y="64"/>
      <point x="162" y="108" type="curve"/>
      <point x="162" y="313" type="line"/>
      <point x="609" y="313" type="line"/>
      <point x="600" y="504"/>
      <point x="488" y="626"/>
      <point x="321" y="626" type="curve" smooth="yes"/>
      <point x="152" y="626"/>
      <point x="34" y="497"/>
      <point x="34" y="313" type="curve" smooth="yes"/>
      <point x="34" y="135"/>
      <point x="157" y="1"/>
    </contour>
    <contour>
      <point x="162" y="354" type="line"/>
      <point x="162" y="518" type="line"/>
      <point x="205" y="563"/>
      <point x="257" y="586"/>
      <point x="320" y="586" type="curve" smooth="yes"/>
      <point x="381" y="586"/>
      <point x="434" y="563"/>
      <point x="481" y="518" type="curve"/>
      <point x="481" y="354" type="line"/>
    </contour>
  </outline>
</glyph>
<glyph name="arrowleft" format="1">
  <advance width="611"/>
  <unicode hex="2190"/>
  <outline>
    <contour>
      <point x="324" y="74" type="line"/>
      <point x="439" y="189" type="line"/>
      <point x="280" y="325" type="line"/>
      <point x="583" y="325" type="line"/>
      <point x="583" y="493" type="line"/>
      <point x="280" y="493" type="line"/>
      <point x="439" y="629" type="line"/>
      <point x="324" y="744" type="line"/>
      <point x="20" y="441" type="line"/>
      <point x="20" y="377" type="line"/>
    </contour>
  </outline>
</glyph>
<glyph name="arrowup" format="1">
  <advance width="704"/>
  <unicode hex="2191"/>
  <outline>
    <contour>
      <point x="268" y="126" type="line"/>
      <point x="436" y="126" type="line"/>
      <point x="436" y="428" type="line"/>
      <point x="572" y="270" type="line"/>
      <point x="687" y="385" type="line"/>
      <point x="384" y="689" type="line"/>
      <point x="320" y="689" type="line"/>
      <point x="17" y="385" type="line"/>
      <point x="132" y="270" type="line"/>
      <point x="268" y="428" type="line"/>
    </contour>
  </outline>
</glyph>
<glyph name="arrowright" format="1">
  <advance width="611"/>
  <unicode hex="2192"/>
  <outline>
    <contour>
      <point x="287" y="74" type="line"/>
      <point x="591" y="377" type="line"/>
      <point x="591" y="441" type="line"/>
      <point x="287" y="744" type="line"/>
      <point x="172" y="629" type="line"/>
      <point x="330" y="493" type="line"/>
      <point x="28" y="493" type="line"/>
      <point x="28" y="325" type="line"/>
      <point x="330" y="325" type="line"/>
      <point x="172" y="189" type="line"/>
    </contour>
  </outline>
</glyph>
<glyph name="product" format="1">
  <advance width="719"/>
  <unicode hex="220F"/>
  <outline>
    <contour>
      <point x="63" y="-122" type="line"/>
      <point x="253" y="-122" type="line"/>
      <point x="253" y="578" type="line"/>
      <point x="466" y="578" type="line"/>
      <point x="466" y="-122" type="line"/>
      <point x="656" y="-122" type="line"/>
      <point x="656" y="740" type="line"/>
      <point x="63" y="740" type="line"/>
    </contour>
  </outline>
</glyph>
<glyph name="summation" format="1">
  <advance width="540"/>
  <unicode hex="2211"/>
  <outline>
    <contour>
      <point x="24" y="-101" type="line"/>
      <point x="510" y="-101" type="line"/>
      <point x="510" y="61" type="line"/>
      <point x="253" y="61" type="line"/>
      <point x="403" y="320" type="line"/>
      <point x="253" y="578" type="line"/>
      <point x="510" y="578" type="line"/>
      <point x="510" y="740" type="line"/>
      <point x="24" y="740" type="line"/>
      <point x="24" y="626" type="line"/>
      <point x="211" y="319" type="line"/>
      <point x="24" y="13" type="line"/>
    </contour>
  </outline>
</glyph>
<glyph name="uni2215" format="1">
  <advance width="362"/>
  <unicode hex="2215"/>
  <outline>
    <contour>
      <point x="-12" y="0" type="line"/>
      <point x="114" y="0" type="line"/>
      <point x="374" y="740" type="line"/>
      <point x="248" y="740" type="line"/>
    </contour>
  </outline>
</glyph>
<glyph name="infinity" format="1">
  <advance width="942"/>
  <unicode hex="221E"/>
  <outline>
    <contour>
      <point x="257" y="115" type="curve" smooth="yes"/>
      <point x="353" y="115"/>
      <point x="409" y="158"/>
      <point x="471" y="204" type="curve"/>
      <point x="528" y="146"/>
      <point x="603" y="115"/>
      <point x="685" y="115" type="curve" smooth="yes"/>
      <point x="817" y="115"/>
      <point x="917" y="199"/>
      <point x="917" y="310" type="curve" smooth="yes"/>
      <point x="917" y="427"/>
      <point x="821" y="509"/>
      <point x="685" y="509" type="curve" smooth="yes"/>
      <point x="589" y="509"/>
      <point x="533" y="464"/>
      <point x="470" y="420" type="curve"/>
      <point x="413" y="478"/>
      <point x="339" y="509"/>
      <point x="257" y="509" type="curve" smooth="yes"/>
      <point x="125" y="509"/>
      <point x="25" y="425"/>
      <point x="25" y="314" type="curve" smooth="yes"/>
      <point x="25" y="197"/>
      <point x="121" y="115"/>
    </contour>
    <contour>
      <point x="283" y="236" type="curve" smooth="yes"/>
      <point x="237" y="236"/>
      <point x="204" y="269"/>
      <point x="204" y="314" type="curve" smooth="yes"/>
      <point x="204" y="360"/>
      <point x="231" y="388"/>
      <point x="277" y="388" type="curve" smooth="yes"/>
      <point x="322" y="388"/>
      <point x="358" y="367"/>
      <point x="402" y="314" type="curve"/>
      <point x="365" y="263"/>
      <point x="323" y="236"/>
    </contour>
    <contour>
      <point x="665" y="236" type="curve" smooth="yes"/>
      <point x="620" y="236"/>
      <point x="583" y="257"/>
      <point x="540" y="310" type="curve"/>
      <point x="576" y="360"/>
      <point x="618" y="388"/>
      <point x="659" y="388" type="curve" smooth="yes"/>
      <point x="705" y="388"/>
      <point x="738" y="355"/>
      <point x="738" y="310" type="curve" smooth="yes"/>
      <point x="738" y="264"/>
      <point x="711" y="236"/>
    </contour>
  </outline>
</glyph>
<glyph name="integral" format="1">
  <advance width="375"/>
  <unicode hex="222B"/>
  <outline>
    <contour>
      <point x="113" y="-211" type="curve" smooth="yes"/>
      <point x="223" y="-211"/>
      <point x="304" y="-171"/>
      <point x="304" y="-64" type="curve" smooth="yes"/>
      <point x="304" y="-57"/>
      <point x="303" y="-49"/>
      <point x="303" y="-41" type="curve"/>
      <point x="253" y="606" type="line"/>
      <point x="253" y="614" type="line" smooth="yes"/>
      <point x="253" y="645"/>
      <point x="274" y="653"/>
      <point x="299" y="653" type="curve" smooth="yes"/>
      <point x="318" y="653"/>
      <point x="339" y="648"/>
      <point x="355" y="645" type="curve"/>
      <point x="377" y="759" type="line"/>
      <point x="318" y="772"/>
      <point x="269" y="780"/>
      <point x="213" y="780" type="curve" smooth="yes"/>
      <point x="133" y="780"/>
      <point x="72" y="740"/>
      <point x="72" y="633" type="curve" smooth="yes"/>
      <point x="72" y="626"/>
      <point x="73" y="618"/>
      <point x="73" y="610" type="curve"/>
      <point x="123" y="-37" type="line"/>
      <point x="123" y="-45" type="line" smooth="yes"/>
      <point x="123" y="-76"/>
      <point x="102" y="-84"/>
      <point x="77" y="-84" type="curve" smooth="yes"/>
      <point x="58" y="-84"/>
      <point x="37" y="-79"/>
      <point x="21" y="-76" type="curve"/>
      <point x="-1" y="-190" type="line"/>
      <point x="38" y="-203"/>
      <point x="77" y="-211"/>
    </contour>
  </outline>
</glyph>
<glyph name="notequal" format="1">
  <advance width="539"/>
  <unicode hex="2260"/>
  <outline>
    <contour>
      <point x="267" y="627" type="line"/>
      <point x="122" y="84" type="line"/>
      <point x="252" y="50" type="line"/>
      <point x="397" y="593" type="line"/>
    </contour>
    <contour>
      <point x="47" y="167" type="line"/>
      <point x="491" y="167" type="line"/>
      <point x="491" y="305" type="line"/>
      <point x="47" y="305" type="line"/>
    </contour>
    <contour>
      <point x="47" y="390" type="line"/>
      <point x="491" y="390" type="line"/>
      <point x="491" y="528" type="line"/>
      <point x="47" y="528" type="line"/>
    </contour>
  </outline>
</glyph>
<glyph name="lessequal" format="1">
  <advance width="570"/>
  <unicode hex="2264"/>
  <outline>
    <contour>
      <point x="39" y="396" type="line"/>
      <point x="178" y="426" type="line"/>
      <point x="522" y="515" type="line"/>
      <point x="522" y="662" type="line"/>
      <point x="39" y="505" type="line"/>
    </contour>
    <contour>
      <point x="39" y="373" type="line"/>
      <point x="522" y="216" type="line"/>
      <point x="522" y="363" type="line"/>
      <point x="178" y="452" type="line"/>
      <point x="39" y="482" type="line"/>
    </contour>
    <contour>
      <point x="38" y="56" type="line"/>
      <point x="522" y="56" type="line"/>
      <point x="522" y="190" type="line"/>
      <point x="38" y="190" type="line"/>
    </contour>
  </outline>
</glyph>
<glyph name="lozenge" format="1">
  <advance width="599"/>
  <unicode hex="25CA"/>
  <outline>
    <contour>
      <point x="192" y="0" type="line"/>
      <point x="407" y="0" type="line"/>
      <point x="580" y="361" type="line"/>
      <point x="580" y="381" type="line"/>
      <point x="407" y="740" type="line"/>
      <point x="192" y="740" type="line"/>
      <point x="19" y="381" type="line"/>
      <point x="19" y="361" type="line"/>
    </contour>
    <contour>
      <point x="299" y="119" type="line"/>
      <point x="192" y="371" type="line"/>
      <point x="299" y="622" type="line"/>
      <point x="406" y="371" type="line"/>
    </contour>
  </outline>
</glyph>
<glyph name="commaaccent" format="1">
  <advance width="267"/>
  <unicode hex="F6C3"/>
  <outline>
    <contour>
      <point x="156" y="0" type="move" name="_bottom"/>
    </contour>
    <contour>
      <point x="24" y="-220" type="line"/>
      <point x="165" y="-220" type="line"/>
      <point x="259" y="-70" type="line"/>
      <point x="65" y="-70" type="line"/>
    </contour>
  </outline>
</glyph>
<glyph name="AE.sc" format="1">
  <advance width="791"/>
  <outline>
    <contour>
      <point x="453" y="760" type="move" name="topUC"/>
    </contour>
    <contour>
      <point x="-3" y="0" type="line"/>
      <point x="184" y="0" type="line"/>
      <point x="219" y="104" type="line"/>
      <point x="382" y="104" type="line"/>
      <point x="387" y="0" type="line"/>
      <point x="760" y="0" type="line"/>
      <point x="760" y="145" type="line"/>
      <point x="564" y="145" type="line"/>
      <point x="558" y="218" type="line"/>
      <point x="745" y="218" type="line"/>
      <point x="745" y="358" type="line"/>
      <point x="543" y="358" type="line"/>
      <point x="537" y="432" type="line"/>
      <point x="752" y="432" type="line"/>
      <point x="752" y="577" type="line"/>
      <point x="192" y="577" type="line"/>
      <point x="-3" y="5" type="line"/>
    </contour>
    <contour>
      <point x="333" y="442" type="line"/>
      <point x="366" y="442" type="line"/>
      <point x="375" y="235" type="line"/>
      <point x="262" y="235" type="line"/>
    </contour>
  </outline>
</glyph>
<glyph name="A.sc" format="1">
  <advance width="599"/>
  <note>
    520
  </note>
  <outline>
    <contour>
      <point x="522" y="0" type="move" name="ogonek"/>
    </contour>
    <contour>
      <point x="272" y="760" type="move" name="topUC"/>
    </contour>
    <contour>
      <point x="-2" y="0" type="line"/>
      <point x="170" y="0" type="line"/>
      <point x="202" y="104" type="line"/>
      <point x="396" y="104" type="line"/>
      <point x="428" y="0" type="line"/>
      <point x="601" y="0" type="line"/>
      <point x="601" y="6" type="line"/>
      <point x="439" y="577" type="line"/>
      <point x="160" y="577" type="line"/>
      <point x="-2" y="6" type="line"/>
    </contour>
    <contour>
      <point x="229" y="225" type="line"/>
      <point x="272" y="370" type="line"/>
      <point x="292" y="448" type="line"/>
      <point x="307" y="448" type="line"/>
      <point x="326" y="370" type="line"/>
      <point x="369" y="225" type="line"/>
    </contour>
  </outline>
</glyph>
<glyph name="Aacute.sc" format="1">
  <advance width="599"/>
  <outline>
    <contour>
      <point x="-2" y="0" type="line"/>
      <point x="170" y="0" type="line"/>
      <point x="202" y="104" type="line"/>
      <point x="396" y="104" type="line"/>
      <point x="428" y="0" type="line"/>
      <point x="601" y="0" type="line"/>
      <point x="601" y="6" type="line"/>
      <point x="439" y="577" type="line"/>
      <point x="160" y="577" type="line"/>
      <point x="-2" y="6" type="line"/>
    </contour>
    <contour>
      <point x="229" y="225" type="line"/>
      <point x="272" y="370" type="line"/>
      <point x="292" y="448" type="line"/>
      <point x="307" y="448" type="line"/>
      <point x="326" y="370" type="line"/>
      <point x="369" y="225" type="line"/>
    </contour>
    <contour>
      <point x="359" y="618" type="line"/>
      <point x="471" y="786" type="line"/>
      <point x="289" y="786" type="line"/>
      <point x="232" y="627" type="line"/>
    </contour>
  </outline>
</glyph>
<glyph name="Acircumflex.sc" format="1">
  <advance width="599"/>
  <outline>
    <contour>
      <point x="-2" y="0" type="line"/>
      <point x="170" y="0" type="line"/>
      <point x="202" y="104" type="line"/>
      <point x="396" y="104" type="line"/>
      <point x="428" y="0" type="line"/>
      <point x="601" y="0" type="line"/>
      <point x="601" y="6" type="line"/>
      <point x="439" y="577" type="line"/>
      <point x="160" y="577" type="line"/>
      <point x="-2" y="6" type="line"/>
    </contour>
    <contour>
      <point x="229" y="225" type="line"/>
      <point x="272" y="370" type="line"/>
      <point x="292" y="448" type="line"/>
      <point x="307" y="448" type="line"/>
      <point x="326" y="370" type="line"/>
      <point x="369" y="225" type="line"/>
    </contour>
    <contour>
      <point x="142" y="608" type="line"/>
      <point x="301" y="664" type="line"/>
      <point x="461" y="608" type="line"/>
      <point x="461" y="721" type="line"/>
      <point x="302" y="777" type="line"/>
      <point x="142" y="721" type="line"/>
    </contour>
  </outline>
</glyph>
<glyph name="Adieresis.sc" format="1">
  <advance width="599"/>
  <outline>
    <contour>
      <point x="179" y="619" type="curve" smooth="yes"/>
      <point x="246" y="619"/>
      <point x="275" y="646"/>
      <point x="275" y="711" type="curve" smooth="yes"/>
      <point x="275" y="775"/>
      <point x="246" y="802"/>
      <point x="179" y="802" type="curve" smooth="yes"/>
      <point x="111" y="802"/>
      <point x="84" y="775"/>
      <point x="84" y="711" type="curve" smooth="yes"/>
      <point x="84" y="647"/>
      <point x="111" y="619"/>
    </contour>
    <contour>
      <point x="423" y="619" type="curve" smooth="yes"/>
      <point x="490" y="619"/>
      <point x="519" y="646"/>
      <point x="519" y="711" type="curve" smooth="yes"/>
      <point x="519" y="775"/>
      <point x="490" y="802"/>
      <point x="423" y="802" type="curve" smooth="yes"/>
      <point x="355" y="802"/>
      <point x="328" y="775"/>
      <point x="328" y="711" type="curve" smooth="yes"/>
      <point x="328" y="647"/>
      <point x="355" y="619"/>
    </contour>
    <contour>
      <point x="-2" y="0" type="line"/>
      <point x="170" y="0" type="line"/>
      <point x="202" y="104" type="line"/>
      <point x="396" y="104" type="line"/>
      <point x="428" y="0" type="line"/>
      <point x="601" y="0" type="line"/>
      <point x="601" y="6" type="line"/>
      <point x="439" y="577" type="line"/>
      <point x="160" y="577" type="line"/>
      <point x="-2" y="6" type="line"/>
    </contour>
    <contour>
      <point x="229" y="225" type="line"/>
      <point x="272" y="370" type="line"/>
      <point x="292" y="448" type="line"/>
      <point x="307" y="448" type="line"/>
      <point x="326" y="370" type="line"/>
      <point x="369" y="225" type="line"/>
    </contour>
  </outline>
</glyph>
<glyph name="Agrave.sc" format="1">
  <advance width="599"/>
  <outline>
    <contour>
      <point x="-2" y="0" type="line"/>
      <point x="170" y="0" type="line"/>
      <point x="202" y="104" type="line"/>
      <point x="396" y="104" type="line"/>
      <point x="428" y="0" type="line"/>
      <point x="601" y="0" type="line"/>
      <point x="601" y="6" type="line"/>
      <point x="439" y="577" type="line"/>
      <point x="160" y="577" type="line"/>
      <point x="-2" y="6" type="line"/>
    </contour>
    <contour>
      <point x="229" y="225" type="line"/>
      <point x="272" y="370" type="line"/>
      <point x="292" y="448" type="line"/>
      <point x="307" y="448" type="line"/>
      <point x="326" y="370" type="line"/>
      <point x="369" y="225" type="line"/>
    </contour>
    <contour>
      <point x="361" y="625" type="line"/>
      <point x="304" y="786" type="line"/>
      <point x="122" y="786" type="line"/>
      <point x="234" y="618" type="line"/>
    </contour>
  </outline>
</glyph>
<glyph name="Aogonek.sc" format="1">
  <advance width="599"/>
  <outline>
    <contour>
      <point x="513" y="-165" type="curve" smooth="yes"/>
      <point x="544" y="-165"/>
      <point x="569" y="-161"/>
      <point x="601" y="-156" type="curve"/>
      <point x="601" y="-57" type="line"/>
      <point x="583" y="-62"/>
      <point x="554" y="-68"/>
      <point x="531" y="-68" type="curve" smooth="yes"/>
      <point x="513" y="-68"/>
      <point x="501" y="-66"/>
      <point x="501" y="-59" type="curve" smooth="yes"/>
      <point x="501" y="-52"/>
      <point x="519" y="-27"/>
      <point x="601" y="0" type="curve"/>
      <point x="601" y="6" type="line"/>
      <point x="439" y="577" type="line"/>
      <point x="160" y="577" type="line"/>
      <point x="-2" y="6" type="line"/>
      <point x="-2" y="0" type="line"/>
      <point x="170" y="0" type="line"/>
      <point x="202" y="104" type="line"/>
      <point x="396" y="104" type="line"/>
      <point x="428" y="0" type="line"/>
      <point x="442" y="0" type="line"/>
      <point x="403" y="-29"/>
      <point x="389" y="-51"/>
      <point x="389" y="-81" type="curve" smooth="yes"/>
      <point x="389" y="-137"/>
      <point x="430" y="-165"/>
    </contour>
    <contour>
      <point x="228" y="225" type="line"/>
      <point x="272" y="373" type="line"/>
      <point x="292" y="448" type="line"/>
      <point x="307" y="448" type="line"/>
      <point x="326" y="373" type="line"/>
      <point x="368" y="225" type="line"/>
    </contour>
  </outline>
</glyph>
<glyph name="Aring.sc" format="1">
  <advance width="599"/>
  <outline>
    <contour>
      <point x="-2" y="0" type="line"/>
      <point x="170" y="0" type="line"/>
      <point x="202" y="104" type="line"/>
      <point x="396" y="104" type="line"/>
      <point x="428" y="0" type="line"/>
      <point x="601" y="0" type="line"/>
      <point x="601" y="6" type="line"/>
      <point x="439" y="577" type="line"/>
      <point x="160" y="577" type="line"/>
      <point x="-2" y="6" type="line"/>
    </contour>
    <contour>
      <point x="228" y="225" type="line"/>
      <point x="272" y="370" type="line"/>
      <point x="292" y="448" type="line"/>
      <point x="307" y="448" type="line"/>
      <point x="326" y="370" type="line"/>
      <point x="368" y="225" type="line"/>
    </contour>
    <contour>
      <point x="298" y="610" type="curve" smooth="yes"/>
      <point x="364" y="610"/>
      <point x="411" y="649"/>
      <point x="411" y="702" type="curve" smooth="yes"/>
      <point x="411" y="757"/>
      <point x="364" y="796"/>
      <point x="298" y="796" type="curve" smooth="yes"/>
      <point x="233" y="796"/>
      <point x="184" y="757"/>
      <point x="184" y="702" type="curve" smooth="yes"/>
      <point x="184" y="649"/>
      <point x="233" y="610"/>
    </contour>
    <contour>
      <point x="298" y="664" type="curve" smooth="yes"/>
      <point x="259" y="664"/>
      <point x="248" y="672"/>
      <point x="248" y="702" type="curve" smooth="yes"/>
      <point x="248" y="733"/>
      <point x="259" y="743"/>
      <point x="298" y="743" type="curve" smooth="yes"/>
      <point x="335" y="743"/>
      <point x="348" y="733"/>
      <point x="348" y="702" type="curve" smooth="yes"/>
      <point x="348" y="672"/>
      <point x="335" y="664"/>
    </contour>
  </outline>
</glyph>
<glyph name="Atilde.sc" format="1">
  <advance width="599"/>
  <outline>
    <contour>
      <point x="-2" y="0" type="line"/>
      <point x="170" y="0" type="line"/>
      <point x="202" y="104" type="line"/>
      <point x="396" y="104" type="line"/>
      <point x="428" y="0" type="line"/>
      <point x="601" y="0" type="line"/>
      <point x="601" y="6" type="line"/>
      <point x="439" y="577" type="line"/>
      <point x="160" y="577" type="line"/>
      <point x="-2" y="6" type="line"/>
    </contour>
    <contour>
      <point x="228" y="225" type="line"/>
      <point x="272" y="370" type="line"/>
      <point x="292" y="448" type="line"/>
      <point x="307" y="448" type="line"/>
      <point x="326" y="370" type="line"/>
      <point x="368" y="225" type="line"/>
    </contour>
    <contour>
      <point x="144" y="632" type="line"/>
      <point x="173" y="656"/>
      <point x="194" y="660"/>
      <point x="218" y="660" type="curve" smooth="yes"/>
      <point x="267" y="660"/>
      <point x="316" y="632"/>
      <point x="365" y="632" type="curve" smooth="yes"/>
      <point x="412" y="632"/>
      <point x="464" y="669"/>
      <point x="503" y="750" type="curve"/>
      <point x="483" y="768" type="line"/>
      <point x="454" y="744"/>
      <point x="433" y="739"/>
      <point x="409" y="739" type="curve" smooth="yes"/>
      <point x="359" y="739"/>
      <point x="311" y="767"/>
      <point x="263" y="767" type="curve" smooth="yes"/>
      <point x="216" y="767"/>
      <point x="164" y="730"/>
      <point x="125" y="648" type="curve"/>
    </contour>
  </outline>
</glyph>
<glyph name="Ccircumflex.sc" format="1">
  <advance width="474"/>
  <outline>
    <contour>
      <point x="306" y="-7" type="curve" smooth="yes"/>
      <point x="360" y="-7"/>
      <point x="420" y="3"/>
      <point x="447" y="15" type="curve"/>
      <point x="447" y="154" type="line"/>
      <point x="412" y="145"/>
      <point x="374" y="141"/>
      <point x="331" y="141" type="curve" smooth="yes"/>
      <point x="242" y="141"/>
      <point x="213" y="156"/>
      <point x="213" y="288" type="curve" smooth="yes"/>
      <point x="213" y="418"/>
      <point x="243" y="437"/>
      <point x="331" y="437" type="curve" smooth="yes"/>
      <point x="362" y="437"/>
      <point x="402" y="434"/>
      <point x="447" y="427" type="curve"/>
      <point x="447" y="569" type="line"/>
      <point x="395" y="579"/>
      <point x="348" y="585"/>
      <point x="304" y="585" type="curve" smooth="yes"/>
      <point x="124" y="585"/>
      <point x="25" y="487"/>
      <point x="25" y="289" type="curve" smooth="yes"/>
      <point x="25" y="88"/>
      <point x="122" y="-7"/>
    </contour>
    <contour>
      <point x="101" y="608" type="line"/>
      <point x="261" y="664" type="line"/>
      <point x="420" y="608" type="line"/>
      <point x="420" y="721" type="line"/>
      <point x="262" y="777" type="line"/>
      <point x="101" y="721" type="line"/>
    </contour>
  </outline>
</glyph>
<glyph name="E.sc" format="1">
  <advance width="519"/>
  <outline>
    <contour>
      <point x="458" y="0" type="move" name="ogonek"/>
    </contour>
    <contour>
      <point x="267" y="760" type="move" name="topUC"/>
    </contour>
    <contour>
      <point x="287" y="0" type="move" name="bottom"/>
    </contour>
    <contour>
      <point x="48" y="0" type="line"/>
      <point x="492" y="0" type="line"/>
      <point x="492" y="145" type="line"/>
      <point x="231" y="145" type="line"/>
      <point x="231" y="218" type="line"/>
      <point x="456" y="218" type="line"/>
      <point x="456" y="358" type="line"/>
      <point x="231" y="358" type="line"/>
      <point x="231" y="432" type="line"/>
      <point x="484" y="432" type="line"/>
      <point x="484" y="577" type="line"/>
      <point x="48" y="577" type="line"/>
    </contour>
  </outline>
</glyph>
<glyph name="Eacute.sc" format="1">
  <advance width="519"/>
  <outline>
    <contour>
      <point x="48" y="0" type="line"/>
      <point x="492" y="0" type="line"/>
      <point x="492" y="145" type="line"/>
      <point x="231" y="145" type="line"/>
      <point x="231" y="218" type="line"/>
      <point x="456" y="218" type="line"/>
      <point x="456" y="358" type="line"/>
      <point x="231" y="358" type="line"/>
      <point x="231" y="432" type="line"/>
      <point x="484" y="432" type="line"/>
      <point x="484" y="577" type="line"/>
      <point x="48" y="577" type="line"/>
    </contour>
    <contour>
      <point x="328" y="618" type="line"/>
      <point x="440" y="786" type="line"/>
      <point x="258" y="786" type="line"/>
      <point x="201" y="627" type="line"/>
    </contour>
  </outline>
</glyph>
<glyph name="Ebreve.sc" format="1">
  <advance width="519"/>
  <outline>
    <contour>
      <point x="271" y="613" type="curve" smooth="yes"/>
      <point x="387" y="613"/>
      <point x="447" y="673"/>
      <point x="447" y="768" type="curve"/>
      <point x="328" y="768" type="line"/>
      <point x="328" y="707"/>
      <point x="316" y="690"/>
      <point x="271" y="690" type="curve" smooth="yes"/>
      <point x="224" y="690"/>
      <point x="214" y="707"/>
      <point x="214" y="768" type="curve"/>
      <point x="95" y="768" type="line"/>
      <point x="95" y="672"/>
      <point x="154" y="613"/>
    </contour>
    <contour>
      <point x="48" y="0" type="line"/>
      <point x="492" y="0" type="line"/>
      <point x="492" y="145" type="line"/>
      <point x="231" y="145" type="line"/>
      <point x="231" y="218" type="line"/>
      <point x="456" y="218" type="line"/>
      <point x="456" y="358" type="line"/>
      <point x="231" y="358" type="line"/>
      <point x="231" y="432" type="line"/>
      <point x="484" y="432" type="line"/>
      <point x="484" y="577" type="line"/>
      <point x="48" y="577" type="line"/>
    </contour>
  </outline>
</glyph>
<glyph name="Ecaron.sc" format="1">
  <advance width="519"/>
  <outline>
    <contour>
      <point x="48" y="0" type="line"/>
      <point x="492" y="0" type="line"/>
      <point x="492" y="145" type="line"/>
      <point x="231" y="145" type="line"/>
      <point x="231" y="218" type="line"/>
      <point x="456" y="218" type="line"/>
      <point x="456" y="358" type="line"/>
      <point x="231" y="358" type="line"/>
      <point x="231" y="432" type="line"/>
      <point x="484" y="432" type="line"/>
      <point x="484" y="577" type="line"/>
      <point x="48" y="577" type="line"/>
    </contour>
    <contour>
      <point x="281" y="611" type="line"/>
      <point x="440" y="667" type="line"/>
      <point x="440" y="780" type="line"/>
      <point x="280" y="724" type="line"/>
      <point x="121" y="780" type="line"/>
      <point x="121" y="667" type="line"/>
    </contour>
  </outline>
</glyph>
<glyph name="Ecircumflex.sc" format="1">
  <advance width="519"/>
  <outline>
    <contour>
      <point x="48" y="0" type="line"/>
      <point x="492" y="0" type="line"/>
      <point x="492" y="145" type="line"/>
      <point x="231" y="145" type="line"/>
      <point x="231" y="218" type="line"/>
      <point x="456" y="218" type="line"/>
      <point x="456" y="358" type="line"/>
      <point x="231" y="358" type="line"/>
      <point x="231" y="432" type="line"/>
      <point x="484" y="432" type="line"/>
      <point x="484" y="577" type="line"/>
      <point x="48" y="577" type="line"/>
    </contour>
    <contour>
      <point x="114" y="608" type="line"/>
      <point x="273" y="664" type="line"/>
      <point x="432" y="608" type="line"/>
      <point x="432" y="721" type="line"/>
      <point x="274" y="777" type="line"/>
      <point x="114" y="721" type="line"/>
    </contour>
  </outline>
</glyph>
<glyph name="Edotaccent.sc" format="1">
  <advance width="519"/>
  <outline>
    <contour>
      <point x="271" y="622" type="curve" smooth="yes"/>
      <point x="338" y="622"/>
      <point x="367" y="649"/>
      <point x="367" y="714" type="curve" smooth="yes"/>
      <point x="367" y="778"/>
      <point x="338" y="804"/>
      <point x="271" y="804" type="curve" smooth="yes"/>
      <point x="203" y="804"/>
      <point x="176" y="778"/>
      <point x="176" y="714" type="curve" smooth="yes"/>
      <point x="176" y="649"/>
      <point x="203" y="622"/>
    </contour>
    <contour>
      <point x="48" y="0" type="line"/>
      <point x="492" y="0" type="line"/>
      <point x="492" y="145" type="line"/>
      <point x="231" y="145" type="line"/>
      <point x="231" y="218" type="line"/>
      <point x="456" y="218" type="line"/>
      <point x="456" y="358" type="line"/>
      <point x="231" y="358" type="line"/>
      <point x="231" y="432" type="line"/>
      <point x="484" y="432" type="line"/>
      <point x="484" y="577" type="line"/>
      <point x="48" y="577" type="line"/>
    </contour>
  </outline>
</glyph>
<glyph name="Einvertedbreve.sc" format="1">
  <advance width="519"/>
  <outline>
    <contour>
      <point x="97" y="621" type="curve"/>
      <point x="215" y="621" type="line"/>
      <point x="215" y="681"/>
      <point x="226" y="698"/>
      <point x="273" y="698" type="curve" smooth="yes"/>
      <point x="318" y="698"/>
      <point x="329" y="681"/>
      <point x="329" y="621" type="curve"/>
      <point x="449" y="621" type="line"/>
      <point x="449" y="717"/>
      <point x="388" y="776"/>
      <point x="273" y="776" type="curve" smooth="yes"/>
      <point x="155" y="776"/>
      <point x="97" y="717"/>
    </contour>
    <contour>
      <point x="48" y="0" type="line"/>
      <point x="492" y="0" type="line"/>
      <point x="492" y="145" type="line"/>
      <point x="231" y="145" type="line"/>
      <point x="231" y="218" type="line"/>
      <point x="456" y="218" type="line"/>
      <point x="456" y="358" type="line"/>
      <point x="231" y="358" type="line"/>
      <point x="231" y="432" type="line"/>
      <point x="484" y="432" type="line"/>
      <point x="484" y="577" type="line"/>
      <point x="48" y="577" type="line"/>
    </contour>
  </outline>
</glyph>
<glyph name="Eogonek.sc" format="1">
  <advance width="520"/>
  <outline>
    <contour>
      <point x="406" y="-172" type="curve" smooth="yes"/>
      <point x="437" y="-172"/>
      <point x="461" y="-168"/>
      <point x="494" y="-162" type="curve"/>
      <point x="494" y="-64" type="line"/>
      <point x="476" y="-68"/>
      <point x="447" y="-74"/>
      <point x="424" y="-74" type="curve" smooth="yes"/>
      <point x="406" y="-74"/>
      <point x="394" y="-73"/>
      <point x="394" y="-66" type="curve" smooth="yes"/>
      <point x="394" y="-59"/>
      <point x="415" y="-30"/>
      <point x="493" y="-1" type="curve"/>
      <point x="493" y="145" type="line"/>
      <point x="232" y="145" type="line"/>
      <point x="232" y="218" type="line"/>
      <point x="457" y="218" type="line"/>
      <point x="457" y="358" type="line"/>
      <point x="232" y="358" type="line"/>
      <point x="232" y="432" type="line"/>
      <point x="485" y="432" type="line"/>
      <point x="485" y="577" type="line"/>
      <point x="49" y="577" type="line"/>
      <point x="49" y="0" type="line"/>
      <point x="342" y="0" type="line"/>
      <point x="297" y="-34"/>
      <point x="281" y="-55"/>
      <point x="281" y="-87" type="curve" smooth="yes"/>
      <point x="281" y="-143"/>
      <point x="323" y="-172"/>
    </contour>
  </outline>
</glyph>
<glyph name="Euro.tab" format="1">
  <advance width="600"/>
  <outline>
    <contour>
      <point x="21" y="402" type="line"/>
      <point x="92" y="402" type="line"/>
      <point x="91" y="391"/>
      <point x="91" y="381"/>
      <point x="91" y="370" type="curve" smooth="yes"/>
      <point x="91" y="358"/>
      <point x="91" y="348"/>
      <point x="92" y="337" type="curve"/>
      <point x="21" y="337" type="line"/>
      <point x="21" y="233" type="line"/>
      <point x="106" y="233" type="line"/>
      <point x="145" y="74"/>
      <point x="258" y="-10"/>
      <point x="437" y="-10" type="curve" smooth="yes"/>
      <point x="489" y="-10"/>
      <point x="538" y="-3"/>
      <point x="575" y="11" type="curve"/>
      <point x="575" y="168" type="line"/>
      <point x="544" y="158"/>
      <point x="505" y="152"/>
      <point x="465" y="152" type="curve" smooth="yes"/>
      <point x="374" y="152"/>
      <point x="326" y="172"/>
      <point x="303" y="233" type="curve"/>
      <point x="456" y="233" type="line"/>
      <point x="476" y="337" type="line"/>
      <point x="287" y="337" type="line"/>
      <point x="287" y="369" type="line"/>
      <point x="287" y="402" type="line"/>
      <point x="488" y="402" type="line"/>
      <point x="508" y="506" type="line"/>
      <point x="304" y="506" type="line"/>
      <point x="326" y="567"/>
      <point x="374" y="587"/>
      <point x="463" y="587" type="curve" smooth="yes"/>
      <point x="485" y="587"/>
      <point x="508" y="585"/>
      <point x="544" y="581" type="curve"/>
      <point x="575" y="728" type="line"/>
      <point x="539" y="742"/>
      <point x="492" y="750"/>
      <point x="440" y="750" type="curve" smooth="yes"/>
      <point x="259" y="750"/>
      <point x="145" y="665"/>
      <point x="106" y="506" type="curve"/>
      <point x="21" y="506" type="line"/>
    </contour>
  </outline>
</glyph>
<glyph name="F.sc" format="1">
  <advance width="498"/>
  <outline>
    <contour>
      <point x="48" y="0" type="line"/>
      <point x="231" y="0" type="line"/>
      <point x="231" y="193" type="line"/>
      <point x="447" y="193" type="line"/>
      <point x="447" y="343" type="line"/>
      <point x="231" y="343" type="line"/>
      <point x="231" y="427" type="line"/>
      <point x="476" y="427" type="line"/>
      <point x="476" y="577" type="line"/>
      <point x="48" y="577" type="line"/>
    </contour>
  </outline>
</glyph>
<glyph name="Gcircumflex.sc" format="1">
  <advance width="555"/>
  <outline>
    <contour>
      <point x="306" y="-7" type="curve" smooth="yes"/>
      <point x="362" y="-7"/>
      <point x="425" y="-2"/>
      <point x="520" y="10" type="curve"/>
      <point x="520" y="293" type="line"/>
      <point x="356" y="293" type="line"/>
      <point x="356" y="141" type="line"/>
      <point x="331" y="141" type="line" smooth="yes"/>
      <point x="236" y="141"/>
      <point x="213" y="165"/>
      <point x="213" y="288" type="curve" smooth="yes"/>
      <point x="213" y="405"/>
      <point x="248" y="438"/>
      <point x="367" y="438" type="curve" smooth="yes"/>
      <point x="402" y="438"/>
      <point x="445" y="433"/>
      <point x="508" y="423" type="curve"/>
      <point x="508" y="565" type="line"/>
      <point x="452" y="579"/>
      <point x="399" y="585"/>
      <point x="349" y="585" type="curve" smooth="yes"/>
      <point x="135" y="585"/>
      <point x="25" y="480"/>
      <point x="25" y="289" type="curve" smooth="yes"/>
      <point x="25" y="93"/>
      <point x="119" y="-7"/>
    </contour>
    <contour>
      <point x="146" y="608" type="line"/>
      <point x="305" y="664" type="line"/>
      <point x="464" y="608" type="line"/>
      <point x="464" y="721" type="line"/>
      <point x="306" y="777" type="line"/>
      <point x="146" y="721" type="line"/>
    </contour>
  </outline>
</glyph>
<glyph name="Gdotaccent.sc" format="1">
  <advance width="555"/>
  <outline>
    <contour>
      <point x="306" y="-7" type="curve" smooth="yes"/>
      <point x="362" y="-7"/>
      <point x="425" y="-2"/>
      <point x="520" y="10" type="curve"/>
      <point x="520" y="293" type="line"/>
      <point x="356" y="293" type="line"/>
      <point x="356" y="141" type="line"/>
      <point x="331" y="141" type="line" smooth="yes"/>
      <point x="236" y="141"/>
      <point x="213" y="165"/>
      <point x="213" y="288" type="curve" smooth="yes"/>
      <point x="213" y="405"/>
      <point x="248" y="438"/>
      <point x="367" y="438" type="curve" smooth="yes"/>
      <point x="402" y="438"/>
      <point x="445" y="433"/>
      <point x="508" y="423" type="curve"/>
      <point x="508" y="565" type="line"/>
      <point x="452" y="579"/>
      <point x="399" y="585"/>
      <point x="349" y="585" type="curve" smooth="yes"/>
      <point x="135" y="585"/>
      <point x="25" y="480"/>
      <point x="25" y="289" type="curve" smooth="yes"/>
      <point x="25" y="93"/>
      <point x="119" y="-7"/>
    </contour>
    <contour>
      <point x="306" y="622" type="curve" smooth="yes"/>
      <point x="373" y="622"/>
      <point x="402" y="649"/>
      <point x="402" y="714" type="curve" smooth="yes"/>
      <point x="402" y="778"/>
      <point x="373" y="804"/>
      <point x="306" y="804" type="curve" smooth="yes"/>
      <point x="238" y="804"/>
      <point x="211" y="778"/>
      <point x="211" y="714" type="curve" smooth="yes"/>
      <point x="211" y="649"/>
      <point x="238" y="622"/>
    </contour>
  </outline>
</glyph>
<glyph name="Hcircumflex.sc" format="1">
  <advance width="643"/>
  <outline>
    <contour>
      <point x="48" y="0" type="line"/>
      <point x="231" y="0" type="line"/>
      <point x="231" y="220" type="line"/>
      <point x="411" y="220" type="line"/>
      <point x="411" y="0" type="line"/>
      <point x="595" y="0" type="line"/>
      <point x="595" y="577" type="line"/>
      <point x="411" y="577" type="line"/>
      <point x="411" y="370" type="line"/>
      <point x="231" y="370" type="line"/>
      <point x="231" y="577" type="line"/>
      <point x="48" y="577" type="line"/>
    </contour>
    <contour>
      <point x="162" y="608" type="line"/>
      <point x="322" y="664" type="line"/>
      <point x="481" y="608" type="line"/>
      <point x="481" y="721" type="line"/>
      <point x="322" y="777" type="line"/>
      <point x="162" y="721" type="line"/>
    </contour>
  </outline>
</glyph>
<glyph name="Iacute.sc" format="1">
  <advance width="279"/>
  <outline>
    <contour>
      <point x="48" y="0" type="line"/>
      <point x="231" y="0" type="line"/>
      <point x="231" y="577" type="line"/>
      <point x="48" y="577" type="line"/>
    </contour>
    <contour>
      <point x="196" y="618" type="line"/>
      <point x="309" y="786" type="line"/>
      <point x="127" y="786" type="line"/>
      <point x="70" y="627" type="line"/>
    </contour>
  </outline>
</glyph>
<glyph name="Idotbelow.sc" format="1">
  <advance width="279"/>
  <outline>
    <contour>
      <point x="48" y="0" type="line"/>
      <point x="231" y="0" type="line"/>
      <point x="231" y="577" type="line"/>
      <point x="48" y="577" type="line"/>
    </contour>
    <contour>
      <point x="140" y="-182" type="curve" smooth="yes"/>
      <point x="192" y="-182"/>
      <point x="214" y="-163"/>
      <point x="214" y="-114" type="curve" smooth="yes"/>
      <point x="214" y="-66"/>
      <point x="192" y="-47"/>
      <point x="140" y="-47" type="curve" smooth="yes"/>
      <point x="87" y="-47"/>
      <point x="67" y="-67"/>
      <point x="67" y="-114" type="curve" smooth="yes"/>
      <point x="67" y="-162"/>
      <point x="87" y="-182"/>
    </contour>
  </outline>
</glyph>
<glyph name="Iogonek.sc" format="1">
  <advance width="280"/>
  <outline>
    <contour>
      <point x="49" y="0" type="line"/>
      <point x="81" y="0" type="line"/>
      <point x="36" y="-34"/>
      <point x="20" y="-55"/>
      <point x="20" y="-87" type="curve" smooth="yes"/>
      <point x="20" y="-143"/>
      <point x="61" y="-172"/>
      <point x="145" y="-172" type="curve" smooth="yes"/>
      <point x="176" y="-172"/>
      <point x="200" y="-168"/>
      <point x="232" y="-162" type="curve"/>
      <point x="232" y="-64" type="line"/>
      <point x="214" y="-68"/>
      <point x="185" y="-74"/>
      <point x="163" y="-74" type="curve" smooth="yes"/>
      <point x="144" y="-74"/>
      <point x="132" y="-73"/>
      <point x="132" y="-66" type="curve" smooth="yes"/>
      <point x="132" y="-59"/>
      <point x="153" y="-30"/>
      <point x="232" y="-1" type="curve"/>
      <point x="232" y="577" type="line"/>
      <point x="49" y="577" type="line"/>
    </contour>
  </outline>
</glyph>
<glyph name="Itilde.sc" format="1">
  <advance width="279"/>
  <outline>
    <contour>
      <point x="48" y="0" type="line"/>
      <point x="231" y="0" type="line"/>
      <point x="231" y="577" type="line"/>
      <point x="48" y="577" type="line"/>
    </contour>
    <contour>
      <point x="-17" y="632" type="line"/>
      <point x="12" y="656"/>
      <point x="32" y="660"/>
      <point x="57" y="660" type="curve" smooth="yes"/>
      <point x="106" y="660"/>
      <point x="155" y="632"/>
      <point x="203" y="632" type="curve" smooth="yes"/>
      <point x="251" y="632"/>
      <point x="302" y="669"/>
      <point x="342" y="750" type="curve"/>
      <point x="321" y="768" type="line"/>
      <point x="293" y="744"/>
      <point x="271" y="739"/>
      <point x="247" y="739" type="curve" smooth="yes"/>
      <point x="198" y="739"/>
      <point x="150" y="767"/>
      <point x="101" y="767" type="curve" smooth="yes"/>
      <point x="54" y="767"/>
      <point x="2" y="730"/>
      <point x="-37" y="648" type="curve"/>
    </contour>
  </outline>
</glyph>
<glyph name="J.sc" format="1">
  <advance width="281"/>
  <outline>
    <contour>
      <point x="112" y="760" type="move" name="topUC"/>
    </contour>
    <contour>
      <point x="99" y="-174" type="line"/>
      <point x="200" y="-50"/>
      <point x="234" y="28"/>
      <point x="234" y="141" type="curve" smooth="yes"/>
      <point x="234" y="577" type="line"/>
      <point x="50" y="577" type="line"/>
      <point x="50" y="158" type="line" smooth="yes"/>
      <point x="50" y="45"/>
      <point x="35" y="-24"/>
      <point x="-16" y="-125" type="curve"/>
    </contour>
  </outline>
</glyph>
<glyph name="Lacute.sc" format="1">
  <advance width="451"/>
  <outline>
    <contour>
      <point x="48" y="0" type="line"/>
      <point x="437" y="0" type="line"/>
      <point x="437" y="150" type="line"/>
      <point x="231" y="150" type="line"/>
      <point x="231" y="577" type="line"/>
      <point x="48" y="577" type="line"/>
    </contour>
    <contour>
      <point x="200" y="618" type="line"/>
      <point x="312" y="786" type="line"/>
      <point x="130" y="786" type="line"/>
      <point x="73" y="627" type="line"/>
    </contour>
  </outline>
</glyph>
<glyph name="Lcommaaccent.sc" format="1">
  <advance width="451"/>
  <outline>
    <contour>
      <point x="48" y="0" type="line"/>
      <point x="437" y="0" type="line"/>
      <point x="437" y="150" type="line"/>
      <point x="231" y="150" type="line"/>
      <point x="231" y="577" type="line"/>
      <point x="48" y="577" type="line"/>
    </contour>
    <contour>
      <point x="118" y="-172" type="line"/>
      <point x="250" y="-172" type="line"/>
      <point x="336" y="-55" type="line"/>
      <point x="154" y="-55" type="line"/>
    </contour>
  </outline>
</glyph>
<glyph name="Lslash.sc" format="1">
  <advance width="464"/>
  <outline>
    <contour>
      <point x="9" y="177" type="line"/>
      <point x="62" y="200" type="line"/>
      <point x="62" y="0" type="line"/>
      <point x="451" y="0" type="line"/>
      <point x="451" y="150" type="line"/>
      <point x="245" y="150" type="line"/>
      <point x="245" y="281" type="line"/>
      <point x="339" y="323" type="line"/>
      <point x="339" y="447" type="line"/>
      <point x="245" y="406" type="line"/>
      <point x="245" y="577" type="line"/>
      <point x="62" y="577" type="line"/>
      <point x="62" y="325" type="line"/>
      <point x="9" y="302" type="line"/>
    </contour>
  </outline>
</glyph>
<glyph name="M.sc" format="1">
  <advance width="833"/>
  <outline>
    <contour>
      <point x="48" y="0" type="line"/>
      <point x="216" y="0" type="line"/>
      <point x="216" y="376" type="line"/>
      <point x="225" y="375" type="line"/>
      <point x="264" y="257" type="line"/>
      <point x="341" y="32" type="line"/>
      <point x="491" y="32" type="line"/>
      <point x="569" y="257" type="line"/>
      <point x="607" y="375" type="line"/>
      <point x="616" y="376" type="line"/>
      <point x="616" y="0" type="line"/>
      <point x="785" y="0" type="line"/>
      <point x="785" y="577" type="line"/>
      <point x="522" y="577" type="line"/>
      <point x="438" y="335" type="line"/>
      <point x="420" y="256" type="line"/>
      <point x="411" y="256" type="line"/>
      <point x="394" y="335" type="line"/>
      <point x="310" y="577" type="line"/>
      <point x="48" y="577" type="line"/>
    </contour>
  </outline>
</glyph>
<glyph name="N.sc" format="1">
  <advance width="639"/>
  <outline>
    <contour>
      <point x="337" y="760" type="move" name="topUC"/>
    </contour>
    <contour>
      <point x="352" y="0" type="move" name="bottom"/>
    </contour>
    <contour>
      <point x="48" y="0" type="line"/>
      <point x="210" y="0" type="line"/>
      <point x="210" y="288" type="line"/>
      <point x="220" y="287" type="line"/>
      <point x="262" y="227" type="line"/>
      <point x="445" y="0" type="line"/>
      <point x="591" y="0" type="line"/>
      <point x="591" y="577" type="line"/>
      <point x="429" y="577" type="line"/>
      <point x="429" y="293" type="line"/>
      <point x="419" y="293" type="line"/>
      <point x="376" y="355" type="line"/>
      <point x="195" y="577" type="line"/>
      <point x="48" y="577" type="line"/>
    </contour>
  </outline>
</glyph>
<glyph name="Nacute.sc" format="1">
  <advance width="639"/>
  <outline>
    <contour>
      <point x="48" y="0" type="line"/>
      <point x="210" y="0" type="line"/>
      <point x="210" y="288" type="line"/>
      <point x="220" y="287" type="line"/>
      <point x="262" y="227" type="line"/>
      <point x="445" y="0" type="line"/>
      <point x="591" y="0" type="line"/>
      <point x="591" y="577" type="line"/>
      <point x="429" y="577" type="line"/>
      <point x="429" y="293" type="line"/>
      <point x="419" y="293" type="line"/>
      <point x="376" y="355" type="line"/>
      <point x="195" y="577" type="line"/>
      <point x="48" y="577" type="line"/>
    </contour>
    <contour>
      <point x="363" y="618" type="line"/>
      <point x="476" y="786" type="line"/>
      <point x="294" y="786" type="line"/>
      <point x="237" y="627" type="line"/>
    </contour>
  </outline>
</glyph>
<glyph name="Ntilde.sc" format="1">
  <advance width="639"/>
  <outline>
    <contour>
      <point x="152" y="632" type="line"/>
      <point x="181" y="656"/>
      <point x="201" y="660"/>
      <point x="226" y="660" type="curve" smooth="yes"/>
      <point x="275" y="660"/>
      <point x="324" y="632"/>
      <point x="372" y="632" type="curve" smooth="yes"/>
      <point x="420" y="632"/>
      <point x="471" y="669"/>
      <point x="511" y="750" type="curve"/>
      <point x="490" y="768" type="line"/>
      <point x="462" y="744"/>
      <point x="441" y="739"/>
      <point x="417" y="739" type="curve" smooth="yes"/>
      <point x="367" y="739"/>
      <point x="319" y="767"/>
      <point x="271" y="767" type="curve" smooth="yes"/>
      <point x="223" y="767"/>
      <point x="171" y="730"/>
      <point x="132" y="648" type="curve"/>
    </contour>
    <contour>
      <point x="48" y="0" type="line"/>
      <point x="210" y="0" type="line"/>
      <point x="210" y="288" type="line"/>
      <point x="220" y="287" type="line"/>
      <point x="262" y="227" type="line"/>
      <point x="445" y="0" type="line"/>
      <point x="591" y="0" type="line"/>
      <point x="591" y="577" type="line"/>
      <point x="429" y="577" type="line"/>
      <point x="429" y="293" type="line"/>
      <point x="419" y="293" type="line"/>
      <point x="376" y="355" type="line"/>
      <point x="195" y="577" type="line"/>
      <point x="48" y="577" type="line"/>
    </contour>
  </outline>
</glyph>
<glyph name="OE.sc" format="1">
  <advance width="889"/>
  <outline>
    <contour>
      <point x="333" y="-9" type="curve" smooth="yes"/>
      <point x="371" y="-9"/>
      <point x="402" y="-7"/>
      <point x="433" y="0" type="curve"/>
      <point x="858" y="0" type="line"/>
      <point x="858" y="146" type="line"/>
      <point x="616" y="146" type="line"/>
      <point x="616" y="218" type="line"/>
      <point x="841" y="218" type="line"/>
      <point x="841" y="358" type="line"/>
      <point x="616" y="358" type="line"/>
      <point x="616" y="432" type="line"/>
      <point x="850" y="432" type="line"/>
      <point x="850" y="577" type="line"/>
      <point x="433" y="577" type="line"/>
      <point x="403" y="581"/>
      <point x="372" y="586"/>
      <point x="333" y="586" type="curve" smooth="yes"/>
      <point x="139" y="586"/>
      <point x="24" y="485"/>
      <point x="24" y="289" type="curve" smooth="yes"/>
      <point x="24" y="91"/>
      <point x="138" y="-9"/>
    </contour>
    <contour>
      <point x="357" y="141" type="curve" smooth="yes"/>
      <point x="238" y="141"/>
      <point x="208" y="171"/>
      <point x="208" y="288" type="curve" smooth="yes"/>
      <point x="208" y="404"/>
      <point x="238" y="435"/>
      <point x="355" y="435" type="curve" smooth="yes"/>
      <point x="381" y="435"/>
      <point x="402" y="433"/>
      <point x="433" y="428" type="curve"/>
      <point x="433" y="148" type="line"/>
      <point x="405" y="142"/>
      <point x="382" y="141"/>
    </contour>
  </outline>
</glyph>
<glyph name="O.sc" format="1">
  <advance width="637"/>
  <outline>
    <contour>
      <point x="311" y="-10" type="move" name="ogonek"/>
    </contour>
    <contour>
      <point x="311" y="760" type="move" name="topUC"/>
    </contour>
    <contour>
      <point x="311" y="0" type="move" name="bottom"/>
    </contour>
    <contour>
      <point x="318" y="-8" type="curve" smooth="yes"/>
      <point x="517" y="-8"/>
      <point x="612" y="86"/>
      <point x="612" y="288" type="curve" smooth="yes"/>
      <point x="612" y="490"/>
      <point x="517" y="585"/>
      <point x="318" y="585" type="curve" smooth="yes"/>
      <point x="122" y="585"/>
      <point x="25" y="487"/>
      <point x="25" y="288" type="curve" smooth="yes"/>
      <point x="25" y="89"/>
      <point x="122" y="-8"/>
    </contour>
    <contour>
      <point x="318" y="140" type="curve" smooth="yes"/>
      <point x="238" y="140"/>
      <point x="213" y="173"/>
      <point x="213" y="288" type="curve" smooth="yes"/>
      <point x="213" y="406"/>
      <point x="238" y="437"/>
      <point x="318" y="437" type="curve" smooth="yes"/>
      <point x="401" y="437"/>
      <point x="424" y="409"/>
      <point x="424" y="288" type="curve" smooth="yes"/>
      <point x="424" y="170"/>
      <point x="399" y="140"/>
    </contour>
  </outline>
</glyph>
<glyph name="Ocircumflex.sc" format="1">
  <advance width="637"/>
  <outline>
    <contour>
      <point x="318" y="-8" type="curve" smooth="yes"/>
      <point x="517" y="-8"/>
      <point x="612" y="86"/>
      <point x="612" y="288" type="curve" smooth="yes"/>
      <point x="612" y="490"/>
      <point x="517" y="585"/>
      <point x="318" y="585" type="curve" smooth="yes"/>
      <point x="122" y="585"/>
      <point x="25" y="487"/>
      <point x="25" y="288" type="curve" smooth="yes"/>
      <point x="25" y="89"/>
      <point x="122" y="-8"/>
    </contour>
    <contour>
      <point x="318" y="140" type="curve" smooth="yes"/>
      <point x="238" y="140"/>
      <point x="213" y="173"/>
      <point x="213" y="288" type="curve" smooth="yes"/>
      <point x="213" y="406"/>
      <point x="238" y="437"/>
      <point x="318" y="437" type="curve" smooth="yes"/>
      <point x="401" y="437"/>
      <point x="424" y="409"/>
      <point x="424" y="288" type="curve" smooth="yes"/>
      <point x="424" y="170"/>
      <point x="399" y="140"/>
    </contour>
    <contour>
      <point x="159" y="608" type="line"/>
      <point x="318" y="664" type="line"/>
      <point x="478" y="608" type="line"/>
      <point x="478" y="721" type="line"/>
      <point x="319" y="777" type="line"/>
      <point x="159" y="721" type="line"/>
    </contour>
  </outline>
</glyph>
<glyph name="Odotbelow.sc" format="1">
  <advance width="637"/>
  <outline>
    <contour>
      <point x="318" y="-8" type="curve" smooth="yes"/>
      <point x="517" y="-8"/>
      <point x="612" y="86"/>
      <point x="612" y="288" type="curve" smooth="yes"/>
      <point x="612" y="490"/>
      <point x="517" y="585"/>
      <point x="318" y="585" type="curve" smooth="yes"/>
      <point x="122" y="585"/>
      <point x="25" y="487"/>
      <point x="25" y="288" type="curve" smooth="yes"/>
      <point x="25" y="89"/>
      <point x="122" y="-8"/>
    </contour>
    <contour>
      <point x="318" y="140" type="curve" smooth="yes"/>
      <point x="238" y="140"/>
      <point x="213" y="173"/>
      <point x="213" y="288" type="curve" smooth="yes"/>
      <point x="213" y="406"/>
      <point x="238" y="437"/>
      <point x="318" y="437" type="curve" smooth="yes"/>
      <point x="401" y="437"/>
      <point x="424" y="409"/>
      <point x="424" y="288" type="curve" smooth="yes"/>
      <point x="424" y="170"/>
      <point x="399" y="140"/>
    </contour>
    <contour>
      <point x="323" y="-182" type="curve" smooth="yes"/>
      <point x="376" y="-182"/>
      <point x="397" y="-163"/>
      <point x="397" y="-114" type="curve" smooth="yes"/>
      <point x="397" y="-66"/>
      <point x="376" y="-47"/>
      <point x="323" y="-47" type="curve" smooth="yes"/>
      <point x="270" y="-47"/>
      <point x="250" y="-67"/>
      <point x="250" y="-114" type="curve" smooth="yes"/>
      <point x="250" y="-162"/>
      <point x="270" y="-182"/>
    </contour>
  </outline>
</glyph>
<glyph name="Ohungarumlaut.sc" format="1">
  <advance width="637"/>
  <outline>
    <contour>
      <point x="318" y="-8" type="curve" smooth="yes"/>
      <point x="517" y="-8"/>
      <point x="612" y="86"/>
      <point x="612" y="288" type="curve" smooth="yes"/>
      <point x="612" y="490"/>
      <point x="517" y="585"/>
      <point x="318" y="585" type="curve" smooth="yes"/>
      <point x="122" y="585"/>
      <point x="25" y="487"/>
      <point x="25" y="288" type="curve" smooth="yes"/>
      <point x="25" y="89"/>
      <point x="122" y="-8"/>
    </contour>
    <contour>
      <point x="318" y="140" type="curve" smooth="yes"/>
      <point x="238" y="140"/>
      <point x="213" y="173"/>
      <point x="213" y="288" type="curve" smooth="yes"/>
      <point x="213" y="406"/>
      <point x="238" y="437"/>
      <point x="318" y="437" type="curve" smooth="yes"/>
      <point x="401" y="437"/>
      <point x="424" y="409"/>
      <point x="424" y="288" type="curve" smooth="yes"/>
      <point x="424" y="170"/>
      <point x="399" y="140"/>
    </contour>
    <contour>
      <point x="263" y="618" type="line"/>
      <point x="376" y="786" type="line"/>
      <point x="226" y="786" type="line"/>
      <point x="169" y="625" type="line"/>
    </contour>
    <contour>
      <point x="447" y="618" type="line"/>
      <point x="559" y="786" type="line"/>
      <point x="410" y="786" type="line"/>
      <point x="353" y="625" type="line"/>
    </contour>
  </outline>
</glyph>
<glyph name="Oogonek.sc" format="1">
  <advance width="637"/>
  <outline>
    <contour>
      <point x="322" y="-164" type="curve" smooth="yes"/>
      <point x="353" y="-164"/>
      <point x="377" y="-160"/>
      <point x="409" y="-155" type="curve"/>
      <point x="409" y="-56" type="line"/>
      <point x="391" y="-61"/>
      <point x="362" y="-67"/>
      <point x="340" y="-67" type="curve" smooth="yes"/>
      <point x="321" y="-67"/>
      <point x="309" y="-65"/>
      <point x="309" y="-58" type="curve" smooth="yes"/>
      <point x="309" y="-52"/>
      <point x="325" y="-29"/>
      <point x="383" y="-4" type="curve"/>
      <point x="538" y="15"/>
      <point x="612" y="109"/>
      <point x="612" y="288" type="curve" smooth="yes"/>
      <point x="612" y="490"/>
      <point x="517" y="585"/>
      <point x="318" y="585" type="curve" smooth="yes"/>
      <point x="122" y="585"/>
      <point x="25" y="487"/>
      <point x="25" y="288" type="curve" smooth="yes"/>
      <point x="25" y="115"/>
      <point x="98" y="19"/>
      <point x="245" y="-3" type="curve"/>
      <point x="210" y="-30"/>
      <point x="197" y="-51"/>
      <point x="197" y="-79" type="curve" smooth="yes"/>
      <point x="197" y="-136"/>
      <point x="238" y="-164"/>
    </contour>
    <contour>
      <point x="318" y="140" type="curve" smooth="yes"/>
      <point x="238" y="140"/>
      <point x="213" y="173"/>
      <point x="213" y="288" type="curve" smooth="yes"/>
      <point x="213" y="406"/>
      <point x="238" y="437"/>
      <point x="318" y="437" type="curve" smooth="yes"/>
      <point x="401" y="437"/>
      <point x="424" y="409"/>
      <point x="424" y="288" type="curve" smooth="yes"/>
      <point x="424" y="170"/>
      <point x="399" y="140"/>
    </contour>
  </outline>
</glyph>
<glyph name="Oslash.sc" format="1">
  <advance width="641"/>
  <outline>
    <contour>
      <point x="312" y="760" type="move" name="topUC"/>
    </contour>
    <contour>
      <point x="2" y="0" type="line"/>
      <point x="132" y="0" type="line"/>
      <point x="154" y="26" type="line"/>
      <point x="198" y="3"/>
      <point x="253" y="-8"/>
      <point x="320" y="-8" type="curve" smooth="yes"/>
      <point x="519" y="-8"/>
      <point x="614" y="86"/>
      <point x="614" y="288" type="curve" smooth="yes"/>
      <point x="614" y="373"/>
      <point x="597" y="440"/>
      <point x="562" y="488" type="curve"/>
      <point x="641" y="577" type="line"/>
      <point x="511" y="577" type="line"/>
      <point x="488" y="551" type="line"/>
      <point x="444" y="573"/>
      <point x="388" y="585"/>
      <point x="320" y="585" type="curve" smooth="yes"/>
      <point x="124" y="585"/>
      <point x="27" y="487"/>
      <point x="27" y="288" type="curve" smooth="yes"/>
      <point x="27" y="203"/>
      <point x="44" y="136"/>
      <point x="80" y="88" type="curve"/>
    </contour>
    <contour>
      <point x="320" y="140" type="curve" smooth="yes"/>
      <point x="296" y="140"/>
      <point x="278" y="142"/>
      <point x="263" y="149" type="curve"/>
      <point x="425" y="332" type="line"/>
      <point x="426" y="319"/>
      <point x="426" y="304"/>
      <point x="426" y="288" type="curve" smooth="yes"/>
      <point x="426" y="170"/>
      <point x="401" y="140"/>
    </contour>
    <contour>
      <point x="215" y="288" type="curve" smooth="yes"/>
      <point x="215" y="406"/>
      <point x="240" y="437"/>
      <point x="320" y="437" type="curve" smooth="yes"/>
      <point x="345" y="437"/>
      <point x="364" y="434"/>
      <point x="379" y="427" type="curve"/>
      <point x="216" y="243" type="line"/>
      <point x="215" y="256"/>
      <point x="215" y="271"/>
    </contour>
  </outline>
</glyph>
<glyph name="Otilde.sc" format="1">
  <advance width="637"/>
  <outline>
    <contour>
      <point x="318" y="-8" type="curve" smooth="yes"/>
      <point x="517" y="-8"/>
      <point x="612" y="86"/>
      <point x="612" y="288" type="curve" smooth="yes"/>
      <point x="612" y="490"/>
      <point x="517" y="585"/>
      <point x="318" y="585" type="curve" smooth="yes"/>
      <point x="122" y="585"/>
      <point x="25" y="487"/>
      <point x="25" y="288" type="curve" smooth="yes"/>
      <point x="25" y="89"/>
      <point x="122" y="-8"/>
    </contour>
    <contour>
      <point x="318" y="140" type="curve" smooth="yes"/>
      <point x="238" y="140"/>
      <point x="213" y="173"/>
      <point x="213" y="288" type="curve" smooth="yes"/>
      <point x="213" y="406"/>
      <point x="238" y="437"/>
      <point x="318" y="437" type="curve" smooth="yes"/>
      <point x="401" y="437"/>
      <point x="424" y="409"/>
      <point x="424" y="288" type="curve" smooth="yes"/>
      <point x="424" y="170"/>
      <point x="399" y="140"/>
    </contour>
    <contour>
      <point x="162" y="632" type="line"/>
      <point x="191" y="656"/>
      <point x="211" y="660"/>
      <point x="236" y="660" type="curve" smooth="yes"/>
      <point x="285" y="660"/>
      <point x="334" y="632"/>
      <point x="382" y="632" type="curve" smooth="yes"/>
      <point x="430" y="632"/>
      <point x="481" y="669"/>
      <point x="521" y="750" type="curve"/>
      <point x="500" y="768" type="line"/>
      <point x="472" y="744"/>
      <point x="450" y="739"/>
      <point x="426" y="739" type="curve" smooth="yes"/>
      <point x="377" y="739"/>
      <point x="329" y="767"/>
      <point x="280" y="767" type="curve" smooth="yes"/>
      <point x="233" y="767"/>
      <point x="181" y="730"/>
      <point x="142" y="648" type="curve"/>
    </contour>
  </outline>
</glyph>
<glyph name="R.sc" format="1">
  <advance width="582"/>
  <outline>
    <contour>
      <point x="273" y="760" type="move" name="topUC"/>
    </contour>
    <contour>
      <point x="278" y="0" type="move" name="bottom"/>
    </contour>
    <contour>
      <point x="388" y="0" type="line"/>
      <point x="579" y="0" type="line"/>
      <point x="453" y="214" type="line"/>
      <point x="521" y="245"/>
      <point x="554" y="299"/>
      <point x="554" y="379" type="curve" smooth="yes"/>
      <point x="554" y="525"/>
      <point x="460" y="585"/>
      <point x="235" y="585" type="curve" smooth="yes"/>
      <point x="167" y="585"/>
      <point x="103" y="581"/>
      <point x="49" y="573" type="curve"/>
      <point x="49" y="0" type="line"/>
      <point x="232" y="0" type="line"/>
      <point x="232" y="182" type="line"/>
      <point x="243" y="183"/>
      <point x="255" y="183"/>
      <point x="266" y="183" type="curve" smooth="yes"/>
      <point x="290" y="183" type="line"/>
    </contour>
    <contour>
      <point x="269" y="318" type="curve"/>
      <point x="232" y="318" type="line"/>
      <point x="232" y="441" type="line"/>
      <point x="238" y="441"/>
      <point x="257" y="442"/>
      <point x="264" y="442" type="curve" smooth="yes"/>
      <point x="353" y="442"/>
      <point x="375" y="433"/>
      <point x="375" y="379" type="curve" smooth="yes"/>
      <point x="375" y="327"/>
      <point x="354" y="318"/>
    </contour>
  </outline>
</glyph>
<glyph name="Rinvertedbreve.sc" format="1">
  <advance width="582"/>
  <outline>
    <contour>
      <point x="49" y="0" type="line"/>
      <point x="232" y="0" type="line"/>
      <point x="232" y="182" type="line"/>
      <point x="243" y="183"/>
      <point x="255" y="183"/>
      <point x="266" y="183" type="curve" smooth="yes"/>
      <point x="290" y="183" type="line"/>
      <point x="388" y="0" type="line"/>
      <point x="579" y="0" type="line"/>
      <point x="453" y="214" type="line"/>
      <point x="521" y="245"/>
      <point x="554" y="299"/>
      <point x="554" y="379" type="curve" smooth="yes"/>
      <point x="554" y="525"/>
      <point x="460" y="585"/>
      <point x="235" y="585" type="curve" smooth="yes"/>
      <point x="167" y="585"/>
      <point x="103" y="581"/>
      <point x="49" y="573" type="curve"/>
    </contour>
    <contour>
      <point x="120" y="621" type="curve"/>
      <point x="239" y="621" type="line"/>
      <point x="239" y="681"/>
      <point x="249" y="698"/>
      <point x="296" y="698" type="curve" smooth="yes"/>
      <point x="341" y="698"/>
      <point x="353" y="681"/>
      <point x="353" y="621" type="curve"/>
      <point x="472" y="621" type="line"/>
      <point x="472" y="717"/>
      <point x="412" y="776"/>
      <point x="296" y="776" type="curve" smooth="yes"/>
      <point x="179" y="776"/>
      <point x="120" y="717"/>
    </contour>
    <contour>
      <point x="269" y="318" type="curve" smooth="yes"/>
      <point x="257" y="318"/>
      <point x="244" y="318"/>
      <point x="232" y="318" type="curve"/>
      <point x="232" y="441" type="line"/>
      <point x="238" y="441"/>
      <point x="257" y="442"/>
      <point x="264" y="442" type="curve" smooth="yes"/>
      <point x="353" y="442"/>
      <point x="375" y="433"/>
      <point x="375" y="379" type="curve" smooth="yes"/>
      <point x="375" y="327"/>
      <point x="354" y="318"/>
    </contour>
  </outline>
</glyph>
<glyph name="Sacute.sc" format="1">
  <advance width="494"/>
  <outline>
    <contour>
      <point x="239" y="-9" type="curve" smooth="yes"/>
      <point x="386" y="-9"/>
      <point x="476" y="65"/>
      <point x="476" y="184" type="curve" smooth="yes"/>
      <point x="476" y="272"/>
      <point x="433" y="321"/>
      <point x="332" y="348" type="curve" smooth="yes"/>
      <point x="271" y="364"/>
      <point x="218" y="372"/>
      <point x="218" y="408" type="curve" smooth="yes"/>
      <point x="218" y="429"/>
      <point x="240" y="438"/>
      <point x="288" y="438" type="curve" smooth="yes"/>
      <point x="323" y="438"/>
      <point x="394" y="427"/>
      <point x="444" y="414" type="curve"/>
      <point x="444" y="558" type="line"/>
      <point x="382" y="575"/>
      <point x="326" y="583"/>
      <point x="272" y="583" type="curve" smooth="yes"/>
      <point x="117" y="583"/>
      <point x="34" y="517"/>
      <point x="34" y="394" type="curve" smooth="yes"/>
      <point x="34" y="296"/>
      <point x="82" y="243"/>
      <point x="191" y="222" type="curve" smooth="yes"/>
      <point x="245" y="211"/>
      <point x="292" y="211"/>
      <point x="292" y="177" type="curve" smooth="yes"/>
      <point x="292" y="151"/>
      <point x="266" y="140"/>
      <point x="205" y="140" type="curve" smooth="yes"/>
      <point x="153" y="140"/>
      <point x="79" y="155"/>
      <point x="30" y="175" type="curve"/>
      <point x="30" y="23" type="line"/>
      <point x="104" y="1"/>
      <point x="171" y="-9"/>
    </contour>
    <contour>
      <point x="303" y="618" type="line"/>
      <point x="416" y="786" type="line"/>
      <point x="234" y="786" type="line"/>
      <point x="177" y="627" type="line"/>
    </contour>
  </outline>
</glyph>
<glyph name="Schwa.sc" format="1">
  <advance width="607"/>
  <outline>
    <contour>
      <point x="23" y="263" type="curve" smooth="yes"/>
      <point x="23" y="69"/>
      <point x="108" y="-8"/>
      <point x="279" y="-8" type="curve" smooth="yes"/>
      <point x="482" y="-8"/>
      <point x="583" y="102"/>
      <point x="583" y="285" type="curve" smooth="yes"/>
      <point x="583" y="483"/>
      <point x="474" y="581"/>
      <point x="260" y="581" type="curve" smooth="yes"/>
      <point x="184" y="581"/>
      <point x="109" y="568"/>
      <point x="46" y="550" type="curve"/>
      <point x="49" y="502"/>
      <point x="51" y="454"/>
      <point x="53" y="407" type="curve"/>
      <point x="119" y="423"/>
      <point x="180" y="428"/>
      <point x="241" y="428" type="curve" smooth="yes"/>
      <point x="346" y="428"/>
      <point x="384" y="422"/>
      <point x="395" y="346" type="curve"/>
      <point x="29" y="346" type="line"/>
      <point x="25" y="316"/>
      <point x="23" y="290"/>
    </contour>
    <contour>
      <point x="290" y="132" type="curve" smooth="yes"/>
      <point x="217" y="132"/>
      <point x="202" y="144"/>
      <point x="200" y="227" type="curve"/>
      <point x="397" y="227" type="line"/>
      <point x="390" y="148"/>
      <point x="364" y="132"/>
    </contour>
  </outline>
</glyph>
<glyph name="Sdotbelow.sc" format="1">
  <advance width="494"/>
  <outline>
    <contour>
      <point x="239" y="-9" type="curve" smooth="yes"/>
      <point x="386" y="-9"/>
      <point x="476" y="65"/>
      <point x="476" y="184" type="curve" smooth="yes"/>
      <point x="476" y="272"/>
      <point x="433" y="321"/>
      <point x="332" y="348" type="curve" smooth="yes"/>
      <point x="271" y="364"/>
      <point x="218" y="372"/>
      <point x="218" y="408" type="curve" smooth="yes"/>
      <point x="218" y="429"/>
      <point x="240" y="438"/>
      <point x="288" y="438" type="curve" smooth="yes"/>
      <point x="323" y="438"/>
      <point x="394" y="427"/>
      <point x="444" y="414" type="curve"/>
      <point x="444" y="558" type="line"/>
      <point x="382" y="575"/>
      <point x="326" y="583"/>
      <point x="272" y="583" type="curve" smooth="yes"/>
      <point x="117" y="583"/>
      <point x="34" y="517"/>
      <point x="34" y="394" type="curve" smooth="yes"/>
      <point x="34" y="296"/>
      <point x="82" y="243"/>
      <point x="191" y="222" type="curve" smooth="yes"/>
      <point x="245" y="211"/>
      <point x="292" y="211"/>
      <point x="292" y="177" type="curve" smooth="yes"/>
      <point x="292" y="151"/>
      <point x="266" y="140"/>
      <point x="205" y="140" type="curve" smooth="yes"/>
      <point x="153" y="140"/>
      <point x="79" y="155"/>
      <point x="30" y="175" type="curve"/>
      <point x="30" y="23" type="line"/>
      <point x="104" y="1"/>
      <point x="171" y="-9"/>
    </contour>
    <contour>
      <point x="253" y="-182" type="curve" smooth="yes"/>
      <point x="305" y="-182"/>
      <point x="327" y="-163"/>
      <point x="327" y="-114" type="curve" smooth="yes"/>
      <point x="327" y="-66"/>
      <point x="305" y="-47"/>
      <point x="253" y="-47" type="curve" smooth="yes"/>
      <point x="200" y="-47"/>
      <point x="180" y="-67"/>
      <point x="180" y="-114" type="curve" smooth="yes"/>
      <point x="180" y="-162"/>
      <point x="200" y="-182"/>
    </contour>
  </outline>
</glyph>
<glyph name="Tcaron.sc" format="1">
  <advance width="519"/>
  <outline>
    <contour>
      <point x="168" y="0" type="line"/>
      <point x="351" y="0" type="line"/>
      <point x="351" y="424" type="line"/>
      <point x="500" y="424" type="line"/>
      <point x="500" y="577" type="line"/>
      <point x="19" y="577" type="line"/>
      <point x="19" y="424" type="line"/>
      <point x="168" y="424" type="line"/>
    </contour>
    <contour>
      <point x="104" y="667" type="line"/>
      <point x="264" y="611" type="line"/>
      <point x="422" y="667" type="line"/>
      <point x="422" y="780" type="line"/>
      <point x="263" y="724" type="line"/>
      <point x="104" y="780" type="line"/>
    </contour>
  </outline>
</glyph>
<glyph name="Tdotbelow.sc" format="1">
  <advance width="519"/>
  <outline>
    <contour>
      <point x="168" y="0" type="line"/>
      <point x="351" y="0" type="line"/>
      <point x="351" y="424" type="line"/>
      <point x="500" y="424" type="line"/>
      <point x="500" y="577" type="line"/>
      <point x="19" y="577" type="line"/>
      <point x="19" y="424" type="line"/>
      <point x="168" y="424" type="line"/>
    </contour>
    <contour>
      <point x="260" y="-182" type="curve" smooth="yes"/>
      <point x="312" y="-182"/>
      <point x="334" y="-163"/>
      <point x="334" y="-114" type="curve" smooth="yes"/>
      <point x="334" y="-66"/>
      <point x="312" y="-47"/>
      <point x="260" y="-47" type="curve" smooth="yes"/>
      <point x="207" y="-47"/>
      <point x="186" y="-67"/>
      <point x="186" y="-114" type="curve" smooth="yes"/>
      <point x="186" y="-162"/>
      <point x="207" y="-182"/>
    </contour>
  </outline>
</glyph>
<glyph name="U.sc" format="1">
  <advance width="627"/>
  <outline>
    <contour>
      <point x="320" y="-10" type="move" name="ogonek"/>
    </contour>
    <contour>
      <point x="320" y="760" type="move" name="topUC"/>
    </contour>
    <contour>
      <point x="321" y="0" type="move" name="bottom"/>
    </contour>
    <contour>
      <point x="314" y="-8" type="curve" smooth="yes"/>
      <point x="515" y="-8"/>
      <point x="583" y="69"/>
      <point x="583" y="220" type="curve" smooth="yes"/>
      <point x="583" y="576" type="line"/>
      <point x="400" y="576" type="line"/>
      <point x="400" y="231" type="line" smooth="yes"/>
      <point x="400" y="164"/>
      <point x="380" y="144"/>
      <point x="314" y="144" type="curve" smooth="yes"/>
      <point x="250" y="144"/>
      <point x="227" y="166"/>
      <point x="227" y="231" type="curve" smooth="yes"/>
      <point x="227" y="576" type="line"/>
      <point x="44" y="576" type="line"/>
      <point x="44" y="220" type="line" smooth="yes"/>
      <point x="44" y="71"/>
      <point x="113" y="-8"/>
    </contour>
  </outline>
</glyph>
<glyph name="Ucircumflex.sc" format="1">
  <advance width="627"/>
  <outline>
    <contour>
      <point x="314" y="-8" type="curve" smooth="yes"/>
      <point x="515" y="-8"/>
      <point x="583" y="69"/>
      <point x="583" y="220" type="curve" smooth="yes"/>
      <point x="583" y="576" type="line"/>
      <point x="400" y="576" type="line"/>
      <point x="400" y="231" type="line" smooth="yes"/>
      <point x="400" y="164"/>
      <point x="380" y="144"/>
      <point x="314" y="144" type="curve" smooth="yes"/>
      <point x="250" y="144"/>
      <point x="227" y="166"/>
      <point x="227" y="231" type="curve" smooth="yes"/>
      <point x="227" y="576" type="line"/>
      <point x="44" y="576" type="line"/>
      <point x="44" y="220" type="line" smooth="yes"/>
      <point x="44" y="71"/>
      <point x="113" y="-8"/>
    </contour>
    <contour>
      <point x="148" y="608" type="line"/>
      <point x="307" y="664" type="line"/>
      <point x="466" y="608" type="line"/>
      <point x="466" y="721" type="line"/>
      <point x="308" y="777" type="line"/>
      <point x="148" y="721" type="line"/>
    </contour>
  </outline>
</glyph>
<glyph name="Udblgrave.sc" format="1">
  <advance width="627"/>
  <outline>
    <contour>
      <point x="314" y="-8" type="curve" smooth="yes"/>
      <point x="515" y="-8"/>
      <point x="583" y="69"/>
      <point x="583" y="220" type="curve" smooth="yes"/>
      <point x="583" y="576" type="line"/>
      <point x="400" y="576" type="line"/>
      <point x="400" y="231" type="line" smooth="yes"/>
      <point x="400" y="164"/>
      <point x="380" y="144"/>
      <point x="314" y="144" type="curve" smooth="yes"/>
      <point x="250" y="144"/>
      <point x="227" y="166"/>
      <point x="227" y="231" type="curve" smooth="yes"/>
      <point x="227" y="576" type="line"/>
      <point x="44" y="576" type="line"/>
      <point x="44" y="220" type="line" smooth="yes"/>
      <point x="44" y="71"/>
      <point x="113" y="-8"/>
    </contour>
    <contour>
      <point x="271" y="625" type="line"/>
      <point x="214" y="786" type="line"/>
      <point x="65" y="786" type="line"/>
      <point x="178" y="618" type="line"/>
    </contour>
    <contour>
      <point x="455" y="625" type="line"/>
      <point x="398" y="786" type="line"/>
      <point x="249" y="786" type="line"/>
      <point x="362" y="618" type="line"/>
    </contour>
  </outline>
</glyph>
<glyph name="Udieresis.sc" format="1">
  <advance width="627"/>
  <outline>
    <contour>
      <point x="314" y="-8" type="curve" smooth="yes"/>
      <point x="515" y="-8"/>
      <point x="583" y="69"/>
      <point x="583" y="220" type="curve" smooth="yes"/>
      <point x="583" y="576" type="line"/>
      <point x="400" y="576" type="line"/>
      <point x="400" y="231" type="line" smooth="yes"/>
      <point x="400" y="164"/>
      <point x="380" y="144"/>
      <point x="314" y="144" type="curve" smooth="yes"/>
      <point x="250" y="144"/>
      <point x="227" y="166"/>
      <point x="227" y="231" type="curve" smooth="yes"/>
      <point x="227" y="576" type="line"/>
      <point x="44" y="576" type="line"/>
      <point x="44" y="220" type="line" smooth="yes"/>
      <point x="44" y="71"/>
      <point x="113" y="-8"/>
    </contour>
    <contour>
      <point x="184" y="619" type="curve" smooth="yes"/>
      <point x="251" y="619"/>
      <point x="280" y="646"/>
      <point x="280" y="711" type="curve" smooth="yes"/>
      <point x="280" y="775"/>
      <point x="251" y="802"/>
      <point x="184" y="802" type="curve" smooth="yes"/>
      <point x="116" y="802"/>
      <point x="89" y="775"/>
      <point x="89" y="711" type="curve" smooth="yes"/>
      <point x="89" y="647"/>
      <point x="116" y="619"/>
    </contour>
    <contour>
      <point x="428" y="619" type="curve" smooth="yes"/>
      <point x="495" y="619"/>
      <point x="524" y="646"/>
      <point x="524" y="711" type="curve" smooth="yes"/>
      <point x="524" y="775"/>
      <point x="495" y="802"/>
      <point x="428" y="802" type="curve" smooth="yes"/>
      <point x="360" y="802"/>
      <point x="333" y="775"/>
      <point x="333" y="711" type="curve" smooth="yes"/>
      <point x="333" y="647"/>
      <point x="360" y="619"/>
    </contour>
  </outline>
</glyph>
<glyph name="Uinvertedbreve.sc" format="1">
  <advance width="627"/>
  <outline>
    <contour>
      <point x="314" y="-8" type="curve" smooth="yes"/>
      <point x="515" y="-8"/>
      <point x="583" y="69"/>
      <point x="583" y="220" type="curve" smooth="yes"/>
      <point x="583" y="576" type="line"/>
      <point x="400" y="576" type="line"/>
      <point x="400" y="231" type="line" smooth="yes"/>
      <point x="400" y="164"/>
      <point x="380" y="144"/>
      <point x="314" y="144" type="curve" smooth="yes"/>
      <point x="250" y="144"/>
      <point x="227" y="166"/>
      <point x="227" y="231" type="curve" smooth="yes"/>
      <point x="227" y="576" type="line"/>
      <point x="44" y="576" type="line"/>
      <point x="44" y="220" type="line" smooth="yes"/>
      <point x="44" y="71"/>
      <point x="113" y="-8"/>
    </contour>
    <contour>
      <point x="483" y="621" type="line"/>
      <point x="483" y="717"/>
      <point x="423" y="776"/>
      <point x="307" y="776" type="curve" smooth="yes"/>
      <point x="190" y="776"/>
      <point x="132" y="717"/>
      <point x="132" y="621" type="curve"/>
      <point x="250" y="621" type="line"/>
      <point x="250" y="681"/>
      <point x="261" y="698"/>
      <point x="307" y="698" type="curve" smooth="yes"/>
      <point x="353" y="698"/>
      <point x="364" y="681"/>
      <point x="364" y="621" type="curve"/>
    </contour>
  </outline>
</glyph>
